<svg width="52" height="21" viewBox="0 0 52 21" fill="none" xmlns="http://www.w3.org/2000/svg">
<path d="M2.10178 19.07C1.60711 19.07 1.20578 18.909 0.897781 18.587C0.589781 18.2603 0.435781 17.775 0.435781 17.131C0.435781 16.5197 0.575781 16.053 0.855781 15.731C1.14045 15.409 1.51611 15.248 1.98278 15.248C2.27211 15.248 2.50778 15.3017 2.68978 15.409C2.87645 15.5163 3.02811 15.647 3.14478 15.801H3.18678C3.17745 15.7497 3.16811 15.6773 3.15878 15.584C3.14945 15.4907 3.14478 15.4043 3.14478 15.325V15.003C3.14478 14.7463 3.07011 14.5317 2.92078 14.359C2.77145 14.1863 2.52411 14.1 2.17878 14.1C1.91278 14.1 1.69578 14.1583 1.52778 14.275C1.35978 14.3917 1.27578 14.5457 1.27578 14.737C1.27578 14.765 1.27578 14.793 1.27578 14.821C1.28045 14.849 1.28511 14.877 1.28978 14.905H0.694781C0.680781 14.8583 0.671448 14.814 0.666781 14.772C0.662115 14.73 0.659781 14.6903 0.659781 14.653C0.659781 14.4477 0.727448 14.268 0.862781 14.114C0.998115 13.9553 1.18011 13.8317 1.40878 13.743C1.64211 13.6543 1.89878 13.61 2.17878 13.61C2.67345 13.61 3.06078 13.743 3.34078 14.009C3.62078 14.275 3.76078 14.625 3.76078 15.059V17.131C3.76078 17.775 3.61845 18.2603 3.33378 18.587C3.04911 18.909 2.63845 19.07 2.10178 19.07ZM2.10178 18.559C2.48445 18.559 2.75511 18.44 2.91378 18.202C3.07245 17.964 3.15178 17.6467 3.15178 17.25V17.138C3.15178 16.7087 3.07478 16.3727 2.92078 16.13C2.76678 15.8827 2.48211 15.759 2.06678 15.759C1.73545 15.759 1.48578 15.8873 1.31778 16.144C1.15445 16.4007 1.07278 16.7343 1.07278 17.145C1.07278 17.593 1.15678 17.9407 1.32478 18.188C1.49278 18.4353 1.75178 18.559 2.10178 18.559ZM6.31206 20.75C5.99006 20.75 5.70773 20.6893 5.46506 20.568C5.2224 20.4467 5.0334 20.2763 4.89806 20.057C4.76273 19.8423 4.69506 19.5903 4.69506 19.301C4.69506 19.1657 4.7044 19.0513 4.72306 18.958C4.74173 18.86 4.7674 18.7713 4.80006 18.692H5.38806C5.33673 18.846 5.31106 19.0303 5.31106 19.245C5.31106 19.5203 5.39273 19.7537 5.55606 19.945C5.72406 20.141 5.97606 20.239 6.31206 20.239C6.6714 20.239 6.92806 20.12 7.08206 19.882C7.24073 19.644 7.32006 19.3267 7.32006 18.93V17.971C7.32006 17.8777 7.3224 17.7867 7.32706 17.698C7.3364 17.6093 7.34573 17.5253 7.35506 17.446H7.31306C7.19173 17.6373 7.0284 17.782 6.82306 17.88C6.61773 17.978 6.3914 18.027 6.14406 18.027C5.67273 18.027 5.30873 17.8963 5.05206 17.635C4.80006 17.3737 4.67406 16.9723 4.67406 16.431C4.67406 16.193 4.69973 15.976 4.75106 15.78C4.80706 15.584 4.8724 15.4067 4.94706 15.248H5.56306C5.49306 15.43 5.4324 15.612 5.38106 15.794C5.3344 15.9713 5.31106 16.1883 5.31106 16.445C5.31106 16.8137 5.3904 17.0843 5.54906 17.257C5.70773 17.4297 5.93173 17.516 6.22106 17.516C6.95373 17.516 7.32006 17.1543 7.32006 16.431V15.248H7.93606V18.958C7.93606 19.5273 7.79373 19.9683 7.50906 20.281C7.2244 20.5937 6.8254 20.75 6.31206 20.75ZM9.27098 19C9.12632 18.6733 9.01898 18.3607 8.94898 18.062C8.87898 17.7633 8.84398 17.432 8.84398 17.068C8.84398 16.494 8.98165 16.0367 9.25698 15.696C9.53698 15.3507 9.94065 15.178 10.468 15.178C11.0047 15.178 11.4083 15.3507 11.679 15.696C11.9543 16.0367 12.092 16.494 12.092 17.068C12.092 17.432 12.057 17.7633 11.987 18.062C11.917 18.3607 11.8097 18.6733 11.665 19H11.035C11.1843 18.6733 11.2917 18.3607 11.357 18.062C11.427 17.7633 11.462 17.4297 11.462 17.061C11.462 16.6083 11.3733 16.2677 11.196 16.039C11.0233 15.8057 10.7807 15.689 10.468 15.689C10.1553 15.689 9.91032 15.8057 9.73298 16.039C9.56032 16.2677 9.47398 16.6083 9.47398 17.061C9.47398 17.4297 9.50665 17.7633 9.57198 18.062C9.64198 18.3607 9.75165 18.6733 9.90098 19H9.27098ZM14.6625 19.07C14.1258 19.07 13.7152 18.909 13.4305 18.587C13.1458 18.2603 13.0035 17.775 13.0035 17.131V14.954C13.0035 14.6553 13.0572 14.4127 13.1645 14.226C13.2765 14.0347 13.4282 13.897 13.6195 13.813C13.8108 13.7243 14.0255 13.68 14.2635 13.68H15.9155V14.198H14.3475C14.1235 14.198 13.9462 14.254 13.8155 14.366C13.6848 14.4733 13.6195 14.6623 13.6195 14.933V15.178C13.6195 15.248 13.6125 15.3437 13.5985 15.465C13.5892 15.5817 13.5822 15.6703 13.5775 15.731H13.6195C13.7362 15.577 13.8855 15.4463 14.0675 15.339C14.2542 15.2317 14.4922 15.178 14.7815 15.178C15.2482 15.178 15.6215 15.3437 15.9015 15.675C16.1862 16.0017 16.3285 16.487 16.3285 17.131C16.3285 17.775 16.1745 18.2603 15.8665 18.587C15.5585 18.909 15.1572 19.07 14.6625 19.07ZM14.6625 18.559C15.0125 18.559 15.2715 18.4353 15.4395 18.188C15.6075 17.9407 15.6915 17.593 15.6915 17.145C15.6915 16.7017 15.6075 16.3493 15.4395 16.088C15.2762 15.822 15.0288 15.689 14.6975 15.689C14.4222 15.689 14.2052 15.745 14.0465 15.857C13.8878 15.9643 13.7758 16.1207 13.7105 16.326C13.6452 16.5313 13.6125 16.774 13.6125 17.054V17.25C13.6125 17.6467 13.6918 17.964 13.8505 18.202C14.0092 18.44 14.2798 18.559 14.6625 18.559ZM18.6854 20.75C18.3448 20.75 18.0461 20.6823 17.7894 20.547C17.5374 20.4163 17.3414 20.2367 17.2014 20.008C17.0661 19.7793 16.9984 19.5203 16.9984 19.231C16.9984 19.0957 17.0101 18.9697 17.0334 18.853C17.0614 18.7317 17.0918 18.6313 17.1244 18.552H17.7124C17.6891 18.6267 17.6658 18.7247 17.6424 18.846C17.6238 18.9627 17.6144 19.0723 17.6144 19.175C17.6144 19.357 17.6518 19.5297 17.7264 19.693C17.8011 19.8563 17.9178 19.987 18.0764 20.085C18.2351 20.1877 18.4381 20.239 18.6854 20.239C18.9234 20.239 19.1194 20.1853 19.2734 20.078C19.4274 19.9753 19.5418 19.8353 19.6164 19.658C19.6911 19.4807 19.7284 19.2847 19.7284 19.07C19.7284 18.7527 19.6398 18.4913 19.4624 18.286C19.2851 18.0807 19.0074 17.978 18.6294 17.978H18.3564V17.467H18.6784C19.0098 17.467 19.2478 17.376 19.3924 17.194C19.5371 17.0073 19.6094 16.788 19.6094 16.536C19.6094 16.3073 19.5324 16.109 19.3784 15.941C19.2291 15.773 19.0121 15.689 18.7274 15.689C18.4381 15.689 18.2164 15.7637 18.0624 15.913C17.9131 16.0577 17.8384 16.2583 17.8384 16.515C17.8384 16.5757 17.8431 16.6387 17.8524 16.704C17.8618 16.7693 17.8758 16.8393 17.8944 16.914H17.2924C17.2691 16.8393 17.2504 16.7647 17.2364 16.69C17.2271 16.6107 17.2224 16.536 17.2224 16.466C17.2224 16.2233 17.2854 16.004 17.4114 15.808C17.5421 15.612 17.7194 15.458 17.9434 15.346C18.1721 15.234 18.4334 15.178 18.7274 15.178C19.0214 15.178 19.2804 15.2363 19.5044 15.353C19.7284 15.4697 19.9034 15.6283 20.0294 15.829C20.1601 16.0297 20.2254 16.2513 20.2254 16.494C20.2254 16.8207 20.1344 17.089 19.9524 17.299C19.7751 17.509 19.5394 17.6443 19.2454 17.705V17.733C19.4414 17.7657 19.6234 17.838 19.7914 17.95C19.9641 18.0573 20.1018 18.2067 20.2044 18.398C20.3118 18.5893 20.3654 18.8227 20.3654 19.098C20.3654 19.434 20.2954 19.7257 20.1554 19.973C20.0154 20.2203 19.8194 20.4117 19.5674 20.547C19.3201 20.6823 19.0261 20.75 18.6854 20.75ZM22.4831 19.07C22.1938 19.07 21.9301 19.0163 21.6921 18.909C21.4588 18.8017 21.2721 18.643 21.1321 18.433C20.9968 18.223 20.9291 17.9617 20.9291 17.649C20.9291 17.5463 20.9384 17.4483 20.9571 17.355C20.9758 17.257 20.9968 17.18 21.0201 17.124H21.6081C21.5894 17.1893 21.5731 17.2663 21.5591 17.355C21.5498 17.4437 21.5451 17.5417 21.5451 17.649C21.5451 17.9477 21.6291 18.174 21.7971 18.328C21.9698 18.482 22.1984 18.559 22.4831 18.559C22.7678 18.559 22.9918 18.482 23.1551 18.328C23.3184 18.1693 23.4001 17.9313 23.4001 17.614C23.4001 17.3713 23.3464 17.1753 23.2391 17.026C23.1364 16.8767 23.0198 16.7343 22.8891 16.599C22.7771 16.487 22.6651 16.3703 22.5531 16.249C22.4411 16.123 22.3478 15.9807 22.2731 15.822C22.2031 15.6587 22.1681 15.4673 22.1681 15.248H22.7841C22.7841 15.4533 22.8378 15.6307 22.9451 15.78C23.0571 15.9293 23.1854 16.0763 23.3301 16.221C23.4468 16.3377 23.5588 16.4613 23.6661 16.592C23.7734 16.718 23.8621 16.865 23.9321 17.033C24.0021 17.1963 24.0371 17.39 24.0371 17.614C24.0371 17.9033 23.9694 18.1577 23.8341 18.377C23.6988 18.5963 23.5144 18.7667 23.2811 18.888C23.0478 19.0093 22.7818 19.07 22.4831 19.07ZM25.2189 19C25.0742 18.6733 24.9692 18.3607 24.9039 18.062C24.8386 17.7633 24.8059 17.432 24.8059 17.068V16.802C24.8059 15.9387 24.9576 15.2737 25.2609 14.807C25.5689 14.3357 26.0356 14.0323 26.6609 13.897C26.9222 13.841 27.1836 13.7897 27.4449 13.743C27.7062 13.6963 27.9629 13.652 28.2149 13.61L28.3199 14.149C28.1566 14.1723 27.9769 14.2003 27.7809 14.233C27.5896 14.261 27.4052 14.2913 27.2279 14.324C27.0506 14.352 26.9012 14.38 26.7799 14.408C26.5886 14.4547 26.4019 14.52 26.2199 14.604C26.0379 14.688 25.8746 14.8117 25.7299 14.975C25.5852 15.1383 25.4709 15.3623 25.3869 15.647H25.4079C25.5432 15.451 25.6809 15.325 25.8209 15.269C25.9609 15.2083 26.1056 15.178 26.2549 15.178C26.4929 15.178 26.6912 15.2387 26.8499 15.36C27.0086 15.4767 27.1252 15.6377 27.1999 15.843H27.2349C27.3096 15.6377 27.4309 15.4767 27.5989 15.36C27.7716 15.2387 27.9816 15.178 28.2289 15.178C28.5416 15.178 28.8029 15.2573 29.0129 15.416C29.2229 15.5747 29.3816 15.7963 29.4889 16.081C29.5962 16.3657 29.6499 16.6947 29.6499 17.068C29.6499 17.432 29.6149 17.7633 29.5449 18.062C29.4749 18.3607 29.3676 18.6733 29.2229 19H28.5929C28.7422 18.6733 28.8496 18.3607 28.9149 18.062C28.9849 17.7633 29.0199 17.4297 29.0199 17.061C29.0199 16.6083 28.9476 16.2677 28.8029 16.039C28.6582 15.8057 28.4506 15.689 28.1799 15.689C27.9699 15.689 27.8066 15.7683 27.6899 15.927C27.5732 16.0857 27.5149 16.3097 27.5149 16.599V17.726H26.9269V16.599C26.9269 16.3377 26.8732 16.1207 26.7659 15.948C26.6586 15.7753 26.4882 15.689 26.2549 15.689C25.9889 15.689 25.7836 15.8057 25.6389 16.039C25.4942 16.2677 25.4219 16.6083 25.4219 17.061C25.4219 17.4297 25.4546 17.7633 25.5199 18.062C25.5899 18.3607 25.6996 18.6733 25.8489 19H25.2189ZM32.2172 19.07C31.6805 19.07 31.2699 18.9113 30.9852 18.594C30.7005 18.2767 30.5582 17.8123 30.5582 17.201V14.779C30.5582 14.513 30.6095 14.2937 30.7122 14.121C30.8149 13.9483 30.9502 13.82 31.1182 13.736C31.2909 13.652 31.4775 13.61 31.6782 13.61C31.8415 13.61 32.0049 13.6427 32.1682 13.708C32.3315 13.7733 32.4575 13.911 32.5462 14.121H32.5672C32.6559 13.911 32.7702 13.7733 32.9102 13.708C33.0502 13.6427 33.1925 13.61 33.3372 13.61C33.4679 13.61 33.5869 13.624 33.6942 13.652C33.8062 13.68 33.9065 13.7127 33.9952 13.75L33.8412 14.219C33.7665 14.1957 33.6872 14.1723 33.6032 14.149C33.5192 14.1257 33.4329 14.114 33.3442 14.114C33.2182 14.114 33.1039 14.156 33.0012 14.24C32.9032 14.3193 32.8542 14.4383 32.8542 14.597V14.933H32.2592V14.597C32.2592 14.4477 32.2102 14.3287 32.1122 14.24C32.0142 14.1467 31.8859 14.1 31.7272 14.1C31.5545 14.1 31.4192 14.1607 31.3212 14.282C31.2232 14.4033 31.1742 14.5737 31.1742 14.793V15.465C31.1742 15.5443 31.1672 15.6307 31.1532 15.724C31.1439 15.8173 31.1369 15.8897 31.1322 15.941H31.1742C31.2909 15.787 31.4402 15.6563 31.6222 15.549C31.8089 15.4417 32.0469 15.388 32.3362 15.388C32.8029 15.388 33.1762 15.5467 33.4562 15.864C33.7409 16.1813 33.8832 16.627 33.8832 17.201C33.8832 17.607 33.8132 17.95 33.6732 18.23C33.5332 18.5053 33.3372 18.7153 33.0852 18.86C32.8332 19 32.5439 19.07 32.2172 19.07ZM32.2172 18.559C32.5672 18.559 32.8262 18.44 32.9942 18.202C33.1622 17.9593 33.2462 17.6303 33.2462 17.215C33.2462 16.9677 33.2089 16.7437 33.1342 16.543C33.0642 16.3423 32.9545 16.186 32.8052 16.074C32.6559 15.9573 32.4715 15.899 32.2522 15.899C31.9769 15.899 31.7599 15.9527 31.6012 16.06C31.4425 16.1673 31.3305 16.3213 31.2652 16.522C31.1999 16.718 31.1672 16.9467 31.1672 17.208V17.32C31.1672 17.6793 31.2465 17.9757 31.4052 18.209C31.5639 18.4423 31.8345 18.559 32.2172 18.559ZM36.1718 20.75C35.8311 20.75 35.5324 20.6823 35.2758 20.547C35.0238 20.4163 34.8278 20.2367 34.6878 20.008C34.5524 19.7793 34.4848 19.5203 34.4848 19.231C34.4848 19.0957 34.4964 18.9697 34.5198 18.853C34.5478 18.7317 34.5781 18.6313 34.6108 18.552H35.1988C35.1754 18.6267 35.1521 18.7247 35.1288 18.846C35.1101 18.9627 35.1008 19.0723 35.1008 19.175C35.1008 19.357 35.1381 19.5297 35.2128 19.693C35.2874 19.8563 35.4041 19.987 35.5628 20.085C35.7214 20.1877 35.9244 20.239 36.1718 20.239C36.4098 20.239 36.6058 20.1853 36.7598 20.078C36.9138 19.9753 37.0281 19.8353 37.1028 19.658C37.1774 19.4807 37.2148 19.2847 37.2148 19.07C37.2148 18.7527 37.1261 18.4913 36.9488 18.286C36.7714 18.0807 36.4938 17.978 36.1158 17.978H35.8428V17.467H36.1648C36.4961 17.467 36.7341 17.376 36.8788 17.194C37.0234 17.0073 37.0958 16.788 37.0958 16.536C37.0958 16.3073 37.0188 16.109 36.8648 15.941C36.7154 15.773 36.4984 15.689 36.2138 15.689C35.9244 15.689 35.7028 15.7637 35.5488 15.913C35.3994 16.0577 35.3248 16.2583 35.3248 16.515C35.3248 16.5757 35.3294 16.6387 35.3388 16.704C35.3481 16.7693 35.3621 16.8393 35.3808 16.914H34.7788C34.7554 16.8393 34.7368 16.7647 34.7228 16.69C34.7134 16.6107 34.7088 16.536 34.7088 16.466C34.7088 16.2233 34.7718 16.004 34.8978 15.808C35.0284 15.612 35.2058 15.458 35.4298 15.346C35.6584 15.234 35.9198 15.178 36.2138 15.178C36.5078 15.178 36.7668 15.2363 36.9908 15.353C37.2148 15.4697 37.3898 15.6283 37.5158 15.829C37.6464 16.0297 37.7118 16.2513 37.7118 16.494C37.7118 16.8207 37.6208 17.089 37.4388 17.299C37.2614 17.509 37.0258 17.6443 36.7318 17.705V17.733C36.9278 17.7657 37.1098 17.838 37.2778 17.95C37.4504 18.0573 37.5881 18.2067 37.6908 18.398C37.7981 18.5893 37.8518 18.8227 37.8518 19.098C37.8518 19.434 37.7818 19.7257 37.6418 19.973C37.5018 20.2203 37.3058 20.4117 37.0538 20.547C36.8064 20.6823 36.5124 20.75 36.1718 20.75ZM40.1691 20.75C39.8471 20.75 39.5648 20.68 39.3221 20.54C39.0795 20.4047 38.8905 20.2133 38.7551 19.966C38.6198 19.7187 38.5521 19.427 38.5521 19.091C38.5521 18.9557 38.5638 18.8297 38.5871 18.713C38.6151 18.5917 38.6455 18.4913 38.6781 18.412H39.2661C39.2428 18.4867 39.2195 18.5847 39.1961 18.706C39.1775 18.8227 39.1681 18.9323 39.1681 19.035C39.1681 19.3757 39.2498 19.6603 39.4131 19.889C39.5811 20.1223 39.8331 20.239 40.1691 20.239C40.5285 20.239 40.7851 20.12 40.9391 19.882C41.0978 19.644 41.1771 19.3267 41.1771 18.93V16.802C41.1771 16.4473 41.1025 16.1743 40.9531 15.983C40.8085 15.787 40.5868 15.689 40.2881 15.689C40.0175 15.689 39.7958 15.766 39.6231 15.92C39.4551 16.074 39.3711 16.3003 39.3711 16.599C39.3711 16.7063 39.3758 16.8043 39.3851 16.893C39.3991 16.9817 39.4155 17.0587 39.4341 17.124H38.8461C38.8275 17.068 38.8065 16.9933 38.7831 16.9C38.7645 16.802 38.7551 16.7017 38.7551 16.599C38.7551 16.2863 38.8228 16.025 38.9581 15.815C39.0981 15.605 39.2825 15.4463 39.5111 15.339C39.7445 15.2317 40.0035 15.178 40.2881 15.178C40.7455 15.178 41.1095 15.318 41.3801 15.598C41.6555 15.8733 41.7931 16.2653 41.7931 16.774V18.958C41.7931 19.5273 41.6508 19.9683 41.3661 20.281C41.0815 20.5937 40.6825 20.75 40.1691 20.75ZM43.1154 19C42.9707 18.6733 42.8657 18.3607 42.8004 18.062C42.735 17.7633 42.7024 17.432 42.7024 17.068V16.802C42.7024 15.9387 42.854 15.2737 43.1574 14.807C43.4654 14.3357 43.932 14.0323 44.5574 13.897C44.8187 13.841 45.08 13.7897 45.3414 13.743C45.6027 13.6963 45.8594 13.652 46.1114 13.61L46.2164 14.149C46.053 14.1723 45.8734 14.2003 45.6774 14.233C45.486 14.261 45.3017 14.2913 45.1244 14.324C44.947 14.352 44.7977 14.38 44.6764 14.408C44.485 14.4547 44.2984 14.52 44.1164 14.604C43.9344 14.688 43.771 14.8117 43.6264 14.975C43.4817 15.1383 43.3674 15.3623 43.2834 15.647H43.3044C43.4397 15.451 43.5774 15.325 43.7174 15.269C43.8574 15.2083 44.002 15.178 44.1514 15.178C44.3894 15.178 44.5877 15.2387 44.7464 15.36C44.905 15.4767 45.0217 15.6377 45.0964 15.843H45.1314C45.206 15.6377 45.3274 15.4767 45.4954 15.36C45.668 15.2387 45.878 15.178 46.1254 15.178C46.438 15.178 46.6994 15.2573 46.9094 15.416C47.1194 15.5747 47.278 15.7963 47.3854 16.081C47.4927 16.3657 47.5464 16.6947 47.5464 17.068C47.5464 17.432 47.5114 17.7633 47.4414 18.062C47.3714 18.3607 47.264 18.6733 47.1194 19H46.4894C46.6387 18.6733 46.746 18.3607 46.8114 18.062C46.8814 17.7633 46.9164 17.4297 46.9164 17.061C46.9164 16.6083 46.844 16.2677 46.6994 16.039C46.5547 15.8057 46.347 15.689 46.0764 15.689C45.8664 15.689 45.703 15.7683 45.5864 15.927C45.4697 16.0857 45.4114 16.3097 45.4114 16.599V17.726H44.8234V16.599C44.8234 16.3377 44.7697 16.1207 44.6624 15.948C44.555 15.7753 44.3847 15.689 44.1514 15.689C43.8854 15.689 43.68 15.8057 43.5354 16.039C43.3907 16.2677 43.3184 16.6083 43.3184 17.061C43.3184 17.4297 43.351 17.7633 43.4164 18.062C43.4864 18.3607 43.596 18.6733 43.7454 19H43.1154ZM48.7417 19C48.597 18.6733 48.4897 18.3607 48.4197 18.062C48.3497 17.7633 48.3147 17.432 48.3147 17.068C48.3147 16.494 48.4524 16.0367 48.7277 15.696C49.0077 15.3507 49.4114 15.178 49.9387 15.178C50.4754 15.178 50.879 15.3507 51.1497 15.696C51.425 16.0367 51.5627 16.494 51.5627 17.068C51.5627 17.432 51.5277 17.7633 51.4577 18.062C51.3877 18.3607 51.2804 18.6733 51.1357 19H50.5057C50.655 18.6733 50.7624 18.3607 50.8277 18.062C50.8977 17.7633 50.9327 17.4297 50.9327 17.061C50.9327 16.6083 50.844 16.2677 50.6667 16.039C50.494 15.8057 50.2514 15.689 49.9387 15.689C49.626 15.689 49.381 15.8057 49.2037 16.039C49.031 16.2677 48.9447 16.6083 48.9447 17.061C48.9447 17.4297 48.9774 17.7633 49.0427 18.062C49.1127 18.3607 49.2224 18.6733 49.3717 19H48.7417Z" fill="#515151"/>
<path d="M27.7671 1L27.4536 1.57063L25.2117 5.64613L24.553 4.9875L24.3262 5.36494L22.3118 8.72234L22 9.24278H32.7539L32.5483 8.76325L31.5171 6.357L31.317 5.89053L30.6061 6.60141L28.0613 1.58094L27.7671 1ZM27.742 2.47194L28.787 4.53306L28.5209 4.76131L27.7372 4.08997L26.9538 4.76131L26.6341 4.48666L27.742 2.47194ZM27.7375 4.99506L28.5213 5.66641L29.1063 5.16453L30.2063 7.33531L30.4202 7.75916L31.0843 7.09503L31.7099 8.55528H23.2138C23.7053 7.73544 24.1976 6.91559 24.6895 6.09609L25.3729 6.77947L25.5936 6.37866C25.8277 5.95309 26.0621 5.52788 26.2958 5.10231L26.9538 5.66606L27.7375 4.99506Z" fill="#077232"/>
<path d="M28.7872 4.53329L27.7422 2.47217L26.6343 4.48689L26.954 4.76154L27.7374 4.0902L28.5211 4.76154L28.7872 4.53329Z" fill="white"/>
</svg>
