<svg width="61" height="11" viewBox="0 0 61 11" fill="none" xmlns="http://www.w3.org/2000/svg">
<path d="M3.06593 9.75C2.3286 9.75 1.75926 9.50733 1.35793 9.022C0.961263 8.53667 0.76293 7.83433 0.76293 6.915C0.76293 6.117 0.940263 5.48233 1.29493 5.011C1.65426 4.535 2.1536 4.26433 2.79293 4.199C2.7836 4.11033 2.77426 4.02167 2.76493 3.933C2.76026 3.84433 2.75793 3.76967 2.75793 3.709V3.38H3.37393V3.695C3.37393 3.83033 3.36226 3.996 3.33893 4.192C3.97826 4.25733 4.47526 4.528 4.82993 5.004C5.18926 5.48 5.36893 6.11933 5.36893 6.922C5.36893 7.49133 5.28026 7.986 5.10293 8.406C4.93026 8.83067 4.67126 9.15967 4.32593 9.393C3.98526 9.631 3.56526 9.75 3.06593 9.75ZM3.06593 9.239C3.60726 9.239 4.02026 9.043 4.30493 8.651C4.5896 8.259 4.73193 7.68267 4.73193 6.922C4.73193 5.56867 4.2676 4.822 3.33893 4.682C3.34826 4.78 3.35526 4.88033 3.35993 4.983C3.36926 5.081 3.37393 5.179 3.37393 5.277V6.726H2.75793V5.263C2.75793 5.16967 2.76026 5.074 2.76493 4.976C2.77426 4.878 2.7836 4.78233 2.79293 4.689C1.86426 4.829 1.39993 5.57333 1.39993 6.922C1.39993 7.678 1.54226 8.252 1.82693 8.644C2.11626 9.04067 2.52926 9.239 3.06593 9.239ZM7.71798 9.75C7.39598 9.75 7.11364 9.68 6.87098 9.54C6.62831 9.40467 6.43931 9.21333 6.30398 8.966C6.16864 8.71867 6.10098 8.427 6.10098 8.091C6.10098 7.95567 6.11264 7.82967 6.13598 7.713C6.16398 7.59167 6.19431 7.49133 6.22698 7.412H6.81498C6.79164 7.48667 6.76831 7.58467 6.74498 7.706C6.72631 7.82267 6.71698 7.93233 6.71698 8.035C6.71698 8.37567 6.79864 8.66033 6.96198 8.889C7.12998 9.12233 7.38198 9.239 7.71798 9.239C8.07731 9.239 8.33398 9.12 8.48798 8.882C8.64664 8.644 8.72598 8.32667 8.72598 7.93V5.802C8.72598 5.44733 8.65131 5.17433 8.50198 4.983C8.35731 4.787 8.13564 4.689 7.83698 4.689C7.56631 4.689 7.34464 4.766 7.17198 4.92C7.00398 5.074 6.91998 5.30033 6.91998 5.599C6.91998 5.70633 6.92464 5.80433 6.93398 5.893C6.94798 5.98167 6.96431 6.05867 6.98298 6.124H6.39498C6.37631 6.068 6.35531 5.99333 6.33198 5.9C6.31331 5.802 6.30398 5.70167 6.30398 5.599C6.30398 5.28633 6.37164 5.025 6.50698 4.815C6.64698 4.605 6.83131 4.44633 7.05998 4.339C7.29331 4.23167 7.55231 4.178 7.83698 4.178C8.29431 4.178 8.65831 4.318 8.92898 4.598C9.20431 4.87333 9.34198 5.26533 9.34198 5.774V7.958C9.34198 8.52733 9.19964 8.96833 8.91498 9.281C8.63031 9.59367 8.23131 9.75 7.71798 9.75ZM12.3862 4.213C12.7875 4.29233 13.1095 4.49533 13.3522 4.822C13.5995 5.14867 13.7232 5.58033 13.7232 6.117C13.7232 6.73767 13.5645 7.21833 13.2472 7.559C12.9345 7.89967 12.5099 8.07 11.9732 8.07C11.6419 8.07 11.3455 7.99533 11.0842 7.846C10.8275 7.692 10.6245 7.47033 10.4752 7.181C10.3259 6.887 10.2512 6.53233 10.2512 6.117C10.2512 5.53367 10.3889 5.07633 10.6642 4.745C10.9395 4.41367 11.3175 4.227 11.7982 4.185C11.8215 4.143 11.8402 4.094 11.8542 4.038C11.8729 3.982 11.8822 3.91433 11.8822 3.835C11.8822 3.74633 11.8589 3.674 11.8122 3.618C11.7702 3.55733 11.7165 3.50133 11.6512 3.45C11.5532 3.37533 11.4575 3.282 11.3642 3.17C11.2709 3.058 11.2242 2.89467 11.2242 2.68H11.8402C11.8402 2.78733 11.8659 2.88067 11.9172 2.96C11.9685 3.03467 12.0315 3.10233 12.1062 3.163C12.1995 3.24233 12.2859 3.331 12.3652 3.429C12.4445 3.527 12.4842 3.64833 12.4842 3.793C12.4842 3.95167 12.4515 4.09167 12.3862 4.213ZM11.9872 7.559C12.3652 7.559 12.6429 7.43067 12.8202 7.174C12.9975 6.91267 13.0862 6.56033 13.0862 6.117C13.0862 5.67367 12.9975 5.326 12.8202 5.074C12.6429 4.822 12.3629 4.696 11.9802 4.696C11.5975 4.696 11.3199 4.822 11.1472 5.074C10.9745 5.326 10.8882 5.67367 10.8882 6.117C10.8882 6.56033 10.9745 6.91267 11.1472 7.174C11.3245 7.43067 11.6045 7.559 11.9872 7.559ZM16.122 9.75C15.7813 9.75 15.4826 9.68 15.226 9.54C14.974 9.40467 14.778 9.21333 14.638 8.966C14.5026 8.71867 14.435 8.427 14.435 8.091C14.435 7.95567 14.4466 7.82967 14.47 7.713C14.498 7.59167 14.5283 7.49133 14.561 7.412H15.149C15.1256 7.48667 15.1023 7.58467 15.079 7.706C15.0603 7.82267 15.051 7.93233 15.051 8.035C15.051 8.37567 15.1373 8.66033 15.31 8.889C15.4826 9.12233 15.7533 9.239 16.122 9.239C16.4813 9.239 16.738 9.12 16.892 8.882C17.0506 8.644 17.13 8.32667 17.13 7.93V5.459C17.13 5.21167 17.0833 5.02267 16.99 4.892C16.9013 4.75667 16.7613 4.689 16.57 4.689C16.3926 4.689 16.255 4.75667 16.157 4.892C16.0636 5.02267 16.017 5.207 16.017 5.445V6.348H15.429V5.459C15.429 4.969 15.2376 4.724 14.855 4.724H14.33V4.213H14.834C15.0626 4.213 15.2493 4.262 15.394 4.36C15.5433 4.45333 15.6506 4.60967 15.716 4.829H15.744C15.9073 4.395 16.2083 4.178 16.647 4.178C16.9923 4.178 17.2606 4.28767 17.452 4.507C17.648 4.72633 17.746 5.00867 17.746 5.354V7.958C17.746 8.52733 17.6036 8.96833 17.319 9.281C17.0343 9.59367 16.6353 9.75 16.122 9.75ZM23.1536 9.75C22.9389 9.4 22.6426 9.134 22.2646 8.952C21.8912 8.77 21.4969 8.679 21.0816 8.679C20.8529 8.679 20.6289 8.70933 20.4096 8.77C20.1902 8.83533 19.9779 8.92633 19.7726 9.043L19.5276 8.595C19.6722 8.525 19.8262 8.46433 19.9896 8.413C20.1576 8.36167 20.3232 8.33133 20.4866 8.322V8.301C20.1506 8.19367 19.8426 8.042 19.5626 7.846C19.2872 7.64533 19.0656 7.391 18.8976 7.083C18.7342 6.77033 18.6526 6.39 18.6526 5.942C18.6526 5.41 18.7692 4.983 19.0026 4.661C19.2406 4.339 19.5859 4.178 20.0386 4.178C20.2952 4.178 20.5052 4.23867 20.6686 4.36C20.8319 4.47667 20.9509 4.63767 21.0256 4.843H21.0606C21.1399 4.63767 21.2636 4.47667 21.4316 4.36C21.5996 4.23867 21.8142 4.178 22.0756 4.178C22.3462 4.178 22.5632 4.23867 22.7266 4.36C22.8946 4.47667 23.0159 4.63767 23.0906 4.843H23.1256C23.2002 4.63767 23.3216 4.47667 23.4896 4.36C23.6622 4.23867 23.8722 4.178 24.1196 4.178C24.4182 4.178 24.6702 4.25733 24.8756 4.416C25.0856 4.57467 25.2419 4.79633 25.3446 5.081C25.4519 5.36567 25.5056 5.69467 25.5056 6.068C25.5056 6.36667 25.4729 6.64433 25.4076 6.901C25.3469 7.15767 25.2512 7.40967 25.1206 7.657L24.5886 7.461C24.6959 7.23233 24.7706 7.01067 24.8126 6.796C24.8546 6.57667 24.8756 6.33167 24.8756 6.061C24.8756 5.60833 24.8032 5.26767 24.6586 5.039C24.5186 4.80567 24.3226 4.689 24.0706 4.689C23.8606 4.689 23.6972 4.76833 23.5806 4.927C23.4639 5.08567 23.4056 5.30967 23.4056 5.599V6.726H22.8176V5.599C22.8176 5.33767 22.7592 5.12067 22.6426 4.948C22.5306 4.77533 22.3416 4.689 22.0756 4.689C21.8329 4.689 21.6486 4.76833 21.5226 4.927C21.4012 5.08567 21.3406 5.30967 21.3406 5.599V6.726H20.7526V5.599C20.7526 5.33767 20.6966 5.12067 20.5846 4.948C20.4772 4.77533 20.3092 4.689 20.0806 4.689C19.8332 4.689 19.6372 4.79167 19.4926 4.997C19.3526 5.20233 19.2826 5.51733 19.2826 5.942C19.2826 6.26867 19.3339 6.55333 19.4366 6.796C19.5439 7.034 19.6886 7.237 19.8706 7.405C20.0526 7.573 20.2579 7.71067 20.4866 7.818C20.7199 7.92067 20.9626 8 21.2146 8.056C21.5272 8.12133 21.8422 8.21 22.1596 8.322C22.4769 8.43867 22.7639 8.59033 23.0206 8.777C23.2772 8.96833 23.4779 9.20867 23.6226 9.498L23.1536 9.75ZM26.7016 8C26.557 7.67333 26.4496 7.36067 26.3796 7.062C26.3096 6.76333 26.2746 6.432 26.2746 6.068C26.2746 5.69467 26.3283 5.36567 26.4356 5.081C26.543 4.79633 26.7016 4.57467 26.9116 4.416C27.1216 4.25733 27.383 4.178 27.6956 4.178C27.957 4.178 28.167 4.23867 28.3256 4.36C28.489 4.47667 28.608 4.63767 28.6826 4.843H28.7176C28.7923 4.63767 28.9136 4.47667 29.0816 4.36C29.2543 4.23867 29.4643 4.178 29.7116 4.178C30.0243 4.178 30.2856 4.25733 30.4956 4.416C30.7056 4.57467 30.8643 4.79633 30.9716 5.081C31.079 5.36567 31.1326 5.69467 31.1326 6.068C31.1326 6.432 31.0976 6.76333 31.0276 7.062C30.9576 7.36067 30.8503 7.67333 30.7056 8H30.0756C30.225 7.67333 30.3323 7.36067 30.3976 7.062C30.4676 6.76333 30.5026 6.42967 30.5026 6.061C30.5026 5.60833 30.4303 5.26767 30.2856 5.039C30.141 4.80567 29.9333 4.689 29.6626 4.689C29.4526 4.689 29.2893 4.76833 29.1726 4.927C29.056 5.08567 28.9976 5.30967 28.9976 5.599V6.726H28.4096V5.599C28.4096 5.33767 28.356 5.12067 28.2486 4.948C28.1413 4.77533 27.971 4.689 27.7376 4.689C27.4716 4.689 27.2663 4.80567 27.1216 5.039C26.977 5.26767 26.9046 5.60833 26.9046 6.061C26.9046 6.42967 26.9373 6.76333 27.0026 7.062C27.0726 7.36067 27.1823 7.67333 27.3316 8H26.7016ZM33.6996 8.07C33.163 8.07 32.7523 7.91133 32.4676 7.594C32.183 7.272 32.0406 6.803 32.0406 6.187V2.68H32.6566V6.25C32.6566 6.64667 32.7383 6.964 32.9016 7.202C33.065 7.44 33.331 7.559 33.6996 7.559C33.933 7.559 34.1243 7.50767 34.2736 7.405C34.4276 7.29767 34.542 7.15533 34.6166 6.978C34.6913 6.80067 34.7286 6.60233 34.7286 6.383C34.7286 6.19167 34.696 6.026 34.6306 5.886C34.57 5.746 34.493 5.61067 34.3996 5.48C34.2876 5.32133 34.1826 5.14867 34.0846 4.962C33.9913 4.77533 33.9446 4.53733 33.9446 4.248H34.5606C34.5606 4.458 34.6026 4.64233 34.6866 4.801C34.7706 4.955 34.8686 5.11133 34.9806 5.27C35.088 5.41933 35.179 5.585 35.2536 5.767C35.3283 5.94433 35.3656 6.15667 35.3656 6.404C35.3656 6.74 35.2956 7.034 35.1556 7.286C35.0156 7.53333 34.8196 7.727 34.5676 7.867C34.3156 8.00233 34.0263 8.07 33.6996 8.07ZM37.8049 8.07C37.3102 8.07 36.9089 7.909 36.6009 7.587C36.2929 7.26033 36.1389 6.775 36.1389 6.131C36.1389 5.51967 36.2789 5.053 36.5589 4.731C36.8436 4.409 37.2192 4.248 37.6859 4.248C37.9752 4.248 38.2109 4.30167 38.3929 4.409C38.5796 4.51633 38.7312 4.647 38.8479 4.801H38.8899C38.8806 4.74967 38.8712 4.67733 38.8619 4.584C38.8526 4.49067 38.8479 4.40433 38.8479 4.325V4.003C38.8479 3.74633 38.7732 3.53167 38.6239 3.359C38.4746 3.18633 38.2272 3.1 37.8819 3.1C37.6159 3.1 37.3989 3.15833 37.2309 3.275C37.0629 3.39167 36.9789 3.54567 36.9789 3.737C36.9789 3.765 36.9789 3.793 36.9789 3.821C36.9836 3.849 36.9882 3.877 36.9929 3.905H36.3979C36.3839 3.85833 36.3746 3.814 36.3699 3.772C36.3652 3.73 36.3629 3.69033 36.3629 3.653C36.3629 3.44767 36.4306 3.268 36.5659 3.114C36.7012 2.95533 36.8832 2.83167 37.1119 2.743C37.3452 2.65433 37.6019 2.61 37.8819 2.61C38.3766 2.61 38.7639 2.743 39.0439 3.009C39.3239 3.275 39.4639 3.625 39.4639 4.059V6.131C39.4639 6.775 39.3216 7.26033 39.0369 7.587C38.7522 7.909 38.3416 8.07 37.8049 8.07ZM37.8049 7.559C38.1876 7.559 38.4582 7.44 38.6169 7.202C38.7756 6.964 38.8549 6.64667 38.8549 6.25V6.138C38.8549 5.70867 38.7779 5.37267 38.6239 5.13C38.4699 4.88267 38.1852 4.759 37.7699 4.759C37.4386 4.759 37.1889 4.88733 37.0209 5.144C36.8576 5.40067 36.7759 5.73433 36.7759 6.145C36.7759 6.593 36.8599 6.94067 37.0279 7.188C37.1959 7.43533 37.4549 7.559 37.8049 7.559ZM41.9662 8.07C41.6675 8.07 41.3969 7.99533 41.1542 7.846C40.9162 7.692 40.7272 7.47033 40.5872 7.181C40.4472 6.887 40.3772 6.53233 40.3772 6.117C40.3772 5.49633 40.5219 5.018 40.8112 4.682C41.1052 4.346 41.4925 4.178 41.9732 4.178C42.2345 4.178 42.4795 4.24333 42.7082 4.374C42.9415 4.50467 43.1072 4.703 43.2052 4.969H43.2472C43.4059 4.44167 43.7955 4.178 44.4162 4.178C44.7055 4.178 44.9505 4.25733 45.1512 4.416C45.3565 4.57 45.5105 4.78467 45.6132 5.06C45.7205 5.33067 45.7742 5.64333 45.7742 5.998C45.7742 6.39933 45.7392 6.75167 45.6692 7.055C45.5992 7.35833 45.4919 7.67333 45.3472 8H44.7172C44.8619 7.67333 44.9692 7.36067 45.0392 7.062C45.1092 6.76333 45.1442 6.42967 45.1442 6.061C45.1442 5.60833 45.0742 5.26767 44.9342 5.039C44.7942 4.80567 44.6029 4.689 44.3602 4.689C44.1222 4.689 43.9309 4.77533 43.7862 4.948C43.6415 5.116 43.5692 5.37967 43.5692 5.739V6.117C43.5692 6.73767 43.4222 7.21833 43.1282 7.559C42.8389 7.89967 42.4515 8.07 41.9662 8.07ZM41.9802 7.559C42.3069 7.559 42.5472 7.43067 42.7012 7.174C42.8552 6.91267 42.9322 6.56033 42.9322 6.117C42.9322 5.67367 42.8552 5.326 42.7012 5.074C42.5472 4.822 42.3045 4.696 41.9732 4.696C41.6419 4.696 41.3992 4.822 41.2452 5.074C41.0912 5.326 41.0142 5.67367 41.0142 6.117C41.0142 6.56033 41.0912 6.91267 41.2452 7.174C41.4039 7.43067 41.6489 7.559 41.9802 7.559ZM48.0622 8.07C47.7729 8.07 47.5092 8.01633 47.2712 7.909C47.0379 7.80167 46.8512 7.643 46.7112 7.433C46.5759 7.223 46.5082 6.96167 46.5082 6.649C46.5082 6.54633 46.5175 6.44833 46.5362 6.355C46.5549 6.257 46.5759 6.18 46.5992 6.124H47.1872C47.1685 6.18933 47.1522 6.26633 47.1382 6.355C47.1289 6.44367 47.1242 6.54167 47.1242 6.649C47.1242 6.94767 47.2082 7.174 47.3762 7.328C47.5489 7.482 47.7775 7.559 48.0622 7.559C48.3469 7.559 48.5709 7.482 48.7342 7.328C48.8975 7.16933 48.9792 6.93133 48.9792 6.614C48.9792 6.37133 48.9255 6.17533 48.8182 6.026C48.7155 5.87667 48.5989 5.73433 48.4682 5.599C48.3562 5.487 48.2442 5.37033 48.1322 5.249C48.0202 5.123 47.9269 4.98067 47.8522 4.822C47.7822 4.65867 47.7472 4.46733 47.7472 4.248H48.3632C48.3632 4.45333 48.4169 4.63067 48.5242 4.78C48.6362 4.92933 48.7645 5.07633 48.9092 5.221C49.0259 5.33767 49.1379 5.46133 49.2452 5.592C49.3525 5.718 49.4412 5.865 49.5112 6.033C49.5812 6.19633 49.6162 6.39 49.6162 6.614C49.6162 6.90333 49.5485 7.15767 49.4132 7.377C49.2779 7.59633 49.0935 7.76667 48.8602 7.888C48.6269 8.00933 48.3609 8.07 48.0622 8.07Z" fill="#515151"/>
<path d="M55.7671 1L55.4536 1.57063L53.2117 5.64613L52.553 4.9875L52.3262 5.36494L50.3118 8.72234L50 9.24278H60.7539L60.5483 8.76325L59.5171 6.357L59.317 5.89053L58.6061 6.60141L56.0613 1.58094L55.7671 1ZM55.742 2.47194L56.787 4.53306L56.5209 4.76131L55.7372 4.08997L54.9538 4.76131L54.6341 4.48666L55.742 2.47194ZM55.7375 4.99506L56.5213 5.66641L57.1063 5.16453L58.2063 7.33531L58.4202 7.75916L59.0843 7.09503L59.7099 8.55528H51.2138C51.7053 7.73544 52.1976 6.91559 52.6895 6.09609L53.3729 6.77947L53.5936 6.37866C53.8277 5.95309 54.0621 5.52788 54.2958 5.10231L54.9538 5.66606L55.7375 4.99506Z" fill="#077232"/>
<path d="M56.7872 4.53329L55.7422 2.47217L54.6343 4.48689L54.954 4.76154L55.7374 4.0902L56.5211 4.76154L56.7872 4.53329Z" fill="white"/>
</svg>
