<svg width="61" height="60" fill="none" xmlns="http://www.w3.org/2000/svg"><path d="M24.849 35.155c-5.727-5.727-7.02-11.454-7.312-13.748a2.057 2.057 0 01.59-1.722l4.635-4.632a2.07 2.07 0 00.292-2.56L15.675 1.035a2.07 2.07 0 00-2.68-.755L1.149 5.86A2.058 2.058 0 00.01 7.914c.62 5.897 3.191 20.392 17.436 34.638 14.245 14.246 28.738 16.816 34.638 17.436a2.058 2.058 0 002.056-1.138l5.579-11.846a2.069 2.069 0 00-.75-2.676l-11.458-7.377a2.069 2.069 0 00-2.56.29l-4.633 4.634a2.057 2.057 0 01-1.722.591c-2.294-.292-8.021-1.585-13.748-7.312z" fill="#fff"/><path d="M47.59 32.07A2.069 2.069 0 0145.523 30c-.01-8.566-6.951-15.508-15.517-15.517a2.07 2.07 0 010-4.138C40.855 10.357 49.648 19.15 49.66 30a2.069 2.069 0 01-2.07 2.07z" fill="#fff"/><path d="M57.936 32.07a2.069 2.069 0 01-2.07-2.07c-.014-14.276-11.584-25.846-25.86-25.862a2.069 2.069 0 010-4.138c16.56.018 29.982 13.44 30 30a2.069 2.069 0 01-2.07 2.07z" fill="#fff"/></svg>