<svg width="12" height="20" fill="none" xmlns="http://www.w3.org/2000/svg"><path d="M7.35 19.96H4.141a.972.972 0 01-.972-.97v-7.223H1.297a.972.972 0 01-.972-.97V7.7c0-.535.436-.97.972-.97h1.872V5.18c0-1.537.484-2.845 1.398-3.782C5.487.46 6.77-.039 8.281-.039l2.447.004c.535 0 .97.436.97.97V3.81c0 .535-.435.97-.971.97l-1.648.001c-.503 0-.63.1-.658.131-.045.051-.099.196-.099.595v1.225h2.281a.973.973 0 01.981.97l-.001 3.096c0 .534-.436.97-.972.97H8.322v7.224c0 .535-.436.97-.972.97zm-3.006-1.172h2.803v-7.546a.65.65 0 01.65-.648h2.611l.001-2.69H7.796a.649.649 0 01-.649-.648v-1.75c0-.458.047-.979.393-1.37.42-.474 1.079-.529 1.539-.529h1.445v-2.47L8.28 1.133c-2.428 0-3.936 1.551-3.936 4.048v2.075a.65.65 0 01-.65.647H1.5v2.691h2.196a.65.65 0 01.649.648v7.546zm6.382-17.65z" fill="#fff"/></svg>