<svg width="23" height="23" fill="none" xmlns="http://www.w3.org/2000/svg"><g clip-path="url(#clip0)" fill="#fff"><path d="M15.04 10.466L9.96 7.687a.925.925 0 00-.924.016.925.925 0 00-.457.803v5.513c0 .331.17.63.454.8a.931.931 0 00.921.022l5.081-2.733a.933.933 0 00.006-1.64zm-5.115 2.858v-4.12l3.798 2.078-3.798 2.042z"/><path d="M22.83 6.897v-.01c-.02-.186-.214-1.833-1.014-2.67-.925-.985-1.974-1.105-2.479-1.162a6.162 6.162 0 01-.114-.014l-.04-.004c-3.041-.221-7.633-.251-7.679-.252h-.008c-.046 0-4.638.03-7.706.252l-.04.004-.108.013c-.5.058-1.537.177-2.465 1.198-.762.829-.983 2.44-1.005 2.621l-.003.024C.162 6.974 0 8.807 0 10.649v1.72c0 1.842.162 3.676.17 3.753v.012c.02.182.214 1.798 1.01 2.636.87.952 1.97 1.078 2.562 1.146.094.01.174.02.23.03l.052.007c1.756.167 7.26.25 7.494.253h.014c.046 0 4.638-.03 7.678-.252l.04-.004.13-.015c.495-.052 1.527-.162 2.443-1.168.762-.83.983-2.44 1.005-2.622l.003-.023c.007-.077.17-1.911.17-3.752v-1.721a48.02 48.02 0 00-.17-3.752zm-1.178 5.473c0 1.704-.149 3.459-.163 3.62-.057.444-.29 1.463-.66 1.867-.574.63-1.162.693-1.592.738-.052.006-.1.01-.143.016-2.941.213-7.36.245-7.563.247-.229-.004-5.653-.087-7.355-.245a5.895 5.895 0 00-.28-.036c-.504-.058-1.194-.137-1.724-.72l-.013-.013c-.365-.38-.59-1.334-.648-1.849a47.108 47.108 0 01-.163-3.625v-1.721a46.8 46.8 0 01.163-3.62c.068-.523.305-1.48.66-1.867.591-.65 1.214-.722 1.625-.77l.11-.012c2.984-.214 7.434-.246 7.594-.247.16.001 4.608.033 7.566.247l.118.014c.424.048 1.064.121 1.651.747l.005.006c.366.38.591 1.35.649 1.876.01.115.163 1.894.163 3.626v1.72z"/></g><defs><clipPath id="clip0"><path fill="#fff" d="M0 0h23v23H0z"/></clipPath></defs></svg>