<?xml version="1.0" standalone="no"?>
<!DOCTYPE svg PUBLIC "-//W3C//DTD SVG 20010904//EN"
 "http://www.w3.org/TR/2001/REC-SVG-20010904/DTD/svg10.dtd">
<svg version="1.0" xmlns="http://www.w3.org/2000/svg"
 width="812.000000pt" height="812.000000pt" viewBox="0 0 812.000000 812.000000"
 preserveAspectRatio="xMidYMid meet">
<metadata>
Created by potrace 1.11, written by Peter Selinger 2001-2013
</metadata>
<g transform="translate(0.000000,812.000000) scale(0.100000,-0.100000)"
fill="#000000" stroke="none">
<path d="M4140 6317 c0 -360 3 -656 6 -660 3 -3 20 3 37 13 32 18 188 76 230
84 12 3 33 7 47 10 315 70 605 -40 762 -289 74 -116 113 -231 132 -389 5 -41
12 -53 24 -42 17 17 6 416 -13 506 -3 14 -8 36 -10 50 -2 14 -13 63 -25 108
-127 499 -481 945 -923 1160 -77 38 -240 102 -259 102 -5 0 -8 -294 -8 -653z"/>
<path d="M4015 5956 c-253 -187 -358 -284 -488 -453 l-47 -62 -238 5 c-130 3
-298 6 -372 7 l-135 2 1 -25 c2 -28 13 -132 19 -170 4 -26 11 -85 20 -160 3
-25 8 -63 11 -85 2 -22 7 -58 10 -80 2 -22 7 -56 9 -75 3 -19 7 -55 10 -80 3
-25 8 -62 10 -82 10 -78 15 -116 25 -203 6 -49 13 -103 15 -120 2 -16 6 -52 9
-80 3 -27 8 -61 10 -75 3 -14 7 -52 11 -85 3 -33 8 -73 11 -90 2 -16 6 -51 9
-76 2 -25 6 -57 9 -70 3 -13 8 -51 11 -84 2 -33 7 -71 10 -85 2 -14 7 -50 9
-80 3 -30 10 -84 15 -120 5 -36 12 -90 16 -120 3 -30 8 -71 10 -90 3 -19 7
-53 10 -75 2 -22 7 -56 9 -75 7 -50 17 -130 21 -165 8 -81 17 -158 20 -173 2
-9 4 -19 4 -22 2 -10 420 -5 429 5 5 6 37 48 72 95 69 91 86 112 170 203 91
99 164 169 269 256 l65 53 -1 101 c-1 56 -2 106 -2 111 -1 7 -35 -15 -89 -59
-49 -39 -217 -204 -276 -270 -73 -83 -88 -102 -157 -195 -22 -30 -44 -58 -48
-63 -4 -4 -8 41 -8 100 -1 110 5 132 54 193 6 8 48 61 92 117 82 104 248 276
336 348 109 89 98 68 98 198 0 64 -2 120 -6 123 -4 4 -24 -8 -45 -27 -21 -19
-58 -50 -83 -71 -43 -35 -162 -154 -234 -233 -36 -40 -165 -208 -196 -254 -14
-22 -15 -15 -15 110 1 134 1 134 34 185 18 29 41 62 52 74 11 13 20 26 20 30
0 3 8 15 18 26 9 10 35 42 56 69 59 74 252 264 326 320 36 27 67 50 69 52 6 4
5 243 -2 249 -6 6 -21 -6 -141 -112 -149 -132 -308 -313 -399 -456 -10 -16
-21 -28 -26 -28 -5 0 -8 69 -7 153 l1 152 46 70 c126 193 336 413 513 539 17
11 19 27 19 139 0 70 -3 130 -6 133 -9 9 -155 -116 -243 -207 -110 -114 -145
-154 -214 -249 -21 -30 -43 -59 -48 -65 -4 -5 -18 -27 -31 -47 -12 -21 -26
-38 -30 -38 -5 0 -8 70 -8 156 l0 155 63 96 c85 126 136 186 269 318 106 105
161 153 211 184 12 8 26 24 31 35 11 28 9 375 -3 386 -5 4 -22 -1 -39 -14z"/>
<path d="M4605 5488 c-27 -4 -66 -9 -86 -12 -59 -9 -177 -54 -281 -108 l-96
-50 -1 -140 -2 -139 73 39 c80 43 186 87 233 97 46 9 49 10 60 16 28 14 242
19 307 7 54 -11 143 -46 171 -68 14 -11 29 -20 34 -20 18 -1 176 -170 158
-170 -3 0 2 -11 13 -25 27 -35 93 -207 107 -280 8 -45 17 -117 17 -143 0 -13
3 -21 6 -18 18 19 17 275 -2 401 -28 186 -108 359 -214 461 -121 116 -320 177
-497 152z"/>
<path d="M5360 5015 c0 -8 4 -15 8 -15 5 0 9 7 9 15 0 8 -4 15 -9 15 -4 0 -8
-7 -8 -15z"/>
<path d="M4628 4905 c-2 -2 -27 -6 -57 -10 -30 -4 -64 -10 -75 -15 -12 -4 -24
-8 -28 -9 -51 -10 -180 -65 -251 -106 l-77 -45 0 -125 c0 -69 2 -125 5 -125 3
0 44 20 92 45 190 99 415 142 549 106 21 -6 42 -10 47 -10 4 0 39 -17 78 -37
139 -73 239 -209 294 -398 19 -65 20 -71 31 -141 l8 -50 7 40 c8 47 4 260 -6
325 -20 137 -63 253 -125 340 -93 132 -238 208 -406 214 -46 2 -85 2 -86 1z"/>
<path d="M4570 4375 c-124 -23 -310 -100 -401 -167 l-29 -22 0 -123 0 -122 48
29 c384 236 703 231 872 -15 48 -70 98 -204 107 -292 7 -66 23 -69 24 -5 7
301 -48 484 -185 614 -21 21 -47 40 -57 43 -11 4 -19 10 -19 15 0 4 -10 10
-22 13 -13 3 -43 13 -68 22 -56 21 -184 25 -270 10z"/>
<path d="M4669 3896 c-2 -2 -29 -6 -59 -9 -30 -3 -68 -8 -84 -12 -87 -18 -248
-88 -343 -148 l-43 -27 0 -110 c0 -61 2 -110 4 -110 1 0 47 25 101 56 307 176
574 186 733 27 64 -64 122 -178 136 -267 4 -21 8 -41 10 -45 2 -3 7 -33 11
-66 3 -33 8 -62 11 -64 7 -7 7 240 -1 278 -2 10 -6 34 -9 52 -13 75 -18 94
-40 149 -69 170 -195 271 -356 286 -30 3 -57 7 -61 9 -3 3 -8 3 -10 1z"/>
<path d="M4520 3416 c-107 -26 -198 -63 -312 -131 l-68 -39 0 -113 0 -114 53
34 c123 79 277 150 351 161 21 4 42 9 47 12 5 3 47 6 92 6 125 0 219 -41 284
-126 46 -61 79 -132 98 -216 27 -114 38 -111 32 10 -3 58 -8 116 -11 130 -3
14 -8 35 -10 47 -3 12 -10 31 -16 42 -6 12 -8 21 -5 21 13 0 -60 126 -97 166
-79 86 -160 119 -293 121 -49 1 -115 -4 -145 -11z"/>
<path d="M4040 3173 c-80 -54 -345 -306 -369 -351 -9 -18 -4 -19 98 -18 l107
1 65 57 c35 31 77 67 93 81 29 23 29 25 30 135 1 62 1 112 1 112 0 0 -12 -8
-25 -17z"/>
<path d="M4579 3028 c-107 -13 -278 -80 -384 -148 -16 -11 -36 -23 -42 -26 -7
-3 -13 -16 -13 -28 0 -21 2 -21 188 -20 124 1 209 6 252 16 73 17 174 15 229
-3 34 -12 197 -21 214 -12 8 5 -48 90 -77 117 -98 88 -221 123 -367 104z"/>
<path d="M0 2070 l0 -405 235 0 c229 0 235 0 236 20 0 11 2 146 3 300 2 154 3
285 4 291 2 8 69 12 232 12 228 1 230 1 258 -23 16 -13 28 -32 27 -42 -3 -40
-18 -65 -43 -74 -15 -6 -108 -10 -207 -10 l-180 -1 45 -41 c25 -23 84 -76 130
-118 179 -159 205 -183 216 -193 6 -6 39 -36 73 -66 l62 -55 241 -1 240 -2
-23 22 c-13 12 -53 46 -89 76 -35 30 -70 60 -76 65 -6 6 -48 41 -93 79 -44 38
-81 70 -81 70 0 1 28 2 63 2 127 1 224 78 245 193 23 124 -30 236 -136 287
-35 17 -82 18 -709 19 l-673 0 0 -405z"/>
<path d="M1888 2464 c-100 -25 -198 -105 -244 -200 -14 -29 -26 -55 -25 -58 0
-3 -5 -23 -12 -43 -19 -56 -8 -202 16 -232 7 -8 11 -17 10 -20 -8 -28 77 -137
140 -179 99 -67 77 -65 670 -66 l537 -1 71 82 c38 45 70 86 69 90 0 4 -192 7
-427 8 -465 1 -457 0 -521 59 -62 57 -86 152 -60 237 16 55 85 123 137 136 23
6 185 11 377 12 185 0 344 3 353 6 9 3 35 31 59 63 23 31 53 71 67 88 l25 31
-598 0 c-436 0 -610 -4 -644 -13z"/>
<path d="M3256 2471 c-1 -3 -2 -186 -2 -406 l1 -399 237 -1 238 -1 2 310 3
311 214 2 c185 1 220 -1 255 -17 91 -39 130 -102 130 -207 1 -64 -3 -77 -29
-115 -28 -39 -93 -92 -119 -97 -6 -1 -72 -2 -146 -4 l-135 -2 -35 -39 c-19
-22 -42 -47 -50 -56 -24 -25 -60 -72 -60 -79 0 -13 693 -5 739 8 56 16 114 53
161 102 36 38 87 122 95 156 3 10 9 37 15 61 15 60 4 173 -21 235 -42 100
-108 169 -206 215 l-58 27 -613 1 c-337 1 -614 -2 -616 -5z"/>
<path d="M5168 2460 c-63 -19 -98 -41 -154 -93 -40 -37 -90 -116 -99 -154 -3
-10 -8 -34 -13 -53 -9 -38 -9 -125 2 -178 11 -57 54 -138 101 -190 40 -45 117
-100 149 -107 6 -1 20 -6 31 -11 11 -4 251 -8 533 -9 483 0 514 1 527 18 15
21 104 124 123 144 7 7 12 14 10 14 -2 1 -201 2 -443 3 -401 2 -443 4 -474 20
-129 68 -162 255 -63 359 59 63 52 62 455 64 l369 3 18 22 c10 13 30 37 45 53
57 65 85 104 78 108 -5 2 -263 4 -575 4 -497 0 -574 -3 -620 -17z"/>
<path d="M6804 2463 c-256 -58 -375 -345 -247 -597 35 -68 104 -133 182 -170
l66 -31 480 -3 c415 -2 488 0 542 14 34 9 67 22 74 30 6 8 17 14 24 14 21 0
108 93 137 146 43 80 58 145 54 237 -5 95 -16 132 -63 204 -55 83 -143 143
-233 158 -78 14 -955 12 -1016 -2z m756 -201 c48 -26 61 -39 90 -94 40 -75 19
-198 -44 -261 -55 -56 -77 -60 -264 -62 -187 -1 -242 8 -290 46 -44 34 -82
113 -82 168 1 93 44 164 123 205 47 24 54 25 235 23 175 -2 190 -4 232 -25z"/>
<path d="M2223 2062 c-39 -42 -70 -79 -68 -80 2 -2 141 -4 309 -4 l306 0 34
36 c18 21 47 57 65 81 l31 44 -302 0 -303 0 -72 -77z"/>
<path d="M48 1456 c0 -1 -2 -70 -3 -153 l-1 -153 46 0 46 0 0 117 0 117 47 1
c37 2 48 -2 52 -16 9 -28 -2 -39 -41 -39 -19 0 -34 -2 -34 -5 0 -14 94 -167
105 -172 7 -2 29 -3 48 -1 l35 3 -34 58 c-21 37 -29 57 -20 57 21 0 45 34 47
66 7 114 -4 122 -165 121 -69 -1 -127 -1 -128 -1z"/>
<path d="M450 1435 c-56 -60 -50 -226 9 -272 10 -8 54 -12 118 -13 l102 0 16
30 c8 16 15 31 15 35 0 3 -37 5 -82 5 -46 0 -90 5 -98 10 -19 12 -21 123 -2
142 8 8 40 14 80 14 84 2 79 1 85 22 2 9 8 24 11 33 6 13 -9 15 -114 15 -110
0 -122 -1 -140 -21z"/>
<path d="M800 1437 c-10 -16 -14 -129 -11 -264 1 -20 6 -23 46 -23 49 0 48 -1
46 73 l-1 47 60 0 60 0 0 -60 0 -60 44 0 c26 0 45 5 48 13 3 10 3 269 -1 288
-1 3 -63 5 -140 5 -125 0 -140 -2 -151 -19z m198 -80 c3 -26 2 -27 -42 -27
-25 0 -46 -4 -46 -8 0 -5 -6 -16 -13 -26 -12 -16 -14 -13 -14 30 -1 27 3 51 8
54 4 3 30 6 56 5 45 0 48 -2 51 -28z"/>
<path d="M1170 1303 l0 -154 131 3 131 3 13 32 14 32 -80 -2 c-120 -4 -115 -9
-114 126 l1 116 -48 -2 -48 -1 0 -153z"/>
<path d="M1720 1446 c-60 -47 -66 -213 -10 -274 19 -20 30 -22 123 -22 102 0
103 0 120 29 9 15 14 31 10 35 -3 3 -40 6 -82 6 -42 0 -83 5 -91 10 -19 12
-21 123 -2 142 7 7 40 13 75 14 34 1 67 3 74 3 9 1 37 58 30 62 -1 1 -54 3
-117 4 -77 2 -120 -1 -130 -9z"/>
<path d="M2090 1452 c-8 -2 -21 -11 -27 -20 -18 -22 -16 -113 3 -140 14 -20
23 -22 105 -22 88 0 89 0 89 -25 0 -17 -6 -25 -17 -25 -179 -5 -163 -2 -178
-37 l-14 -33 139 0 c159 0 163 2 163 90 0 82 -10 90 -112 90 -70 0 -90 3 -95
15 -13 34 3 42 79 41 l73 -2 16 34 c9 18 16 34 16 36 0 5 -223 3 -240 -2z"/>
<path d="M2431 1446 c-5 -6 -12 -23 -16 -38 -7 -26 -6 -27 39 -23 25 2 47 1
48 -3 0 -4 2 -54 4 -112 1 -58 3 -108 3 -112 1 -5 21 -8 46 -8 l44 0 3 118 3
117 28 0 c19 1 33 9 47 30 10 16 17 32 14 36 -7 12 -253 8 -263 -5z"/>
<path d="M2786 1440 c-10 -11 -14 -52 -16 -152 l-1 -138 44 0 c51 0 55 5 52
75 l-1 50 58 -3 58 -4 1 -41 c1 -23 1 -50 0 -59 -2 -15 6 -18 46 -18 l49 0 -1
153 0 152 -138 0 c-112 1 -140 -2 -151 -15z m194 -81 c0 -28 -2 -29 -44 -29
-36 0 -46 -4 -51 -20 -11 -33 -24 -22 -22 18 4 52 9 57 66 59 50 2 51 1 51
-28z"/>
<path d="M3169 1426 c-10 -16 -16 -32 -14 -35 3 -2 26 -5 52 -5 l48 -1 0 -115
0 -115 48 -3 47 -3 0 115 c0 85 3 116 13 118 6 0 17 2 22 3 6 2 15 3 22 4 14
1 45 59 35 65 -4 2 -63 4 -131 3 l-123 0 -19 -31z"/>
<path d="M3546 1445 c-45 -34 -65 -155 -36 -230 23 -61 33 -65 150 -65 105 0
107 0 118 25 7 14 12 30 12 35 0 6 -38 10 -84 10 -82 0 -85 1 -98 28 -12 25
-13 36 -9 90 3 38 18 46 93 48 40 1 76 3 79 3 3 1 10 16 16 34 l10 33 -118 0
c-72 0 -123 -4 -133 -11z"/>
<path d="M4019 1446 c-3 -38 -4 -273 -1 -283 3 -8 22 -13 48 -13 l43 0 3 117
3 117 39 1 c51 3 76 -22 76 -75 0 -62 -17 -90 -56 -90 -27 0 -34 -5 -43 -31
-6 -18 -11 -34 -11 -35 0 -2 31 -4 68 -4 58 0 72 3 89 23 59 63 48 251 -16
276 -36 14 -241 12 -242 -3z"/>
<path d="M4430 1442 c-52 -43 -59 -198 -12 -262 18 -24 25 -25 129 -28 l109
-3 17 36 17 35 -91 0 -90 0 -13 30 c-13 33 -14 46 -2 96 8 37 18 41 103 40 58
-1 63 1 72 24 4 14 10 30 12 35 3 6 -40 11 -113 12 -97 2 -120 -1 -138 -15z"/>
<path d="M4770 1446 c0 -7 7 -33 16 -57 8 -24 17 -53 20 -64 2 -11 15 -54 28
-95 l24 -75 59 -3 60 -3 21 68 c12 38 22 72 22 75 0 4 4 17 9 30 5 13 9 25 9
28 0 3 5 16 10 30 5 14 12 37 16 52 6 26 5 26 -39 25 l-45 -1 -20 -66 c-10
-36 -22 -78 -26 -93 -9 -39 -18 -26 -49 74 l-27 86 -44 1 c-30 1 -44 -3 -44
-12z"/>
<path d="M5158 1436 c-23 -25 -41 -81 -35 -112 2 -13 0 -24 -5 -24 -5 0 -7 -4
-4 -8 3 -5 8 -24 11 -43 3 -19 14 -47 24 -64 l17 -30 112 -3 111 -3 15 29 c8
16 12 32 9 36 -4 3 -40 6 -82 6 -42 0 -83 5 -91 10 -19 12 -23 112 -5 136 10
14 27 18 84 18 69 1 71 2 85 30 8 17 13 34 10 38 -3 4 -57 6 -121 5 -101 -1
-119 -4 -135 -21z"/>
<path d="M5499 1442 c-1 -18 0 -231 0 -269 1 -23 3 -23 129 -23 128 0 129 0
140 25 7 14 12 30 12 35 0 6 -34 10 -77 9 -43 0 -86 0 -95 0 -14 1 -16 13 -16
79 0 42 -1 96 -1 119 l-1 41 -45 0 c-35 0 -45 -3 -46 -16z"/>
<path d="M5906 1439 c-59 -47 -54 -245 7 -278 14 -7 58 -11 122 -9 l99 3 20
34 c43 74 24 241 -29 261 -13 5 -62 9 -109 8 -69 0 -91 -4 -110 -19z m171 -75
c16 -22 17 -84 1 -119 -10 -22 -17 -25 -56 -23 -40 1 -46 5 -57 32 -16 37 -13
83 6 114 12 19 21 22 53 19 23 -3 45 -13 53 -23z"/>
<path d="M6259 1438 c-1 -13 -2 -83 -3 -156 l-1 -133 45 3 45 3 3 116 3 116
48 1 c52 2 76 -14 65 -42 -4 -12 -16 -16 -40 -14 -37 2 -48 -5 -59 -39 -6 -22
-4 -23 67 -23 45 0 81 5 92 13 37 27 36 135 -2 165 -11 8 -56 12 -139 12 -121
0 -123 0 -124 -22z"/>
<path d="M6630 1304 l0 -154 44 0 c26 0 45 5 48 13 2 6 3 47 2 90 -1 42 0 77
1 77 1 0 14 -24 28 -54 14 -30 30 -57 36 -60 5 -3 22 20 38 51 l28 58 3 -87 3
-88 44 0 44 0 3 48 c2 26 2 96 0 155 l-3 108 -42 -3 c-39 -3 -44 -6 -67 -53
-50 -98 -44 -96 -80 -24 -18 35 -37 67 -43 71 -6 4 -28 6 -49 6 l-38 0 0 -154z"/>
<path d="M7066 1446 c-58 -43 -60 -223 -4 -276 19 -17 36 -20 125 -20 l104 0
14 33 13 32 -81 3 c-98 3 -117 17 -117 88 0 58 27 86 78 84 78 -4 100 0 105
18 2 9 8 24 11 33 6 15 -6 16 -113 17 -74 0 -126 -5 -135 -12z"/>
<path d="M7404 1449 c-4 -7 -8 -215 -5 -281 1 -14 10 -18 46 -18 l44 0 3 93 3
92 59 -92 59 -93 43 0 c24 0 45 3 45 8 4 23 3 292 -1 293 -3 1 -24 3 -47 4
l-42 2 -3 -90 -3 -89 -59 90 c-58 88 -61 91 -98 90 -21 0 -41 -4 -44 -9z"/>
<path d="M7805 1434 c-25 -38 -20 -54 18 -49 62 8 64 5 64 -108 1 -56 2 -108
2 -114 1 -9 17 -13 46 -13 51 0 46 -16 47 151 l0 86 29 -2 c31 -3 42 7 58 46
l9 26 -129 0 c-124 0 -129 -1 -144 -23z"/>
<path d="M531 1300 l-10 -30 59 0 c48 0 61 4 70 19 18 35 12 41 -49 41 -57 0
-59 -1 -70 -30z"/>
<path d="M1795 1300 l-16 -30 64 0 c60 0 63 1 74 30 l11 30 -59 0 c-55 0 -59
-2 -74 -30z"/>
<path d="M3622 1310 c-21 -34 -14 -40 48 -40 56 0 61 2 70 26 6 14 10 27 10
30 0 2 -26 4 -58 4 -46 0 -60 -4 -70 -20z"/>
<path d="M4512 1305 c-7 -14 -12 -28 -12 -30 0 -3 27 -5 60 -5 56 0 61 2 70
26 6 14 10 27 10 30 0 2 -26 4 -58 4 -53 0 -60 -2 -70 -25z"/>
<path d="M5246 1305 c-9 -13 -16 -27 -16 -30 0 -3 28 -5 63 -5 60 0 63 1 74
30 l11 30 -58 0 c-50 0 -60 -3 -74 -25z"/>
<path d="M7145 1300 l-16 -30 65 0 c62 0 64 1 75 30 l10 30 -59 0 c-56 0 -60
-2 -75 -30z"/>
</g>
</svg>
