<svg width="35" height="35" fill="none" xmlns="http://www.w3.org/2000/svg"><g clip-path="url(#clip0)" fill="#BA0C2F"><path d="M34.417 35.833V24.4l-2.509-1.225-1.225-2.508h-4.55l-.583-2.917h-3.383v-5.775l.641-2.625-4.725-4.142v-.875h1.167V3.167h-1.167V2h-1.166v1.167H15.75v1.166h1.167v.875L12.192 9.35l.641 2.625v5.775H9.45l-.583 2.917h-4.55l-1.225 2.508L.583 24.4v11.433H0V37h35v-1.167h-.583zm-1.167 0h-1.167V24.517l1.167.583v10.733zm-14 0h-3.5v-1.166c0-.992.758-1.75 1.75-1.75s1.75.758 1.75 1.75v1.166zM17.5 31.75a2.888 2.888 0 00-2.917 2.917v1.166h-1.75v-5.016L17.5 26.15l4.667 4.667v5.016h-1.75v-1.166A2.888 2.888 0 0017.5 31.75zm3.908-21.583l-.291 1.166h-7.234l-.291-1.166h7.816zm-7-1.167L17.5 6.258 20.592 9h-6.184zM14 12.5h7v5.6l-3.5-3.5-3.5 3.5v-5.6zm3.5 3.733l5.133 5.134-.466.933v1.633L17.5 19.267l-4.667 4.666V22.3l-.466-.933 5.133-5.134zm4.667 10.734v2.216L17.5 24.517l-4.667 4.666v-2.216l-.466-.934L17.5 20.9l5.133 5.133-.466.934zm-10.5-1.867l-.7.7.7 1.4v2.975L7 32.508v3.325H4.083V24.167h7.584v.933zm-3.5 8.167l3.5-1.75v4.316h-3.5v-2.566zm15.166-1.75l3.5 1.75v2.566h-3.5v-4.316zm0-1.284v-2.975l.7-1.4-.7-.758v-.933h7.584v11.666H28v-3.266l-4.667-2.334zM30.567 23h-7.234v-.467l.35-.7h6.3L30.567 23zm-5.95-4.083l.35 1.75h-1.4l-1.4-1.4v-.35h2.45zm-14.234 0h2.45v.35l-1.4 1.4h-1.4l.35-1.75zm.934 2.916l.35.7V23H4.433l.584-1.167h6.3zM1.75 25.1l1.167-.583v11.316H1.75V25.1z"/><path d="M16.916 26.25h1.167v2.333h-1.166V26.25zM28.584 28h1.166v1.75h-1.166V28zM5.25 28h1.167v1.75H5.25V28z"/></g><defs><clipPath id="clip0"><path fill="#fff" d="M0 0h35v35H0z"/></clipPath></defs></svg>