<svg width="35" height="35" fill="none" xmlns="http://www.w3.org/2000/svg"><path d="M34.24 0H.76A.762.762 0 000 .76v33.48c0 .419.341.76.76.76h6.088a.76.76 0 00.76-.76V22.825H34.24c.42 0 .761-.341.761-.76V.76A.762.762 0 0034.24 0zM6.086 33.478H1.522V1.522h4.565v31.956zM7.609 1.522h9.13v6.087H7.61V1.522zm9.13 19.782H7.61v-6.087h9.13v6.087zm16.74 0h-9.131v-6.087h9.13v6.087zm0-7.608h-9.892a.76.76 0 00-.76.76v6.848H18.26v-6.847a.761.761 0 00-.761-.761h-9.89V9.13H17.5c.42 0 .76-.34.76-.76V1.522h4.566V8.37c0 .42.341.76.761.76h9.891v4.566zm0-6.087h-9.131V1.522h9.13v6.087z" fill="#BA0C2F"/></svg>