<svg width="35" height="35" fill="none" xmlns="http://www.w3.org/2000/svg"><path d="M34.24 1.522a.76.76 0 100-1.522H.76a.761.761 0 000 1.522 2.286 2.286 0 012.283 2.282v29.674H.761A.761.761 0 00.76 35h33.478a.76.76 0 100-1.522h-2.282V3.804a2.286 2.286 0 012.282-2.282zM22.825 7.609h3.044v7.608h-3.044V7.61zm-.741-6.087a3.766 3.766 0 00-.78 2.282v2.283h-7.61V3.804c0-.86-.297-1.645-.78-2.282h9.17zm-.78 6.087v7.608H18.26V7.61h3.043zm-4.566 0v7.608h-3.043V7.61h3.043zM3.803 1.522H9.89a2.286 2.286 0 012.283 2.282v2.283H4.565V3.804a3.79 3.79 0 00-.762-2.282zm8.37 6.087v7.608H9.13V7.61h3.044zm-4.564 0v7.608H4.565V7.61H7.61zm4.565 25.87H4.565v-4.566h7.609v4.565zm9.13 0h-7.608V26.63a3.809 3.809 0 013.804-3.804 3.809 3.809 0 013.804 3.804v6.848zm9.13 0h-7.608v-4.566h7.609v4.565zm0-6.088h-7.608v-.76a5.333 5.333 0 00-5.326-5.327 5.332 5.332 0 00-5.326 5.326v.761H4.565V16.74h25.87v10.652zm0-12.174h-3.043V7.61h3.044v7.608zm0-11.413v2.283h-7.608V3.804a2.286 2.286 0 012.283-2.282h6.088a3.784 3.784 0 00-.762 2.282z" fill="#BA0C2F"/></svg>