<svg width="30" height="29" fill="none" xmlns="http://www.w3.org/2000/svg"><path d="M23.08 12.475c-.745-.34-1.59.078-1.884.932l-.843 2.25h-4.5a.331.331 0 00-.25.12l-.708.82a.443.443 0 00-.104.29c0 .105.035.21.104.29.07.08.16.12.25.12a.33.33 0 00.251-.12l.604-.7h.208v1.64h-1.417v-4.92h2.48a.29.29 0 00.058-.005l4.25-.82a.378.378 0 00.284-.3.448.448 0 00-.121-.424L14.648 5.08a.333.333 0 00-.154-.076.3.3 0 00-.114 0 .333.333 0 00-.154.076l-7.093 6.567a.448.448 0 00-.121.423.378.378 0 00.284.301l4.25.82c.02.004.039 0 .058 0v.006h2.48v4.918h-5.65c-.791 0-1.435.736-1.435 1.64 0 .65.335 1.207.816 1.473l-.745 1.15a.454.454 0 00.07.574.323.323 0 00.213.082.34.34 0 00.284-.164l.956-1.476h5.49v1.23c0 .227.158.41.353.41.196 0 .354-.183.354-.41v-1.23h5.49l.956 1.476a.34.34 0 00.283.164.323.323 0 00.213-.082.454.454 0 00.071-.574l-.698-1.077c.406-.16.74-.519.885-.992l1.926-5.745c.259-.842-.107-1.759-.838-2.09zm-6.163 4.002h3.129l-.615 1.64h-2.514v-1.64zm3.763-4.762l-3.197.617-2.131-5.55 5.328 4.933zm-9.288.617l-3.197-.617 5.328-4.934-2.131 5.55zm.757.046l2.289-5.959 2.288 5.959h-4.577zm11.105 1.901l-1.926 5.745c-.101.33-.377.552-.686.552H8.435c-.4 0-.727-.368-.727-.82 0-.452.326-.82.727-.82h11.228c.142 0 .27-.097.326-.246l1.86-4.962a.084.084 0 01.005-.014c.148-.437.58-.65.972-.474.368.167.554.628.428 1.04z" fill="#fff"/><path d="M29.5 14.394c0 7.654-6.472 13.894-14.5 13.894-8.028 0-14.5-6.24-14.5-13.894S6.972.5 15 .5c8.028 0 14.5 6.24 14.5 13.894z" stroke="#fff"/></svg>