<svg width="90" height="85" fill="none" xmlns="http://www.w3.org/2000/svg"><g filter="url(#filter0_d)"><path d="M27.564 33.41c2.884-.87 5.09-2.524 6.618-4.96 1.697-2.263 2.545-5.047 2.545-8.354 0-4.176-1.272-7.57-3.818-10.18C30.364 7.306 27.224 6 23.491 6c-4.073 0-7.382 1.305-9.927 3.916C11.188 12.7 10 16.094 10 20.096c0 2.089.17 4.09.51 6.004.508 2.089 1.441 5.047 2.8 8.876L24 71h12.218l-8.654-37.59zm43.272 0c2.885-.87 5.091-2.524 6.618-4.96C79.152 26.187 80 23.403 80 20.096c0-4.176-1.273-7.57-3.818-10.18C73.636 7.306 70.497 6 66.764 6c-4.073 0-7.382 1.305-9.928 3.916-2.375 2.784-3.563 6.178-3.563 10.18 0 2.089.17 4.09.509 6.004.509 2.089 1.442 5.047 2.8 8.876L67.272 71h12.219l-8.655-37.59z" fill="#BA0C2F"/></g><defs><filter id="filter0_d" x="0" y="0" width="90" height="85" filterUnits="userSpaceOnUse" color-interpolation-filters="sRGB"><feFlood flood-opacity="0" result="BackgroundImageFix"/><feColorMatrix in="SourceAlpha" values="0 0 0 0 0 0 0 0 0 0 0 0 0 0 0 0 0 0 127 0"/><feOffset dy="4"/><feGaussianBlur stdDeviation="5"/><feColorMatrix values="0 0 0 0 0 0 0 0 0 0 0 0 0 0 0 0 0 0 0.25 0"/><feBlend in2="BackgroundImageFix" result="effect1_dropShadow"/><feBlend in="SourceGraphic" in2="effect1_dropShadow" result="shape"/></filter></defs></svg>