<svg width="40" height="40" fill="none" xmlns="http://www.w3.org/2000/svg"><path d="M31.719 37.656h-3.516v-5.86c0-.646-.525-1.171-1.172-1.171H25.86V15.312a1.17 1.17 0 00-1.172-1.171h-.765l-1.008-6.052a1.174 1.174 0 00-1.156-.98h-.586V1.172a1.172 1.172 0 00-2.344 0v5.937h-.586c-.554 0-1.06.404-1.156.98l-1.008 6.052h-.765a1.17 1.17 0 00-1.172 1.171v15.313H12.97c-.647 0-1.172.525-1.172 1.172v5.86H8.28a1.172 1.172 0 000 2.343h23.44a1.172 1.172 0 000-2.344zM21.172 32.97v4.687h-2.344V32.97h2.344zm2.344 0h2.343v4.687h-2.343V32.97zm-2.344-2.344v-9.453h2.344v9.453h-2.344zm-4.688-14.14h2.344v2.343h-2.344v-2.344zm4.688 0h2.344v2.343h-2.344v-2.344zm-1.937-7.032h1.53l.781 4.688h-3.092l.78-4.688zm-2.75 11.719h2.343v9.453h-2.344v-9.453zM14.14 32.969h2.343v4.687H14.14V32.97z" fill="#BA0C2F"/></svg>