<svg width="40" height="40" fill="none" xmlns="http://www.w3.org/2000/svg"><path d="M38.086 38.79V28.124h-1.172v8.79h-1.328v-2.5h-6.172v2.5h-1.328v-6.33h1.875v-3.67h-.469l-1.406-.001V6.836h4.15l4.678 5.274v14.765h1.172v-15.21l-5.322-6h-.928V3.75h-1.172v1.914h-2.578V.04H11.914V2.5h1.172V1.212h13.828v25.703H13.086V3.75h-1.172v1.914H9.336V3.75H8.164v1.914h-.928l-5.322 6.002v27.123H0v1.172h40v-1.172h-1.914zm-7.5-3.204h3.828v1.328h-3.828v-1.328zm-1.797-7.5v1.328H11.211v-1.328h17.578zM11.914 38.789H3.086v-.703h8.828v.703zm-6.328-1.875v-1.328h3.828v1.328H5.586zm6.328 0h-1.328v-2.5H4.414v2.5H3.086V12.11l4.678-5.274h4.15v20.078H10.04v3.672h1.875v6.328zm5 1.875h-3.828v-.703h3.828v.703zm2.5 0h-1.328v-5.703h1.328v5.703zm2.5-1.875v1.875h-1.328v-5.703h1.328v3.828zm5 1.875h-3.828v-.703h3.828v.703zm0-1.875h-3.828v-5h-6.172v5h-3.828v-6.328h13.828v6.328zm10 1.875h-8.828v-.703h8.828v.703z" fill="#BA0C2F"/><path d="M18.086 2.5h-1.172v1.25h1.172V2.5zm2.5 0h-1.172v1.25h1.172V2.5zm2.5 0h-1.172v1.25h1.172V2.5zm2.5 0h-1.172v1.25h1.172V2.5zm-7.5 3.125h-1.172v1.25h1.172v-1.25zm2.5 0h-1.172v1.25h1.172v-1.25zm2.5 0h-1.172v1.25h1.172v-1.25zm2.5 0h-1.172v1.25h1.172v-1.25zm-7.5 3.125h-1.172V10h1.172V8.75zm2.5 0h-1.172V10h1.172V8.75zm2.5 0h-1.172V10h1.172V8.75zm2.5 0h-1.172V10h1.172V8.75zm-7.5 3.125h-1.172v1.25h1.172v-1.25zm2.5 0h-1.172v1.25h1.172v-1.25zm2.5 0h-1.172v1.25h1.172v-1.25zm2.5 0h-1.172v1.25h1.172v-1.25zM18.086 15h-1.172v1.25h1.172V15zm2.5 0h-1.172v1.25h1.172V15zm2.5 0h-1.172v1.25h1.172V15zm2.5 0h-1.172v1.25h1.172V15zm-10-12.5h-1.172v1.25h1.172V2.5zm0 3.125h-1.172v1.25h1.172v-1.25zm0 3.125h-1.172V10h1.172V8.75zm0 3.125h-1.172v1.25h1.172v-1.25zm0 3.125h-1.172v1.25h1.172V15zm0 3.125h-1.172v1.25h1.172v-1.25zm2.5 0h-1.172v1.25h1.172v-1.25zm2.5 0h-1.172v1.25h1.172v-1.25zm2.5 0h-1.172v1.25h1.172v-1.25zm2.5 0h-1.172v1.25h1.172v-1.25zm-10 3.125h-1.172v1.25h1.172v-1.25zm2.5 0h-1.172v1.25h1.172v-1.25zm2.5 0h-1.172v1.25h1.172v-1.25zm2.5 0h-1.172v1.25h1.172v-1.25zm2.5 0h-1.172v1.25h1.172v-1.25zm-10 3.125h-1.172v1.25h1.172v-1.25zm2.5 0h-1.172v1.25h1.172v-1.25zm2.5 0h-1.172v1.25h1.172v-1.25zm2.5 0h-1.172v1.25h1.172v-1.25zm2.5 0h-1.172v1.25h1.172v-1.25zm-10 7.5h-1.172v3.75h1.172v-3.75zm10 0h-1.172v3.75h1.172v-3.75zm-20-18.75H4.414v1.25h1.172v-1.25zm0 3.125H4.414v1.25h1.172v-1.25zm0 3.125H4.414v1.25h1.172v-1.25zm0 3.125H4.414v1.25h1.172V22.5zm0 3.125H4.414v1.25h1.172v-1.25zm0 3.125H4.414V30h1.172v-1.25zm0 3.125H4.414v1.25h1.172v-1.25zM8.086 10H6.914v1.25h1.172V10zm0 3.125H6.914v1.25h1.172v-1.25zm0 3.125H6.914v1.25h1.172v-1.25zm0 3.125H6.914v1.25h1.172v-1.25zm0 3.125H6.914v1.25h1.172V22.5zm0 3.125H6.914v1.25h1.172v-1.25zm0 3.125H6.914V30h1.172v-1.25zm0 3.125H6.914v1.25h1.172v-1.25zm2.5 0H9.414v1.25h1.172v-1.25zm0-23.75H9.414v1.25h1.172v-1.25zm0 3.125H9.414v1.25h1.172v-1.25zm0 3.125H9.414v1.25h1.172v-1.25zm0 3.125H9.414v1.25h1.172V17.5zm0 3.125H9.414v1.25h1.172v-1.25zm0 3.125H9.414V25h1.172v-1.25zm25-10.625h-1.172v1.25h1.172v-1.25zm0 3.125h-1.172v1.25h1.172v-1.25zm0 3.125h-1.172v1.25h1.172v-1.25zm0 3.125h-1.172v1.25h1.172V22.5zm0 3.125h-1.172v1.25h1.172v-1.25zm0 3.125h-1.172V30h1.172v-1.25zm0 3.125h-1.172v1.25h1.172v-1.25zM33.086 10h-1.172v1.25h1.172V10zm0 3.125h-1.172v1.25h1.172v-1.25zm0 3.125h-1.172v1.25h1.172v-1.25zm0 3.125h-1.172v1.25h1.172v-1.25zm0 3.125h-1.172v1.25h1.172V22.5zm0 3.125h-1.172v1.25h1.172v-1.25zm0 3.125h-1.172V30h1.172v-1.25zm0 3.125h-1.172v1.25h1.172v-1.25zm-2.5 0h-1.172v1.25h1.172v-1.25zm0-23.75h-1.172v1.25h1.172v-1.25zm0 3.125h-1.172v1.25h1.172v-1.25zm0 3.125h-1.172v1.25h1.172v-1.25zm0 3.125h-1.172v1.25h1.172V17.5zm0 3.125h-1.172v1.25h1.172v-1.25zm0 3.125h-1.172V25h1.172v-1.25z" fill="#BA0C2F"/></svg>