<svg width="40" height="40" fill="none" xmlns="http://www.w3.org/2000/svg"><path d="M38.71 10.323V7.742H28.387V2.58h-1.29V0H12.903v2.58h-1.29v5.162H1.29v2.58H0v26.452A3.23 3.23 0 003.226 40h33.548A3.23 3.23 0 0040 36.774V10.323h-1.29zm0 18.064h-1.29v1.29h1.29v4.513a3.118 3.118 0 00-2.355-.61 4.492 4.492 0 00-4.097-2.612 4.492 4.492 0 00-4.097 2.611 3.183 3.183 0 00-1.064.035v-3.937h1.29v-1.29h-1.29v-1.29H38.71v1.29zM25.178 38.71h-1.952v-7.742h1.29v-1.29h-9.032v1.29h1.29v7.742h-1.952a3.19 3.19 0 00.662-1.936 3.25 3.25 0 00-1.29-2.584V9.032h11.612V34.21a3.213 3.213 0 00-1.29 2.564c0 .73.253 1.395.662 1.936zm-3.242-7.742v7.742h-3.872v-7.742h3.872zM1.29 28.388v-1.291h11.613v1.29h-1.29v1.29h1.29v3.928a3.136 3.136 0 00-1.064-.026 4.492 4.492 0 00-4.097-2.611 4.492 4.492 0 00-4.097 2.611 3.11 3.11 0 00-2.355.61v-4.512h1.29v-1.29H1.29zm0-9.033v-1.29h11.613v1.29h-1.29v1.29h1.29v5.161h-1.29v-3.87H7.742v3.87h-1.29v-3.87H2.58v3.87H1.29v-5.16h1.29v-1.291H1.29zm3.871-2.58h-1.29v-2.581h1.29v2.58zm5.162 0h-1.29v-2.581h1.29v2.58zm0 9.031h-1.29v-2.58h1.29v2.58zm-5.162 0h-1.29v-2.58h1.29v2.58zM18.064 7.742h-2.58v-1.29h2.58v1.29zm20.646 3.87v5.162h-1.29v-3.87h-3.872v3.87h-1.29v-3.87h-3.87v3.87h-1.291v-5.161H38.71zm-2.581 5.162h-1.29v-2.58h1.29v2.58zm-5.161 0h-1.29v-2.58h1.29v2.58zm-6.452-9.032h-2.58v-1.29h2.58v1.29zm6.452 18.064h-1.29v-2.58h1.29v2.58zm5.161 0h-1.29v-2.58h1.29v2.58zm2.58-6.451h-1.29v1.29h1.29v5.161h-1.29v-3.87h-3.87v3.87h-1.29v-3.87h-3.872v3.87h-1.29v-5.16h1.29v-1.291h-1.29v-1.29H38.71v1.29zM28.388 9.032h9.032v1.29H27.097v-1.29h1.29zM14.193 1.29h11.613v1.29H14.193V1.29zm-1.29 2.581h14.194v3.87h-1.29v-2.58h-5.162v2.58h-1.29v-2.58h-5.162v2.58h-1.29v-3.87zM2.581 9.032h10.322v1.29H2.581v-1.29zm10.322 2.58v5.162h-1.29v-3.87H7.742v3.87h-1.29v-3.87H2.58v3.87H1.29v-5.161h11.612zM3.226 38.71a1.938 1.938 0 01-1.936-1.936c0-1.067.869-1.935 1.936-1.935.19 0 .39.036.612.11l.626.212.196-.631a3.21 3.21 0 013.082-2.272 3.21 3.21 0 013.082 2.271l.195.632.627-.21c.222-.076.422-.112.612-.112 1.067 0 1.936.868 1.936 1.935a1.938 1.938 0 01-1.936 1.936H3.226zm33.548 0h-9.032a1.938 1.938 0 01-1.936-1.936c0-1.067.869-1.935 1.936-1.935.19 0 .39.036.612.11l.627.212.195-.631a3.21 3.21 0 013.082-2.272 3.21 3.21 0 013.082 2.271l.195.632.627-.21c.223-.076.422-.112.612-.112 1.067 0 1.936.868 1.936 1.935a1.938 1.938 0 01-1.936 1.936z" fill="#BA0C2F"/><path d="M29.677 28.387h6.452v1.29h-6.452v-1.29zm-25.806 0h6.452v1.29H3.87v-1.29zm25.806-9.032h6.452v1.29h-6.452v-1.29zm-25.806 0h6.452v1.29H3.87v-1.29zm11.613 7.742h9.032V10.322h-9.032v16.775zm1.29-3.871h2.58v2.58h-2.58v-2.58zm3.871-5.162v-2.58h2.58v2.58h-2.58zm2.58 1.29v2.581h-2.58v-2.58h2.58zm-3.87-1.29h-2.58v-2.58h2.58v2.58zm0 1.29v2.581h-2.58v-2.58h2.58zm1.29 6.452v-2.58h2.58v2.58h-2.58zm2.58-11.613h-2.58v-2.58h2.58v2.58zm-3.87-2.58v2.58h-2.58v-2.58h2.58z" fill="#BA0C2F"/></svg>