<svg width="40" height="40" fill="none" xmlns="http://www.w3.org/2000/svg"><g clip-path="url(#clip0)" fill="#BA0C2F"><path d="M37.903 13.781c-.91 0-1.655.604-2.047 1.657l-2.629 5.155c-.581-.382-1.281-.432-2.009-.065-4.71 2.378-3.869 1.76-5.929 4.107-.492.565-1.158 1.619-1.402 2.424l-.615 2.002c-.356-.04-.374-.045-.453-.045-.546 0-1.005.41-1.067.953.026-.229-.807 7.068-.808 7.094-.027.429.093.879.402 1.201.536.559 1.106.454 3.003.454a.586.586 0 000-1.171c-1.893 0-2.04.028-2.158-.094-.136-.143-.1-.117.404-4.535l7.421.848-.377 3.308c-.043.379-.323.46-.494.473h-2.063a.586.586 0 000 1.171h2.101c.502-.017 1.487-.353 1.62-1.511l.699-6.125A1.075 1.075 0 0031 30.048c.659-.738.372-.525 3.897-2.305a.65.65 0 00.025-.013c.483-.274 1.646-1.074 2.047-2.611.013-.036 2.928-8.409 2.938-8.446.39-1.526-.475-2.892-2.004-2.892zm-7.754 18.82l-7.422-.846.178-1.557 7.421.847-.177 1.557zm8.628-16.24c-.015.044-2.929 8.41-2.94 8.455-.283 1.098-1.12 1.682-1.48 1.888l-2.75 1.388c-.684.345-1.079.73-1.217.88l-.006.007-.03.033-.006.008-.688.77-5.204-.594c.514-1.672.646-2.506 1.718-3.794 1.106-1.26 1.445-1.745 2.207-2.13C32 21.445 31.917 21.45 32.2 21.45c.419 0 .668.405.675.416l.003.005.005.01c.068.113.226.47.143.756-.018.063-.073.254-.424.431l-2.835 1.43a.586.586 0 10.528 1.047l2.834-1.43c.673-.34.93-.821 1.026-1.165.152-.539.013-1.051-.117-1.368l2.877-5.642c.077-.151.355-1.2 1.28-.943.775.254.65 1.081.582 1.365zm-19.98 20.682l-.553-4.84-.255-2.234a1.074 1.074 0 00-1.19-.946l-.33.038c-.582-1.893-.739-2.907-2.01-4.417a.25.25 0 00-.008-.01l-1.227-1.398a5.12 5.12 0 00-1.336-1.01c-3.68-1.857-3.719-1.948-4.347-1.948a1.85 1.85 0 00-1.002.3l-2.39-5.13c-.39-1.06-1.137-1.667-2.05-1.667-1.427 0-2.419 1.265-2.004 2.893l.01.032 2.666 8.407c.4 1.541 1.565 2.343 2.049 2.617a.473.473 0 00.024.013c3.433 1.733 3.225 1.552 3.897 2.305-.341.213-.55.608-.501 1.034l.699 6.125c.124 1.091 1.05 1.511 1.639 1.511h6.608c1.11 0 1.692-.774 1.61-1.675zM5.385 26.704c-.361-.207-1.202-.793-1.483-1.897a.615.615 0 00-.01-.034L1.227 16.37c-.068-.277-.202-1.117.58-1.373.634-.176 1.019.244 1.245.861.024.066-.172-.36 2.656 5.712-.426 1.021-.137 2.019.904 2.544 3.07 1.55 2.906 1.494 3.097 1.494.612 0 .816-.83.265-1.11l-2.835-1.43c-.35-.177-.406-.368-.424-.431-.145-.497.29-1.187.826-1.187.138 0 .29.042.455.125l3.365 1.698c.535.27.947.699.989.743 2.242 2.555 2.04 2.27 2.936 5.181l-5.204.594c-1.355-1.517-.806-1.122-4.697-3.086zm4.03 4.341l7.422-.847.177 1.557-7.422.847-.177-1.557zm7.771 6.502h-6.59c-.17-.014-.45-.094-.493-.473l-.378-3.308 7.422-.848.482 4.222c.006.303-.09.407-.443.407zM36.26 11.132h-3.783a.586.586 0 000 1.171h3.783a.586.586 0 000-1.171zm-.676-5.605a.586.586 0 00-.791-.244l-3.344 1.766a.586.586 0 00.546 1.036l3.345-1.766a.586.586 0 00.244-.792zM7.395 11.132H3.613a.586.586 0 000 1.171h3.782a.586.586 0 000-1.171zm1.029-4.083L5.079 5.283a.586.586 0 10-.547 1.036c3.63 1.916 3.417 1.834 3.618 1.834.606 0 .813-.82.274-1.104zm21.42 5.455a.585.585 0 00-.66.5 9.148 9.148 0 01-.441 1.803 32.118 32.118 0 00-2.624-.566c.12-.816.182-1.662.182-2.524 0-.862-.062-1.708-.182-2.524a32.068 32.068 0 002.624-.566c.205.577.354 1.18.44 1.804a.586.586 0 001.16-.161 10.374 10.374 0 00-.695-2.553l-.006-.018-.023-.052a10.703 10.703 0 00-.12-.275l-.054-.113a10.15 10.15 0 00-.21-.418l-.052-.1a10.42 10.42 0 00-9.182-5.467c-7.487 0-12.493 7.634-9.64 14.461a10.43 10.43 0 0010.73 6.368c4.824-.501 8.603-4.256 9.253-8.939a.586.586 0 00-.5-.66zM16.321 3.208C15.19 4.554 14.48 6.33 14.098 8.04a30.98 30.98 0 01-2.372-.503 9.33 9.33 0 014.595-4.33zm-5.592 8.51c0-1.084.188-2.124.53-3.09.857.223 1.733.41 2.625.565-.12.816-.182 1.662-.182 2.524 0 .862.062 1.708.182 2.524a32.56 32.56 0 00-2.625.566 9.232 9.232 0 01-.53-3.09zm.997 4.178a31.067 31.067 0 012.372-.503c.382 1.71 1.09 3.488 2.223 4.834a9.33 9.33 0 01-4.595-4.33zm7.69 5.03c-2.276-.48-3.642-3.453-4.16-5.712a35.074 35.074 0 014.16-.31v6.022zm0-7.193a36.185 36.185 0 00-4.375.33 16.248 16.248 0 01-.168-2.346c0-.802.057-1.588.168-2.345a36.18 36.18 0 004.375.329v4.032zm0-5.204a35.07 35.07 0 01-4.16-.309c.522-2.277 1.914-5.239 4.16-5.712v6.021zm8.86-.99c-.776.196-1.567.364-2.371.502-.297-1.327-.754-2.547-1.357-3.588a8.746 8.746 0 00-.86-1.236 9.362 9.362 0 014.587 4.322zm-7.69-5.031c1.095.232 2.125 1.11 2.949 2.533.533.919.94 2 1.21 3.18a35.058 35.058 0 01-4.158.308V2.508zm0 7.193a36.202 36.202 0 004.376-.329c.11.756.167 1.543.167 2.345 0 .803-.057 1.589-.167 2.345a36.192 36.192 0 00-4.375-.329V9.701zm0 11.225v-6.021c1.418.022 2.807.125 4.16.309-.523 2.28-1.898 5.233-4.16 5.712zm3.103-.709c1.128-1.345 1.834-3.118 2.216-4.824a31.04 31.04 0 012.37.503 9.362 9.362 0 01-4.586 4.321z"/></g><defs><clipPath id="clip0"><path fill="#fff" d="M0 0h40v40H0z"/></clipPath></defs></svg>