<svg width="88" height="88" viewBox="0 0 88 88" fill="none" xmlns="http://www.w3.org/2000/svg">
<g filter="url(#filter0_d)">
<path d="M7.55765 70H49.8824C51.8282 70 53.4118 68.3175 53.4118 66.25V18.75C53.4118 18.6925 53.3882 18.6425 53.3812 18.5875C53.3746 18.5351 53.3644 18.4833 53.3506 18.4325C53.3045 18.2194 53.2053 18.0234 53.0635 17.865L36.5953 0.3675C36.4087 0.180197 36.1702 0.0618374 35.9153 0.03C35.8659 0.025 35.8188 0 35.7647 0H7.54353C5.59059 0 4 1.6825 4 3.75V66.25C4 68.3175 5.59529 70 7.55765 70ZM36.9412 4.2675L49.3953 17.5H38.1176C37.8056 17.5 37.5064 17.3683 37.2858 17.1339C37.0651 16.8995 36.9412 16.5815 36.9412 16.25V4.2675ZM6.35294 3.75C6.35294 3.06 6.88706 2.5 7.54353 2.5H34.5882V16.25C34.5882 18.3175 36.1718 20 38.1176 20H51.0588V66.25C51.0588 66.5815 50.9349 66.8995 50.7142 67.1339C50.4936 67.3683 50.1944 67.5 49.8824 67.5H7.55765C7.40129 67.502 7.2461 67.4712 7.10094 67.4095C6.95578 67.3477 6.82348 67.2562 6.71161 67.1401C6.59975 67.024 6.51049 66.8857 6.44895 66.733C6.38741 66.5802 6.35478 66.4161 6.35294 66.25V3.75Z" fill="#BA0C2F"/>
<path d="M14.5886 30H42.8239C43.1359 30 43.4351 29.8683 43.6558 29.6339C43.8764 29.3995 44.0003 29.0815 44.0003 28.75C44.0003 28.4185 43.8764 28.1005 43.6558 27.8661C43.4351 27.6317 43.1359 27.5 42.8239 27.5H14.5886C14.2766 27.5 13.9773 27.6317 13.7567 27.8661C13.5361 28.1005 13.4121 28.4185 13.4121 28.75C13.4121 29.0815 13.5361 29.3995 13.7567 29.6339C13.9773 29.8683 14.2766 30 14.5886 30Z" fill="#BA0C2F"/>
<path d="M14.5886 40H42.8239C43.1359 40 43.4351 39.8683 43.6558 39.6339C43.8764 39.3995 44.0003 39.0815 44.0003 38.75C44.0003 38.4185 43.8764 38.1005 43.6558 37.8661C43.4351 37.6317 43.1359 37.5 42.8239 37.5H14.5886C14.2766 37.5 13.9773 37.6317 13.7567 37.8661C13.5361 38.1005 13.4121 38.4185 13.4121 38.75C13.4121 39.0815 13.5361 39.3995 13.7567 39.6339C13.9773 39.8683 14.2766 40 14.5886 40Z" fill="#BA0C2F"/>
<path d="M14.5886 20H26.3533C26.6653 20 26.9645 19.8683 27.1852 19.6339C27.4058 19.3995 27.5298 19.0815 27.5298 18.75C27.5298 18.4185 27.4058 18.1005 27.1852 17.8661C26.9645 17.6317 26.6653 17.5 26.3533 17.5H14.5886C14.2766 17.5 13.9773 17.6317 13.7567 17.8661C13.5361 18.1005 13.4121 18.4185 13.4121 18.75C13.4121 19.0815 13.5361 19.3995 13.7567 19.6339C13.9773 19.8683 14.2766 20 14.5886 20Z" fill="#BA0C2F"/>
<path d="M14.5886 50H42.8239C43.1359 50 43.4351 49.8683 43.6558 49.6339C43.8764 49.3995 44.0003 49.0815 44.0003 48.75C44.0003 48.4185 43.8764 48.1005 43.6558 47.8661C43.4351 47.6317 43.1359 47.5 42.8239 47.5H14.5886C14.2766 47.5 13.9773 47.6317 13.7567 47.8661C13.5361 48.1005 13.4121 48.4185 13.4121 48.75C13.4121 49.0815 13.5361 49.3995 13.7567 49.6339C13.9773 49.8683 14.2766 50 14.5886 50Z" fill="#BA0C2F"/>
<path d="M14.5886 60H42.8239C43.1359 60 43.4351 59.8683 43.6558 59.6339C43.8764 59.3995 44.0003 59.0815 44.0003 58.75C44.0003 58.4185 43.8764 58.1005 43.6558 57.8661C43.4351 57.6317 43.1359 57.5 42.8239 57.5H14.5886C14.2766 57.5 13.9773 57.6317 13.7567 57.8661C13.5361 58.1005 13.4121 58.4185 13.4121 58.75C13.4121 59.0815 13.5361 59.3995 13.7567 59.6339C13.9773 59.8683 14.2766 60 14.5886 60Z" fill="#BA0C2F"/>
<path d="M54.5879 12.5H65.1761V26.25C65.1761 28.3175 66.7597 30 68.7055 30H81.6467V76.25C81.6467 76.5815 81.5228 76.8995 81.3021 77.1339C81.0815 77.3683 80.7823 77.5 80.4702 77.5H38.1455C37.9892 77.502 37.834 77.4712 37.6888 77.4095C37.5437 77.3477 37.4114 77.2562 37.2995 77.1401C37.1876 77.024 37.0984 76.8857 37.0368 76.733C36.9753 76.5802 36.9427 76.4161 36.9408 76.25V73.75C36.9408 73.4185 36.8169 73.1005 36.5963 72.8661C36.3756 72.6317 36.0764 72.5 35.7644 72.5C35.4523 72.5 35.1531 72.6317 34.9325 72.8661C34.7118 73.1005 34.5879 73.4185 34.5879 73.75V76.25C34.5879 78.3175 36.1832 80 38.1455 80H80.4702C82.4161 80 83.9997 78.3175 83.9997 76.25V28.75C83.9997 28.6925 83.9761 28.6425 83.9691 28.5875C83.9625 28.5351 83.9523 28.4833 83.9385 28.4325C83.8924 28.2194 83.7932 28.0234 83.6514 27.865L67.1832 10.3675C66.9979 10.1786 66.7586 10.0608 66.5032 10.0325C66.4538 10.025 66.4067 10 66.3526 10H54.5879C54.2759 10 53.9766 10.1317 53.756 10.3661C53.5354 10.6005 53.4114 10.9185 53.4114 11.25C53.4114 11.5815 53.5354 11.8995 53.756 12.1339C53.9766 12.3683 54.2759 12.5 54.5879 12.5ZM68.7055 27.5C68.3935 27.5 68.0943 27.3683 67.8736 27.1339C67.653 26.8995 67.5291 26.5815 67.5291 26.25V14.2675L79.9832 27.5H68.7055Z" fill="#BA0C2F"/>
<path d="M59.2937 40H73.4113C73.7233 40 74.0226 39.8683 74.2432 39.6339C74.4638 39.3995 74.5878 39.0815 74.5878 38.75C74.5878 38.4185 74.4638 38.1005 74.2432 37.8661C74.0226 37.6317 73.7233 37.5 73.4113 37.5H59.2937C58.9816 37.5 58.6824 37.6317 58.4618 37.8661C58.2411 38.1005 58.1172 38.4185 58.1172 38.75C58.1172 39.0815 58.2411 39.3995 58.4618 39.6339C58.6824 39.8683 58.9816 40 59.2937 40Z" fill="#BA0C2F"/>
<path d="M59.2937 50H73.4113C73.7233 50 74.0226 49.8683 74.2432 49.6339C74.4638 49.3995 74.5878 49.0815 74.5878 48.75C74.5878 48.4185 74.4638 48.1005 74.2432 47.8661C74.0226 47.6317 73.7233 47.5 73.4113 47.5H59.2937C58.9816 47.5 58.6824 47.6317 58.4618 47.8661C58.2411 48.1005 58.1172 48.4185 58.1172 48.75C58.1172 49.0815 58.2411 49.3995 58.4618 49.6339C58.6824 49.8683 58.9816 50 59.2937 50Z" fill="#BA0C2F"/>
<path d="M59.2937 60H73.4113C73.7233 60 74.0226 59.8683 74.2432 59.6339C74.4638 59.3995 74.5878 59.0815 74.5878 58.75C74.5878 58.4185 74.4638 58.1005 74.2432 57.8661C74.0226 57.6317 73.7233 57.5 73.4113 57.5H59.2937C58.9816 57.5 58.6824 57.6317 58.4618 57.8661C58.2411 58.1005 58.1172 58.4185 58.1172 58.75C58.1172 59.0815 58.2411 59.3995 58.4618 59.6339C58.6824 59.8683 58.9816 60 59.2937 60Z" fill="#BA0C2F"/>
<path d="M59.2937 70H73.4113C73.7233 70 74.0226 69.8683 74.2432 69.6339C74.4638 69.3995 74.5878 69.0815 74.5878 68.75C74.5878 68.4185 74.4638 68.1005 74.2432 67.8661C74.0226 67.6317 73.7233 67.5 73.4113 67.5H59.2937C58.9816 67.5 58.6824 67.6317 58.4618 67.8661C58.2411 68.1005 58.1172 68.4185 58.1172 68.75C58.1172 69.0815 58.2411 69.3995 58.4618 69.6339C58.6824 69.8683 58.9816 70 59.2937 70Z" fill="#BA0C2F"/>
</g>
<defs>
<filter id="filter0_d" x="0" y="0" width="88" height="88" filterUnits="userSpaceOnUse" color-interpolation-filters="sRGB">
<feFlood flood-opacity="0" result="BackgroundImageFix"/>
<feColorMatrix in="SourceAlpha" type="matrix" values="0 0 0 0 0 0 0 0 0 0 0 0 0 0 0 0 0 0 127 0"/>
<feOffset dy="4"/>
<feGaussianBlur stdDeviation="2"/>
<feColorMatrix type="matrix" values="0 0 0 0 0 0 0 0 0 0 0 0 0 0 0 0 0 0 0.25 0"/>
<feBlend mode="normal" in2="BackgroundImageFix" result="effect1_dropShadow"/>
<feBlend mode="normal" in="SourceGraphic" in2="effect1_dropShadow" result="shape"/>
</filter>
</defs>
</svg>
