<svg width="88" height="88" viewBox="0 0 88 88" fill="none" xmlns="http://www.w3.org/2000/svg">
<g filter="url(#filter0_d)">
<path d="M19.8441 25.4407C21.7428 25.4407 23.5989 24.8777 25.1776 23.8228C26.7563 22.768 27.9868 21.2687 28.7134 19.5145C29.44 17.7603 29.6301 15.8301 29.2597 13.9679C28.8893 12.1056 27.9749 10.3951 26.6324 9.0525C25.2898 7.70992 23.5792 6.79561 21.717 6.42519C19.8548 6.05477 17.9245 6.24488 16.1704 6.97148C14.4162 7.69809 12.9169 8.92854 11.862 10.5073C10.8072 12.086 10.2441 13.942 10.2441 15.8407C10.2462 18.3862 11.2583 20.8268 13.0582 22.6267C14.8581 24.4266 17.2987 25.4387 19.8441 25.4407ZM19.8441 8.7353C21.2506 8.7353 22.6254 9.15236 23.7949 9.93374C24.9643 10.7151 25.8757 11.8257 26.4139 13.1251C26.9522 14.4245 27.093 15.8543 26.8186 17.2337C26.5442 18.6131 25.867 19.8802 24.8724 20.8747C23.8779 21.8692 22.6109 22.5465 21.2314 22.8209C19.852 23.0953 18.4222 22.9544 17.1228 22.4162C15.8234 21.878 14.7128 20.9666 13.9315 19.7971C13.1501 18.6277 12.733 17.2529 12.733 15.8464C12.7347 13.961 13.4845 12.1533 14.8177 10.8202C16.151 9.48711 17.9587 8.73752 19.8441 8.73602V8.7353Z" fill="#BA0C2F"/>
<path d="M19.8441 5.35253C20.0075 5.35253 20.1693 5.32034 20.3203 5.2578C20.4713 5.19527 20.6085 5.1036 20.724 4.98804C20.8396 4.87249 20.9312 4.7353 20.9938 4.58432C21.0563 4.43333 21.0885 4.27151 21.0885 4.10809V1.24444C21.0885 0.914397 20.9574 0.597868 20.724 0.364489C20.4906 0.13111 20.1741 0 19.8441 0C19.514 0 19.1975 0.13111 18.9641 0.364489C18.7307 0.597868 18.5996 0.914397 18.5996 1.24444V4.10809C18.5996 4.43814 18.7307 4.75466 18.9641 4.98804C19.1975 5.22142 19.514 5.35253 19.8441 5.35253Z" fill="#BA0C2F"/>
<path d="M28.1417 8.79006C28.3052 8.79021 28.467 8.75806 28.618 8.69546C28.7689 8.63285 28.906 8.54103 29.0214 8.42526L31.0466 6.40002C31.28 6.16663 31.4111 5.85008 31.4111 5.52002C31.4111 5.18996 31.28 4.87341 31.0466 4.64002C30.8132 4.40663 30.4967 4.27551 30.1666 4.27551C29.8366 4.27551 29.52 4.40663 29.2866 4.64002L27.2614 6.66526C27.0872 6.8393 26.9685 7.06112 26.9204 7.30262C26.8724 7.54412 26.897 7.79446 26.9913 8.02196C27.0855 8.24945 27.2451 8.44386 27.4499 8.58059C27.6547 8.71732 27.8955 8.79022 28.1417 8.79006Z" fill="#BA0C2F"/>
<path d="M30.3359 15.8443C30.3359 16.1743 30.467 16.4909 30.7004 16.7243C30.9338 16.9576 31.2503 17.0887 31.5804 17.0887H34.444C34.7741 17.0887 35.0906 16.9576 35.324 16.7243C35.5574 16.4909 35.6885 16.1743 35.6885 15.8443C35.6885 15.5143 35.5574 15.1977 35.324 14.9643C35.0906 14.731 34.7741 14.5999 34.444 14.5999H31.5804C31.2503 14.5999 30.9338 14.731 30.7004 14.9643C30.467 15.1977 30.3359 15.5143 30.3359 15.8443Z" fill="#BA0C2F"/>
<path d="M27.2613 23.2627C27.1457 23.3782 27.0539 23.5153 26.9913 23.6663C26.9287 23.8173 26.8965 23.9792 26.8965 24.1427C26.8965 24.3061 26.9287 24.468 26.9913 24.619C27.0539 24.77 27.1457 24.9071 27.2613 25.0227L29.2866 27.0479C29.52 27.2813 29.8365 27.4124 30.1666 27.4124C30.4966 27.4124 30.8132 27.2813 31.0466 27.0479C31.28 26.8145 31.4111 26.498 31.4111 26.1679C31.4111 25.8378 31.28 25.5213 31.0466 25.2879L29.0213 23.2627C28.9058 23.147 28.7686 23.0552 28.6176 22.9926C28.4666 22.93 28.3048 22.8978 28.1413 22.8978C27.9779 22.8978 27.816 22.93 27.665 22.9926C27.514 23.0552 27.3768 23.147 27.2613 23.2627Z" fill="#BA0C2F"/>
<path d="M18.5996 27.5798V30.4434C18.5996 30.7735 18.7307 31.09 18.9641 31.3234C19.1975 31.5567 19.514 31.6879 19.8441 31.6879C20.1741 31.6879 20.4906 31.5567 20.724 31.3234C20.9574 31.09 21.0885 30.7735 21.0885 30.4434V27.5798C21.0885 27.2497 20.9574 26.9332 20.724 26.6998C20.4906 26.4664 20.1741 26.3353 19.8441 26.3353C19.514 26.3353 19.1975 26.4664 18.9641 26.6998C18.7307 26.9332 18.5996 27.2497 18.5996 27.5798Z" fill="#BA0C2F"/>
<path d="M10.6651 23.2625L8.6399 25.2877C8.52434 25.4033 8.43267 25.5405 8.37012 25.6914C8.30758 25.8424 8.27539 26.0043 8.27539 26.1677C8.27539 26.3311 8.30758 26.493 8.37012 26.644C8.43267 26.7949 8.52434 26.9321 8.6399 27.0477C8.75546 27.1633 8.89266 27.2549 9.04365 27.3175C9.19464 27.38 9.35647 27.4122 9.5199 27.4122C9.68333 27.4122 9.84516 27.38 9.99615 27.3175C10.1471 27.2549 10.2843 27.1633 10.3999 27.0477L12.4259 25.0225C12.6592 24.7891 12.7904 24.4725 12.7904 24.1425C12.7904 23.8124 12.6592 23.4958 12.4259 23.2625C12.1925 23.0291 11.8759 22.8979 11.5459 22.8979C11.2158 22.8979 10.8992 23.0291 10.6659 23.2625H10.6651Z" fill="#BA0C2F"/>
<path d="M5.24444 17.0887H8.10809C8.43814 17.0887 8.75466 16.9576 8.98804 16.7243C9.22142 16.4909 9.35253 16.1743 9.35253 15.8443C9.35253 15.5143 9.22142 15.1977 8.98804 14.9643C8.75466 14.731 8.43814 14.5999 8.10809 14.5999H5.24444C4.9144 14.5999 4.59787 14.731 4.36449 14.9643C4.13111 15.1977 4 15.5143 4 15.8443C4 16.1743 4.13111 16.4909 4.36449 16.7243C4.59787 16.9576 4.9144 17.0887 5.24444 17.0887Z" fill="#BA0C2F"/>
<path d="M10.6664 8.42659C10.8999 8.66007 11.2165 8.79124 11.5467 8.79124C11.8769 8.79124 12.1936 8.66007 12.4271 8.42659C12.6606 8.1931 12.7918 7.87643 12.7918 7.54623C12.7918 7.21603 12.6606 6.89936 12.4271 6.66588L10.4019 4.64063C10.1685 4.40724 9.85192 4.27612 9.52185 4.27612C9.19179 4.27612 8.87524 4.40724 8.64185 4.64063C8.40846 4.87402 8.27734 5.19057 8.27734 5.52063C8.27734 5.8507 8.40846 6.16724 8.64185 6.40063L10.6664 8.42659Z" fill="#BA0C2F"/>
<path d="M82.7556 77.5112H75.8194C74.9646 75.3578 73.4855 73.5092 71.5721 72.2029C69.6587 70.8966 67.3984 70.1922 65.0816 70.1804C64.2444 70.181 63.4097 70.2735 62.5927 70.4563C61.6598 68.5668 60.3561 66.8844 58.7593 65.5093C57.1626 64.1341 55.3054 63.0944 53.2985 62.452L59.5285 39.4312C61.104 40.1629 62.3706 41.4272 63.1051 43.0013C63.8396 44.5754 63.9949 46.3583 63.5435 48.0357C63.5008 48.1935 63.4896 48.3581 63.5106 48.5202C63.5315 48.6823 63.5842 48.8387 63.6656 48.9804C63.7469 49.1221 63.8555 49.2465 63.9849 49.3463C64.1143 49.4461 64.2621 49.5194 64.4199 49.5621C64.5777 49.6048 64.7423 49.6159 64.9044 49.595C65.0665 49.574 65.2229 49.5214 65.3646 49.44C65.5064 49.3586 65.6307 49.2501 65.7305 49.1207C65.8303 48.9912 65.9036 48.8434 65.9463 48.6856C66.4849 46.833 67.7288 45.2655 69.4107 44.3201C71.0926 43.3748 73.0782 43.1269 74.9409 43.6298C76.8036 44.1327 78.3946 45.3463 79.3721 47.0097C80.3496 48.6731 80.6356 50.6536 80.1685 52.5256V52.5377C80.1259 52.6955 80.1147 52.8601 80.1356 53.0222C80.1566 53.1843 80.2092 53.3407 80.2906 53.4824C80.372 53.6242 80.4805 53.7485 80.61 53.8483C80.7394 53.9481 80.8872 54.0214 81.045 54.0641C81.2028 54.1068 81.3674 54.118 81.5295 54.097C81.6916 54.0761 81.848 54.0234 81.9897 53.942C82.1314 53.8606 82.2558 53.7521 82.3556 53.6227C82.4554 53.4933 82.5287 53.3454 82.5714 53.1877V53.1791C84.3923 46.2649 83.4047 38.911 79.8241 32.7221C76.2435 26.5332 70.3605 22.0116 63.4587 20.1439C56.5569 18.2761 49.1966 19.2139 42.9836 22.7525C36.7705 26.2911 32.2092 32.1433 30.2948 39.0323C30.2086 39.3509 30.2525 39.6908 30.4169 39.977C30.5812 40.2633 30.8526 40.4725 31.1712 40.5587C31.4898 40.6449 31.8297 40.601 32.1159 40.4366C32.4022 40.2722 32.6114 40.0009 32.6976 39.6823C32.9473 38.745 33.3796 37.8662 33.9697 37.0964C34.5598 36.3266 35.2961 35.6809 36.1364 35.1964C36.9767 34.7119 37.9044 34.398 38.8662 34.2729C39.8281 34.1478 40.8052 34.2139 41.7415 34.4673C42.6777 34.7208 43.5548 35.1566 44.3222 35.7499C45.0896 36.3431 45.7323 37.082 46.2134 37.9242C46.6945 38.7665 47.0046 39.6954 47.1258 40.6578C47.2471 41.6201 47.1771 42.597 46.9198 43.5322C46.8912 43.6384 46.8766 43.7479 46.8764 43.8579C46.8768 44.1594 46.9866 44.4505 47.1854 44.6771C47.3842 44.9037 47.6585 45.0505 47.9573 45.0901C48.2562 45.1297 48.5592 45.0595 48.8102 44.8925C49.0612 44.7255 49.2431 44.4731 49.322 44.1822C49.7743 42.5042 50.8065 41.0406 52.2353 40.0513C53.6641 39.062 55.3972 38.6107 57.1271 38.7777L50.875 61.8782C47.8084 61.3987 44.6685 61.8359 41.8495 63.1348C39.0305 64.4337 36.6581 66.5365 35.03 69.1791C33.1668 67.4677 30.8704 66.2994 28.3901 65.8009C25.9098 65.3024 23.3403 65.4928 20.9606 66.3515C18.5809 67.2101 16.4818 68.7042 14.8912 70.6716C13.3006 72.639 12.2793 75.0044 11.9381 77.5112H5.24444C4.9144 77.5112 4.59787 77.6423 4.36449 77.8757C4.13111 78.1091 4 78.4256 4 78.7557C4 79.0857 4.13111 79.4022 4.36449 79.6356C4.59787 79.869 4.9144 80.0001 5.24444 80.0001H82.7556C83.0856 80.0001 83.4021 79.869 83.6355 79.6356C83.8689 79.4022 84 79.0857 84 78.7557C84 78.4256 83.8689 78.1091 83.6355 77.8757C83.4021 77.6423 83.0856 77.5112 82.7556 77.5112ZM77.7614 33.8661C79.6816 37.1958 80.791 40.9308 80.9998 44.7688C79.6821 42.9678 77.7882 41.6716 75.6324 41.0952C74.7877 40.8655 73.9164 40.7488 73.0411 40.7482C71.324 40.7501 69.6375 41.2032 68.1508 42.0623C67.8597 42.2362 67.5777 42.4249 67.306 42.6277C69.0418 32.793 67.5968 26.7827 66.1127 23.5059C71.024 25.5927 75.1158 29.2319 77.7614 33.8661ZM42.3829 32.0947C40.2366 31.5073 37.9541 31.6688 35.9118 32.5527C38.4444 28.7358 41.99 25.6997 46.1511 23.7847C50.3123 21.8697 54.9245 21.1514 59.4709 21.7103C56.5376 23.7918 52.2631 28.2526 48.8043 37.6051C48.2113 36.2667 47.3272 35.0775 46.2163 34.1242C45.1054 33.1709 43.7958 32.4776 42.3829 32.0947ZM51.5257 37.5596C51.5051 37.5717 51.4873 37.5866 51.4674 37.5987C55.6971 26.7379 60.9557 23.4839 62.7932 22.6433C63.978 24.2846 66.8786 29.6748 65.0155 41.2744C64.3785 40.1398 63.523 39.1428 62.4983 38.3409C61.4737 37.5389 60.3002 36.9481 59.0458 36.6024C57.7914 36.2568 56.4809 36.1632 55.1902 36.3272C53.8994 36.4911 52.6539 36.9092 51.5257 37.5575V37.5596ZM14.4462 77.5112C14.8043 75.3697 15.7682 73.3755 17.2238 71.7645C18.6795 70.1535 20.5661 68.9931 22.6605 68.4205C24.7549 67.8479 26.9695 67.8871 29.0423 68.5334C31.1152 69.1797 32.9596 70.4062 34.3573 72.0677C34.4916 72.2271 34.6638 72.3502 34.8581 72.4257C35.0523 72.5012 35.2625 72.5267 35.4691 72.4999C35.6758 72.473 35.8725 72.3947 36.041 72.2721C36.2096 72.1495 36.3446 71.9865 36.4338 71.7982C37.5334 69.4679 39.2866 67.5075 41.4801 66.1555C43.6735 64.8035 46.2127 64.1181 48.7885 64.1828C51.3644 64.2476 53.8659 65.0596 55.9887 66.52C58.1115 67.9805 59.764 70.0265 60.7452 72.409C60.8641 72.699 61.0881 72.9333 61.3724 73.0652C61.6567 73.1971 61.9803 73.2167 62.2784 73.1201C64.3084 72.4538 66.5089 72.5294 68.4883 73.3337C70.4677 74.138 72.0974 75.6186 73.0873 77.5119L14.4462 77.5112Z" fill="#BA0C2F"/>
</g>
<defs>
<filter id="filter0_d" x="0" y="0" width="88" height="88.0001" filterUnits="userSpaceOnUse" color-interpolation-filters="sRGB">
<feFlood flood-opacity="0" result="BackgroundImageFix"/>
<feColorMatrix in="SourceAlpha" type="matrix" values="0 0 0 0 0 0 0 0 0 0 0 0 0 0 0 0 0 0 127 0"/>
<feOffset dy="4"/>
<feGaussianBlur stdDeviation="2"/>
<feColorMatrix type="matrix" values="0 0 0 0 0 0 0 0 0 0 0 0 0 0 0 0 0 0 0.25 0"/>
<feBlend mode="normal" in2="BackgroundImageFix" result="effect1_dropShadow"/>
<feBlend mode="normal" in="SourceGraphic" in2="effect1_dropShadow" result="shape"/>
</filter>
</defs>
</svg>
