<svg width="20" height="20" viewBox="0 0 20 20" fill="none" xmlns="http://www.w3.org/2000/svg">
<path d="M9.4975 0.00162884C7.89333 0.0232955 4.44166 0.286629 2.51083 2.0558C1.0775 3.4808 0.576664 5.58163 0.518331 8.1833C0.468331 10.775 0.409997 15.6416 5.10166 16.9675V18.9841C5.10166 18.9841 5.07 19.7925 5.60333 19.9591C6.26166 20.1675 6.63666 19.5433 7.26166 18.8766L8.42833 17.56C11.6367 17.8266 14.095 17.2108 14.3783 17.1191C15.0283 16.9108 18.6958 16.4433 19.2958 11.5758C19.9125 6.54996 18.9958 3.3833 17.3458 1.94996L17.3375 1.9483C16.8375 1.48996 14.8375 0.0316288 10.3625 0.0149622C10.3625 0.0149622 10.0325 -0.00587116 9.4975 0.00162884ZM9.55333 1.4158C10.0075 1.4133 10.2867 1.43246 10.2867 1.43246C14.07 1.4408 15.8792 2.58246 16.3042 2.9658C17.6958 4.15663 18.4108 7.01246 17.8875 11.2091C17.3875 15.2758 14.4125 15.5341 13.8625 15.7091C13.6292 15.7841 11.4625 16.3175 8.73583 16.1425C8.73583 16.1425 6.70333 18.5933 6.07 19.2266C5.97 19.335 5.85333 19.3683 5.77833 19.3516C5.67 19.3266 5.63666 19.1933 5.645 19.01L5.66166 15.6608C1.68583 14.5608 1.91916 10.4091 1.96083 8.24246C2.01083 6.0758 2.41916 4.29913 3.6275 3.09913C5.25833 1.62413 8.19 1.42413 9.5525 1.4158H9.55333ZM9.85333 3.58246C9.82054 3.58235 9.78805 3.58872 9.75772 3.60119C9.7274 3.61366 9.69983 3.632 9.6766 3.65515C9.65338 3.67829 9.63495 3.7058 9.62238 3.73608C9.6098 3.76637 9.60333 3.79884 9.60333 3.83163C9.60333 3.89793 9.62967 3.96152 9.67655 4.00841C9.72344 4.05529 9.78703 4.08163 9.85333 4.08163C10.4729 4.06981 11.0886 4.18081 11.665 4.40823C12.2414 4.63565 12.7671 4.97498 13.2117 5.40663C14.12 6.28996 14.5625 7.4733 14.5792 9.0233C14.5792 9.05613 14.5856 9.08864 14.5982 9.11897C14.6108 9.1493 14.6292 9.17686 14.6524 9.20007C14.6756 9.22329 14.7032 9.2417 14.7335 9.25426C14.7638 9.26683 14.7963 9.2733 14.8292 9.2733V9.2658C14.8955 9.2658 14.9591 9.23946 15.0059 9.19257C15.0528 9.14569 15.0792 9.0821 15.0792 9.0158C15.1101 8.28687 14.9923 7.55927 14.733 6.87733C14.4737 6.19538 14.0783 5.57335 13.5708 5.04913C12.5792 4.08246 11.3275 3.58246 9.8525 3.58246H9.85333ZM6.55833 4.15746C6.38111 4.13221 6.20056 4.16744 6.04583 4.25746H6.03583C5.69416 4.45746 5.37916 4.70746 5.07916 5.0408C4.85416 5.30746 4.72833 5.5733 4.695 5.83163C4.67539 5.98314 4.68962 6.13711 4.73666 6.28246L4.75333 6.2908C5.01019 7.04592 5.34535 7.77209 5.75333 8.45746C6.28217 9.41731 6.93192 10.3054 7.68666 11.1L7.71166 11.1333L7.745 11.1583L7.77 11.1833L7.795 11.2083C8.59268 11.965 9.48312 12.6174 10.445 13.15C11.545 13.75 12.2133 14.0333 12.6133 14.15V14.1583C12.73 14.1916 12.8367 14.2083 12.945 14.2083C13.2864 14.1834 13.6097 14.0449 13.8633 13.815C14.1883 13.5233 14.4467 13.2 14.6383 12.8583V12.85C14.83 12.4916 14.7633 12.1491 14.4883 11.9158C13.9341 11.431 13.3341 11.0012 12.6967 10.6325C12.2717 10.3991 11.8383 10.5408 11.6633 10.7741L11.2883 11.2483C11.0967 11.4816 10.7467 11.4483 10.7467 11.4483L10.7367 11.4566C8.13666 10.79 7.445 8.15746 7.445 8.15746C7.445 8.15746 7.41166 7.79913 7.65333 7.6158L8.12 7.2408C8.345 7.05746 8.50333 6.62413 8.26166 6.19913C7.89346 5.56141 7.46362 4.96132 6.97833 4.40746C6.87277 4.27654 6.72374 4.18784 6.55833 4.15746ZM10.2858 4.89913C10.2195 4.89935 10.156 4.9259 10.1093 4.97294C10.0626 5.01998 10.0364 5.08366 10.0367 5.14996C10.0369 5.21627 10.0634 5.27977 10.1105 5.3265C10.1575 5.37322 10.2212 5.39935 10.2875 5.39913C11.1215 5.4136 11.9156 5.75825 12.4958 6.35746C12.7576 6.64622 12.9588 6.98452 13.0876 7.35237C13.2165 7.72021 13.2703 8.11015 13.2458 8.49913C13.2461 8.56529 13.2725 8.62866 13.3193 8.67537C13.3662 8.72207 13.4297 8.7483 13.4958 8.7483L13.5042 8.7583C13.5371 8.7583 13.5696 8.7518 13.6 8.73919C13.6304 8.72657 13.658 8.70808 13.6812 8.68478C13.7045 8.66148 13.7229 8.63382 13.7354 8.60339C13.7479 8.57296 13.7543 8.54036 13.7542 8.50746C13.7792 7.5158 13.4708 6.68246 12.8625 6.0158C12.2542 5.34913 11.4042 4.97413 10.3208 4.89913C10.3092 4.89831 10.2975 4.89831 10.2858 4.89913ZM10.6942 6.2483C10.6607 6.24731 10.6274 6.25292 10.5962 6.2648C10.5649 6.27669 10.5363 6.29461 10.5119 6.31756C10.4876 6.3405 10.468 6.36801 10.4543 6.39853C10.4406 6.42904 10.4331 6.46195 10.4321 6.49538C10.4311 6.52881 10.4367 6.56211 10.4486 6.59338C10.4605 6.62464 10.4784 6.65326 10.5013 6.67759C10.5243 6.70193 10.5518 6.72151 10.5823 6.73521C10.6128 6.74892 10.6457 6.75648 10.6792 6.75746C11.5042 6.79913 11.9042 7.2158 11.9542 8.07413C11.9563 8.13898 11.9836 8.20045 12.0303 8.24554C12.0769 8.29064 12.1393 8.31583 12.2042 8.3158H12.2125C12.2461 8.31475 12.2791 8.30695 12.3096 8.29286C12.3401 8.27878 12.3674 8.25869 12.39 8.2338C12.4125 8.20891 12.4298 8.17973 12.4409 8.148C12.4519 8.11627 12.4564 8.08264 12.4542 8.04913C12.3958 6.93246 11.7875 6.30663 10.7042 6.2483C10.7008 6.24823 10.6975 6.24823 10.6942 6.2483Z" fill="#BA0C2F"/>
</svg>
