<svg width="35" height="39" fill="none" xmlns="http://www.w3.org/2000/svg"><path d="M33.963 13.937h-.558l-7.294-9.211a.986.986 0 00-.772-.387.986.986 0 00-.771.387l-2.02 2.55-4.3-6.692a1 1 0 00-.835-.477 1 1 0 00-.836.477l-4.23 6.583-1.933-2.441a.986.986 0 00-.772-.387.986.986 0 00-.771.387l-7.294 9.211h-.552C.46 13.937 0 14.445 0 15.071c0 .626.46 1.133 1.025 1.133H10.6c-2.09 1.39-3.335 3.023-3.773 4.93-1.005 4.375 2.718 8.723 5.181 11.6.72.84 1.34 1.565 1.668 2.08.402.633.476 1.169-.34 2.037a1.22 1.22 0 00-.026 1.603c.201.231.47.347.739.347a.972.972 0 00.71-.317c1.95-2.076 1.21-4.008.595-4.974-.413-.65-1.082-1.431-1.856-2.335-2.155-2.516-5.41-6.318-4.683-9.484.495-2.156 2.799-4.002 6.845-5.487h4.023c-1.61 1.345-2.443 2.733-2.57 4.245-.277 3.317 2.946 5.951 6.359 8.74 3.274 2.676 6.66 5.442 6.077 8.223-.127.61.217 1.219.768 1.36.078.02.156.03.232.03.467 0 .889-.355.998-.879.41-1.958-.202-3.902-1.87-5.942-1.336-1.632-3.191-3.148-4.986-4.615-2.806-2.293-5.707-4.663-5.535-6.708.114-1.365 1.674-2.903 4.512-4.454h10.296c.566 0 1.025-.507 1.025-1.134 0-.626-.459-1.133-1.025-1.133zm-8.624-6.743l5.34 6.743h-3.85l-3.06-4.761 1.57-1.982zm-15.697 0l1.484 1.873-3.13 4.87H4.303l5.34-6.743zm7.771-3.996l6.9 10.739h-13.8l6.9-10.74z" fill="#BA0C2F"/></svg>