<svg width="28" height="28" fill="none" xmlns="http://www.w3.org/2000/svg"><path d="M25.54 1.805c.236 0 .437.027.6.082.037.11.06.246.07.41.008.164 0 .374-.028.629-.027.255-.128.538-.3.847-.174.31-.407.611-.698.903l-6.317 6.316.055.766c.073 1.385.219 3.755.438 7.11.164 2.934.255 4.447.273 4.538a.47.47 0 01-.11.301c-.127.128-.291.31-.491.547-.201.237-.42.483-.657.738a424.961 424.961 0 01-2.68-7.3l-.957-2.57-1.94 1.94-3.556 3.418-.52.52v.684c-.017.346-.017 1.166 0 2.46v1.477l.028.027.055.028a6.825 6.825 0 01-.219-.383l-.164-.246a193.355 193.355 0 01-1.86-2.98l-.245-.356-.356-.246c-1.24-.748-2.47-1.513-3.691-2.297.018 0 .036.018.054.055l.028.027h1.846l.26.014.286.013h1.573l.71-.027.493-.492 3.445-3.555 1.941-1.941-2.57-.93c-1.987-.73-4.439-1.64-7.355-2.734a15.4 15.4 0 01.724-.684c.228-.2.415-.355.56-.465l.192-.11h.055c.128 0 1.768.101 4.922.302 3.445.237 5.715.382 6.808.437l.793.055 6.317-6.317c.674-.674 1.404-1.011 2.187-1.011zm0-1.75c-.566 0-1.145.123-1.737.369-.593.246-1.153.633-1.682 1.162l-5.77 5.742a4875.911 4875.911 0 00-5.495-.342 618.8 618.8 0 01-2.953-.191 286.905 286.905 0 00-3.309-.205h-.137c-.11 0-.223.009-.342.027a2.163 2.163 0 00-.45.137 1.775 1.775 0 00-.52.328L1.149 8.887c-.347.346-.493.72-.438 1.12.037.402.274.694.711.876 1.149.456 3.92 1.486 8.313 3.09l-3.446 3.554h-.547c-.382 0-.989-.004-1.818-.013-.83-.01-1.335-.014-1.518-.014H2.01l-.137.014-.177.04-.22.096-.273.15-.314.206-.37.287-.081.082c-.255.273-.392.565-.41.875-.019.31.109.574.382.793.401.328 1.95 1.303 4.649 2.926.2.328.866 1.385 1.996 3.172.51.838.784 1.285.82 1.34a.943.943 0 00.793.464h.028c.328 0 .647-.155.957-.465.127-.145.241-.287.341-.423.1-.137.178-.26.233-.37l.136-.273.069-.232.027-.178v-.137l-.013-.082c.018-.182.022-.811.013-1.887a45.929 45.929 0 01.014-2.16l3.555-3.445c.419 1.148 1.011 2.762 1.777 4.84s1.194 3.217 1.285 3.418c.164.42.447.656.848.71h.137c.163 0 .332-.04.505-.122.174-.082.333-.196.479-.342.091-.091.214-.219.369-.383a46.683 46.683 0 001.435-1.613c.365-.438.53-.93.493-1.477a1253.466 1253.466 0 00-.424-7.37l-.26-4.278 5.77-5.77a5.959 5.959 0 001.107-1.572c.264-.556.406-1.071.424-1.545a4.405 4.405 0 00-.123-1.285c-.1-.383-.25-.665-.451-.848-.401-.4-1.021-.601-1.86-.601z" fill="#BA0C2F"/></svg>