<svg width="28" height="28" fill="none" xmlns="http://www.w3.org/2000/svg"><path d="M25.687 12.83c-.4-.532-1.89-.899-2.52-1.856-.63-.958-1.146-3.032-2.749-3.829-1.604-.796-4.668-1.02-6.418-1.02s-4.813.219-6.418 1.019c-1.606.8-2.12 2.872-2.75 3.828-.63.956-2.119 1.326-2.52 1.858-.4.532-.682 3.896-.51 5.545.171 1.65.491 2.625.491 2.625h4.704c.77 0 1.02-.29 2.595-.438A50.296 50.296 0 0114 20.345c.984 0 2.734.054 4.461.218 1.575.15 1.834.438 2.596.438h4.648s.32-.976.492-2.625c.172-1.65-.111-5.013-.51-5.545z" stroke="#BA0C2F" stroke-width="1.5" stroke-linecap="round" stroke-linejoin="round"/><path d="M21.875 21h3.063v.875h-3.063V21zM3.063 21h3.062v.875H3.062V21z" stroke="#BA0C2F" stroke-linecap="round" stroke-linejoin="round"/><path d="M19.932 16.907c-.323-.373-1.377-.685-2.771-.894-1.395-.209-1.903-.263-3.15-.263-1.247 0-1.814.09-3.15.263-1.337.173-2.34.482-2.771.894-.646.626.3 1.328 1.043 1.413.72.082 2.158.052 4.884.052 2.726 0 4.164.03 4.884-.052.742-.09 1.62-.743 1.03-1.413zm3.67-3.615a.177.177 0 00-.17-.165c-.646-.022-1.302.023-2.465.366a5.132 5.132 0 00-1.645.824c-.124.097-.08.36.076.388.959.113 1.923.17 2.889.17.579 0 1.177-.164 1.288-.68.056-.298.065-.603.027-.903zm-19.203 0a.177.177 0 01.17-.165c.645-.022 1.3.023 2.464.366a5.17 5.17 0 011.645.824c.125.097.08.36-.076.388a24.92 24.92 0 01-2.889.17c-.579 0-1.177-.164-1.288-.68a2.866 2.866 0 01-.026-.903z" fill="#BA0C2F"/><path d="M23.625 10.5h.875m-21 0h.875m-.109 1.04S6.8 10.882 14 10.882s9.734.656 9.734.656" stroke="#BA0C2F" stroke-linecap="round" stroke-linejoin="round"/></svg>