<svg width="30" height="30" fill="none" xmlns="http://www.w3.org/2000/svg"><circle cx="15" cy="15" r="14.5" stroke="#fff"/><g clip-path="url(#clip0)"><path d="M23.935 12.779l-2.713-4.864a.516.516 0 00-.451-.265H10.23a.516.516 0 00-.451.265l-2.714 4.864a.516.516 0 00.05.577L15.1 23.16l.008.009.026.028.003.003.007.007.002.002.029.025.013.01a.5.5 0 00.073.047l.012.006.01.005.032.013.02.008.003.001h.002l.014.004a.504.504 0 00.14.022h.012a.53.53 0 00.14-.022l.014-.004h.001l.004-.002.02-.007.032-.013.01-.005.011-.006a.488.488 0 00.028-.015l.015-.01a.504.504 0 00.073-.057l.002-.003.007-.005c0-.002.002-.003.003-.004a.511.511 0 00.026-.029l.008-.008 7.983-9.804a.516.516 0 00.051-.577zM16.52 8.683l1.462 3.83H13.02l1.463-3.83h2.037zm1.498 4.863L15.5 21.184l-2.517-7.638h5.034zm-6.12 0l2.238 6.794-5.533-6.794h3.294zm7.207 0h3.293l-5.532 6.794 2.239-6.794zm3.5-1.032h-3.518l-1.462-3.831h2.843l2.137 3.83zM10.534 8.683h2.843l-1.462 3.83h-3.52l2.139-3.83z" fill="#fff"/></g><defs><clipPath id="clip0"><path fill="#fff" transform="translate(7 7)" d="M0 0h17v17H0z"/></clipPath></defs></svg>