<svg width="25" height="25" fill="none" xmlns="http://www.w3.org/2000/svg"><g clip-path="url(#clip0)" fill="#BA0C2F"><path d="M22.107 8.843l-1.901-1.965.383-2.706a.775.775 0 00-.634-.872l-2.692-.472L15.98.412A.775.775 0 0014.956.08L12.5 1.28 10.044.08a.775.775 0 00-1.025.333L7.738 2.828 5.045 3.3a.775.775 0 00-.634.872l.383 2.706-1.901 1.965c-.29.3-.29.778 0 1.078l1.901 1.965-.383 2.708c-.058.414.222.8.634.872l2.155.377v8.382a.775.775 0 001.121.693l4.18-2.088 4.177 2.088a.775.775 0 001.122-.693v-8.382l2.155-.377a.775.775 0 00.634-.872l-.383-2.708 1.9-1.965a.775.775 0 000-1.078zm-9.26 12.427a.775.775 0 00-.693 0L8.75 22.971v-5.126l.269.508c.196.37.65.516 1.025.333l2.456-1.201 2.456 1.2a.774.774 0 001.025-.332l.269-.507v5.125l-3.403-1.701zm5.981-10.19a.775.775 0 00-.21.648l.33 2.34-2.326.408a.775.775 0 00-.551.4l-1.108 2.088-2.122-1.038a.776.776 0 00-.681 0l-2.123 1.038-1.108-2.087a.775.775 0 00-.55-.4l-2.328-.409.33-2.34a.775.775 0 00-.21-.648L4.528 9.382l1.643-1.698a.775.775 0 00.21-.648l-.33-2.339 2.328-.408a.775.775 0 00.55-.4L10.037 1.8l2.123 1.037a.775.775 0 00.68 0L14.963 1.8l1.108 2.088a.775.775 0 00.55.4l2.328.408-.331 2.34a.775.775 0 00.21.647l1.643 1.698-1.643 1.698z"/><path d="M12.5 4.083a5.306 5.306 0 00-5.3 5.299c0 2.923 2.377 5.3 5.3 5.3 2.922 0 5.3-2.377 5.3-5.3 0-2.922-2.378-5.3-5.3-5.3zm0 9.05a3.755 3.755 0 01-3.75-3.751 3.754 3.754 0 013.75-3.75 3.754 3.754 0 013.75 3.75 3.754 3.754 0 01-3.75 3.75z"/><path d="M14.08 7.416l-2.29 2.289-.87-.87A.775.775 0 109.823 9.93l1.42 1.418a.772.772 0 001.095 0l2.837-2.837a.775.775 0 10-1.096-1.096z"/></g><defs><clipPath id="clip0"><path fill="#fff" d="M0 0h25v25H0z"/></clipPath></defs></svg>