<svg width="40" height="45" fill="none" xmlns="http://www.w3.org/2000/svg"><path d="M37.617 33.387l2.22-6.262-1.194-.54-2.411 6.802h-.208v-8.71h-1.287V13.065h-2.573V10.16h-1.286v2.904H29.59V8.71h-1.287v4.354h-1.286v-2.903H25.73v2.904h-2.573v8.71h-2.573v3.722c-1.516-2.1-3.586-3.63-5.934-4.332l-.292-.988c.938-.292 1.708-1.04 2.094-2.032h.272c1.42 0 2.573-1.302 2.573-2.903v-3.63c.71 0 1.287-.65 1.287-1.45V8.71c0-.8-.577-1.452-1.287-1.452h-.111C18.57 3.078 15.402 0 11.579 0 7.756 0 4.587 3.077 3.972 7.258H3.86c-.71 0-1.287.651-1.287 1.452v1.451c0 .8.577 1.452 1.287 1.452v3.629c0 1.601 1.154 2.903 2.573 2.903h.273c.386.992 1.156 1.74 2.093 2.032l-.292.988C3.48 22.661 0 27.732 0 33.635v.478c0 3.095 1.572 5.778 3.86 7.103V45h19.298v-5.806h1.995c.3 1.654 1.598 2.903 3.152 2.903 1.553 0 2.852-1.25 3.15-2.903h3.23c2.582 0 4.766-2.087 5.19-4.961l.125-.846h-2.383zm-8.026 0V26.13h5.146v7.258h-5.146zm-5.146-18.87h9.006v10.16h-3.86v-2.903h-5.146v-7.258zm3.86 8.709v10.161h-6.433V23.226h6.433zm-7.72 4.845v5.316h-.208l-2.411-6.802-1.195.54 2.22 6.262H16.61l.124.846a6.26 6.26 0 001.278 2.994v6.321h-3.216v-1.451c1.064 0 1.93-.977 1.93-2.178 0-1.2-.866-2.177-1.93-2.177V22.737c2.452.88 4.527 2.779 5.79 5.334zm-7.54-7.748l.397 1.344-1.863 3.153-1.863-3.153.397-1.344h2.932zm.464 7.366l-1.133-1.6 1.133-1.917v3.517zm-3.86 0v-3.517l1.134 1.918-1.134 1.599zm0 2.323l1.93-2.722 1.93 2.722v6.406a1.728 1.728 0 00-.643-.128h-.754c-.515 0-1 .227-1.365.638l-.66.745-.438-.11v-7.55zm1.287 8.756l.72-.813a.606.606 0 01.456-.213h.754c.354 0 .643.326.643.726v.726h1.287c.354 0 .643.325.643.725 0 .4-.289.726-.643.726h-3.86v-1.877zm2.573 3.329v1.451h-3.86v-1.451h3.86zm3.216-25.404V13.79c.71 0 1.287.651 1.287 1.452 0 .8-.577 1.451-1.287 1.451zm1.287-3.95a2.333 2.333 0 00-1.287-.404v-.726h1.287v1.13zm-.131-5.485h-4.372V1.784c2.21.773 3.905 2.84 4.372 5.474zm-5.659-5.77v5.77h-1.286v-5.77a5.892 5.892 0 011.286 0zm-2.573.296v5.474H5.278c.467-2.633 2.162-4.701 4.371-5.474zM3.86 8.71H19.3v1.451H3.859V8.71zm2.574 2.903v.726c-.471 0-.907.154-1.287.403v-1.13h1.287zm-1.287 3.629c0-.8.577-1.452 1.287-1.452v2.904c-.71 0-1.287-.651-1.287-1.452zm2.573 1.451v-5.08h7.72v5.08c0 1.201-.866 2.178-1.93 2.178H9.65c-1.064 0-1.93-.977-1.93-2.177zm-6.432 17.42v-.478c0-5.051 2.871-9.412 7.076-10.908v14.514l-.698-.175c-1.483-.372-2.519-1.829-2.519-3.543v-3.04H3.86v3.04c0 2.4 1.45 4.439 3.526 4.96l2.263.567v1.595H7.076c-3.192 0-5.79-2.93-5.79-6.532zm3.86 7.675a6.31 6.31 0 001.93.309h1.286v1.451H5.146v-1.76zm14.151 1.76v-5.143a4.81 4.81 0 002.574.786v4.357H19.3zm9.007-2.903c-1.064 0-1.93-.977-1.93-2.177 0-.4.288-.726.643-.726h2.573c.354 0 .643.326.643.726 0 1.2-.866 2.177-1.93 2.177zm6.379-2.903h-3.282c-.266-.843-.974-1.452-1.812-1.452h-2.573c-.837 0-1.545.61-1.811 1.452h-3.282c-1.688 0-3.15-1.18-3.722-2.903h20.202c-.57 1.724-2.032 2.903-3.72 2.903z" fill="#BA0C2F"/><path d="M30.877 15.968h1.287v1.451h-1.287v-1.451zm-2.572 0h1.286v1.451h-1.286v-1.451zm-2.574 0h1.287v1.451h-1.287v-1.451zm5.146 2.902h1.287v1.452h-1.287v-1.451zm-5.146 0h1.287v1.452h-1.287v-1.451zm2.574 0h1.286v1.452h-1.286v-1.451zm2.572 2.904h1.287v1.451h-1.287v-1.45zm-7.719 2.903h1.287v7.258h-1.287v-7.258zm2.573 0h1.287v7.258h-1.287v-7.258zm5.146 2.903h2.574v1.452h-2.574V27.58zm0 2.904h2.574v1.451h-2.574v-1.45z" fill="#BA0C2F"/></svg>