<svg width="38" height="38" fill="none" xmlns="http://www.w3.org/2000/svg"><path d="M21.428 3.098l-1.244-2.5a.625.625 0 00-.559-.348h-1.25a.625.625 0 00-.56.346l-1.243 2.5a.611.611 0 00-.072.279V5.25h-1.636l-1.25 2.5h-2.739v7.5h-1.25v22.5h18.75v-22.5h-1.25v-7.5h-2.739l-1.25-2.5H21.5V3.375a.611.611 0 00-.072-.277zM18.761 1.5h.478l.625 1.25h-1.728l.625-1.25zM17.75 4h2.5v1.25h-2.5V4zm-3.125 32.5h-1.25v-1.25h1.25v1.25zm2.5 0h-1.25V34h-3.75v2.5h-1.25v-20h6.25v20zm7.5 0h-1.25v-1.25h1.25v1.25zm2.5 0h-1.25V34h-3.75v2.5h-1.25v-20h6.25v20zM25.875 9v6.25h-6.25V36.5h-1.25V15.25h-6.25V9h13.75zm-3.511-2.5l.625 1.25H15.01l.625-1.25h6.728z" fill="#BA0C2F"/><path d="M12.125 20.25h1.25v1.25h-1.25v-1.25zm2.5 0h1.25v1.25h-1.25v-1.25zm-2.5 2.5h1.25V24h-1.25v-1.25zm2.5 0h1.25V24h-1.25v-1.25zm-2.5 2.5h1.25v1.25h-1.25v-1.25zm2.5 0h1.25v1.25h-1.25v-1.25zm-2.5 2.5h1.25V29h-1.25v-1.25zm2.5 0h1.25V29h-1.25v-1.25zm-2.5 2.5h1.25v1.25h-1.25v-1.25zm2.5 0h1.25v1.25h-1.25v-1.25zm7.5-10h1.25v1.25h-1.25v-1.25zm2.5 0h1.25v1.25h-1.25v-1.25zm-12.5-2.5h1.25V19h-1.25v-1.25zm2.5 0h1.25V19h-1.25v-1.25zm7.5 0h1.25V19h-1.25v-1.25zm2.5 0h1.25V19h-1.25v-1.25zm-2.5 5h1.25V24h-1.25v-1.25zm2.5 0h1.25V24h-1.25v-1.25zm-2.5 2.5h1.25v1.25h-1.25v-1.25zm2.5 0h1.25v1.25h-1.25v-1.25zm-2.5 2.5h1.25V29h-1.25v-1.25zm2.5 0h1.25V29h-1.25v-1.25zm-2.5 2.5h1.25v1.25h-1.25v-1.25zm2.5 0h1.25v1.25h-1.25v-1.25zm-11.25-20h1.25v1.25h-1.25v-1.25zm2.5 0h1.25v1.25h-1.25v-1.25zm5 0h1.25v1.25h-1.25v-1.25zm2.5 0h1.25v1.25h-1.25v-1.25zm-5 0h1.25v1.25h-1.25v-1.25zm-5 2.5h1.25V14h-1.25v-1.25zm2.5 0h1.25V14h-1.25v-1.25zm5 0h1.25V14h-1.25v-1.25zm2.5 0h1.25V14h-1.25v-1.25zm-5 0h1.25V14h-1.25v-1.25zm16.875-10h-.194C34.488 1.49 33.32.875 31.5.875c-1.706 0-3.049.72-3.57 1.875h-.18a2.446 2.446 0 00-2.5 2.5v.625a.625.625 0 00.625.625h11.25a.625.625 0 00.625-.625V5.25a2.341 2.341 0 00-2.5-2.5zm-8.75 2.5A1.196 1.196 0 0127.75 4h.625a.625.625 0 00.609-.483c.24-1.028 1.505-1.392 2.516-1.392 1.83 0 2.296.688 2.528 1.438a.625.625 0 00.597.437h.625a1.12 1.12 0 011.25 1.25h-10zM.875 5.875h11.25a.625.625 0 00.625-.625v-.625a2.341 2.341 0 00-2.5-2.5h-.194C9.488.865 8.32.25 6.5.25c-1.706 0-3.049.72-3.57 1.875h-.18a2.446 2.446 0 00-2.5 2.5v.625a.625.625 0 00.625.625zm1.875-2.5h.625a.625.625 0 00.609-.483C4.224 1.864 5.489 1.5 6.5 1.5c1.83 0 2.296.688 2.528 1.438a.625.625 0 00.597.437h.625a1.12 1.12 0 011.25 1.25h-10a1.196 1.196 0 011.25-1.25z" fill="#BA0C2F"/></svg>