<svg width="108" height="16" viewBox="0 0 108 16" fill="none" xmlns="http://www.w3.org/2000/svg">
<path d="M15.1104 7.45779C15.2756 7.33473 15.3981 7.16307 15.4608 6.96686C15.5235 6.77065 15.5232 6.55974 15.46 6.36371C15.3968 6.16767 15.2738 5.99633 15.1083 5.87372C14.9427 5.75111 14.743 5.68337 14.5371 5.68001L10.5371 5.5289C10.5174 5.52754 10.4985 5.52053 10.4828 5.5087C10.467 5.49687 10.455 5.48073 10.4482 5.46223L9.06594 1.7289C8.9965 1.53896 8.87036 1.37495 8.70461 1.25908C8.53887 1.1432 8.34151 1.08105 8.13928 1.08105C7.93704 1.08105 7.73969 1.1432 7.57394 1.25908C7.4082 1.37495 7.28206 1.53896 7.21261 1.7289L5.83483 5.47557C5.82802 5.49407 5.81601 5.5102 5.80024 5.52203C5.78447 5.53386 5.76561 5.54088 5.74594 5.54223L1.74594 5.69335C1.53999 5.69671 1.34026 5.76444 1.17474 5.88705C1.00923 6.00966 0.886238 6.181 0.823016 6.37704C0.759794 6.57308 0.75951 6.78399 0.822205 6.98019C0.8849 7.1764 1.00743 7.34807 1.17261 7.47112L4.31039 9.93779C4.32609 9.95015 4.33783 9.96684 4.34415 9.9858C4.35047 10.0048 4.35109 10.0251 4.34594 10.0445L3.26594 13.8711C3.20998 14.066 3.2154 14.2734 3.28147 14.465C3.34754 14.6567 3.47106 14.8234 3.63521 14.9424C3.79936 15.0613 3.99619 15.1269 4.1989 15.13C4.40162 15.1332 4.60039 15.0738 4.76817 14.96L8.08372 12.7378C8.10005 12.7265 8.11943 12.7205 8.13928 12.7205C8.15913 12.7205 8.1785 12.7265 8.19483 12.7378L11.5104 14.96C11.6759 15.0777 11.874 15.141 12.0771 15.141C12.2802 15.141 12.4782 15.0777 12.6437 14.96C12.8079 14.8421 12.9315 14.6763 12.9976 14.4853C13.0637 14.2943 13.0689 14.0875 13.0126 13.8933L11.9237 10.0533C11.918 10.0341 11.9183 10.0135 11.9246 9.99439C11.931 9.9753 11.9431 9.95864 11.9593 9.94668L15.1104 7.45779Z" fill="#BA0C2F"/>
<path d="M38.1104 7.45779C38.2756 7.33473 38.3981 7.16307 38.4608 6.96686C38.5235 6.77065 38.5232 6.55974 38.46 6.36371C38.3968 6.16767 38.2738 5.99633 38.1083 5.87372C37.9427 5.75111 37.743 5.68337 37.5371 5.68001L33.5371 5.5289C33.5174 5.52754 33.4985 5.52053 33.4828 5.5087C33.467 5.49687 33.455 5.48073 33.4482 5.46223L32.0659 1.7289C31.9965 1.53896 31.8704 1.37495 31.7046 1.25908C31.5389 1.1432 31.3415 1.08105 31.1393 1.08105C30.937 1.08105 30.7397 1.1432 30.5739 1.25908C30.4082 1.37495 30.2821 1.53896 30.2126 1.7289L28.8348 5.47557C28.828 5.49407 28.816 5.5102 28.8002 5.52203C28.7845 5.53386 28.7656 5.54088 28.7459 5.54223L24.7459 5.69335C24.54 5.69671 24.3403 5.76444 24.1747 5.88705C24.0092 6.00966 23.8862 6.181 23.823 6.37704C23.7598 6.57308 23.7595 6.78399 23.8222 6.98019C23.8849 7.1764 24.0074 7.34807 24.1726 7.47112L27.3104 9.93779C27.3261 9.95015 27.3378 9.96684 27.3441 9.9858C27.3505 10.0048 27.3511 10.0251 27.3459 10.0445L26.2659 13.8711C26.21 14.066 26.2154 14.2734 26.2815 14.465C26.3475 14.6567 26.4711 14.8234 26.6352 14.9424C26.7994 15.0613 26.9962 15.1269 27.1989 15.13C27.4016 15.1332 27.6004 15.0738 27.7682 14.96L31.0837 12.7378C31.1001 12.7265 31.1194 12.7205 31.1393 12.7205C31.1591 12.7205 31.1785 12.7265 31.1948 12.7378L34.5104 14.96C34.6759 15.0777 34.874 15.141 35.0771 15.141C35.2802 15.141 35.4782 15.0777 35.6437 14.96C35.8079 14.8421 35.9315 14.6763 35.9976 14.4853C36.0637 14.2943 36.0689 14.0875 36.0126 13.8933L34.9237 10.0533C34.918 10.0341 34.9183 10.0135 34.9246 9.99439C34.931 9.9753 34.9431 9.95864 34.9593 9.94668L38.1104 7.45779Z" fill="#BA0C2F"/>
<path d="M61.1104 7.45779C61.2756 7.33473 61.3981 7.16307 61.4608 6.96686C61.5235 6.77065 61.5232 6.55974 61.46 6.36371C61.3968 6.16767 61.2738 5.99633 61.1083 5.87372C60.9427 5.75111 60.743 5.68337 60.5371 5.68001L56.5371 5.5289C56.5174 5.52754 56.4985 5.52053 56.4828 5.5087C56.467 5.49687 56.455 5.48073 56.4482 5.46223L55.0659 1.7289C54.9965 1.53896 54.8704 1.37495 54.7046 1.25908C54.5389 1.1432 54.3415 1.08105 54.1393 1.08105C53.937 1.08105 53.7397 1.1432 53.5739 1.25908C53.4082 1.37495 53.2821 1.53896 53.2126 1.7289L51.8348 5.47557C51.828 5.49407 51.816 5.5102 51.8002 5.52203C51.7845 5.53386 51.7656 5.54088 51.7459 5.54223L47.7459 5.69335C47.54 5.69671 47.3403 5.76444 47.1747 5.88705C47.0092 6.00966 46.8862 6.181 46.823 6.37704C46.7598 6.57308 46.7595 6.78399 46.8222 6.98019C46.8849 7.1764 47.0074 7.34807 47.1726 7.47112L50.3104 9.93779C50.3261 9.95015 50.3378 9.96684 50.3441 9.9858C50.3505 10.0048 50.3511 10.0251 50.3459 10.0445L49.2659 13.8711C49.21 14.066 49.2154 14.2734 49.2815 14.465C49.3475 14.6567 49.4711 14.8234 49.6352 14.9424C49.7994 15.0613 49.9962 15.1269 50.1989 15.13C50.4016 15.1332 50.6004 15.0738 50.7682 14.96L54.0837 12.7378C54.1001 12.7265 54.1194 12.7205 54.1393 12.7205C54.1591 12.7205 54.1785 12.7265 54.1948 12.7378L57.5104 14.96C57.6759 15.0777 57.874 15.141 58.0771 15.141C58.2802 15.141 58.4782 15.0777 58.6437 14.96C58.8079 14.8421 58.9315 14.6763 58.9976 14.4853C59.0637 14.2943 59.0689 14.0875 59.0126 13.8933L57.9237 10.0533C57.918 10.0341 57.9183 10.0135 57.9246 9.99439C57.931 9.9753 57.9431 9.95864 57.9593 9.94668L61.1104 7.45779Z" fill="#BA0C2F"/>
<path d="M84.1104 7.45779C84.2756 7.33473 84.3981 7.16307 84.4608 6.96686C84.5235 6.77065 84.5232 6.55974 84.46 6.36371C84.3968 6.16767 84.2738 5.99633 84.1083 5.87372C83.9427 5.75111 83.743 5.68337 83.5371 5.68001L79.5371 5.5289C79.5174 5.52754 79.4985 5.52053 79.4828 5.5087C79.467 5.49687 79.455 5.48073 79.4482 5.46223L78.0659 1.7289C77.9965 1.53896 77.8704 1.37495 77.7046 1.25908C77.5389 1.1432 77.3415 1.08105 77.1393 1.08105C76.937 1.08105 76.7397 1.1432 76.5739 1.25908C76.4082 1.37495 76.2821 1.53896 76.2126 1.7289L74.8348 5.47557C74.828 5.49407 74.816 5.5102 74.8002 5.52203C74.7845 5.53386 74.7656 5.54088 74.7459 5.54223L70.7459 5.69335C70.54 5.69671 70.3403 5.76444 70.1747 5.88705C70.0092 6.00966 69.8862 6.181 69.823 6.37704C69.7598 6.57308 69.7595 6.78399 69.8222 6.98019C69.8849 7.1764 70.0074 7.34807 70.1726 7.47112L73.3104 9.93779C73.3261 9.95015 73.3378 9.96684 73.3441 9.9858C73.3505 10.0048 73.3511 10.0251 73.3459 10.0445L72.2659 13.8711C72.21 14.066 72.2154 14.2734 72.2815 14.465C72.3475 14.6567 72.4711 14.8234 72.6352 14.9424C72.7994 15.0613 72.9962 15.1269 73.1989 15.13C73.4016 15.1332 73.6004 15.0738 73.7682 14.96L77.0837 12.7378C77.1001 12.7265 77.1194 12.7205 77.1393 12.7205C77.1591 12.7205 77.1785 12.7265 77.1948 12.7378L80.5104 14.96C80.6759 15.0777 80.874 15.141 81.0771 15.141C81.2802 15.141 81.4782 15.0777 81.6437 14.96C81.8079 14.8421 81.9315 14.6763 81.9976 14.4853C82.0637 14.2943 82.0689 14.0875 82.0126 13.8933L80.9237 10.0533C80.918 10.0341 80.9183 10.0135 80.9246 9.99439C80.931 9.9753 80.9431 9.95864 80.9593 9.94668L84.1104 7.45779Z" fill="#BA0C2F"/>
<path d="M104.084 15.1112C103.887 15.111 103.696 15.0522 103.533 14.9423L100.217 12.72C100.201 12.7088 100.181 12.7027 100.162 12.7027C100.142 12.7027 100.122 12.7088 100.106 12.72L96.7905 14.9423C96.624 15.0534 96.4277 15.1113 96.2275 15.1083C96.0273 15.1052 95.8328 15.0413 95.6698 14.9251C95.5068 14.8088 95.383 14.6458 95.3149 14.4575C95.2467 14.2693 95.2375 14.0648 95.2883 13.8712L96.3772 10.0312C96.3823 10.0118 96.3817 9.99145 96.3754 9.97249C96.3691 9.95353 96.3573 9.93684 96.3416 9.92448L93.2039 7.45782C93.0387 7.33476 92.9161 7.1631 92.8535 6.96689C92.7908 6.77068 92.791 6.55977 92.8543 6.36373C92.9175 6.1677 93.0405 5.99636 93.206 5.87375C93.3715 5.75114 93.5712 5.6834 93.7772 5.68004L97.7772 5.52893C97.7969 5.52757 97.8157 5.52055 97.8315 5.50873C97.8473 5.4969 97.8593 5.48076 97.8661 5.46226L99.2439 1.71559C99.3133 1.52566 99.4394 1.36165 99.6052 1.24577C99.7709 1.12989 99.9683 1.06775 100.171 1.06775C100.373 1.06775 100.57 1.12989 100.736 1.24577C100.902 1.36165 101.028 1.52566 101.097 1.71559L102.475 5.46226C102.482 5.48076 102.494 5.4969 102.51 5.50873C102.525 5.52055 102.544 5.52757 102.564 5.52893L106.564 5.68004C106.77 5.6834 106.97 5.75114 107.135 5.87375C107.301 5.99636 107.424 6.1677 107.487 6.36373C107.55 6.55977 107.55 6.77068 107.488 6.96689C107.425 7.1631 107.302 7.33476 107.137 7.45782L103.999 9.92448C103.983 9.93644 103.971 9.95311 103.965 9.9722C103.958 9.99129 103.958 10.0119 103.964 10.0312L105.053 13.8712C105.091 14.0184 105.095 14.1726 105.064 14.3215C105.033 14.4705 104.968 14.6104 104.874 14.7303C104.781 14.8502 104.661 14.9469 104.524 15.013C104.386 15.079 104.236 15.1126 104.084 15.1112ZM100.164 11.8134C100.361 11.8194 100.551 11.8844 100.711 12L104.026 14.2223C104.043 14.235 104.063 14.242 104.084 14.2422C104.106 14.2424 104.126 14.2357 104.143 14.2232C104.16 14.2107 104.173 14.193 104.179 14.1728C104.185 14.1526 104.184 14.131 104.177 14.1112L103.088 10.2712C103.035 10.0828 103.039 9.88269 103.1 9.69658C103.161 9.51047 103.276 9.34684 103.431 9.22671L106.568 6.76004C106.585 6.74802 106.598 6.73082 106.605 6.71098C106.611 6.69114 106.612 6.6697 106.605 6.6498C106.599 6.62991 106.586 6.61262 106.569 6.60046C106.552 6.5883 106.531 6.58192 106.511 6.58226L102.511 6.43115C102.315 6.42352 102.126 6.35772 101.967 6.24215C101.809 6.12658 101.689 5.96648 101.622 5.78226L100.244 2.03559C100.238 2.0157 100.225 1.99831 100.208 1.98597C100.192 1.97362 100.171 1.96696 100.151 1.96696C100.13 1.96696 100.109 1.97362 100.093 1.98597C100.076 1.99831 100.063 2.0157 100.057 2.03559L98.6928 5.77782C98.6258 5.96203 98.5055 6.12214 98.3472 6.23771C98.1889 6.35327 97.9997 6.41907 97.8039 6.42671L93.8039 6.57782C93.7829 6.57748 93.7625 6.58386 93.7455 6.59601C93.7284 6.60817 93.7158 6.62547 93.7093 6.64536C93.7028 6.66525 93.7029 6.68669 93.7095 6.70654C93.7162 6.72638 93.729 6.74357 93.7461 6.75559L96.8883 9.22671C97.0425 9.34723 97.1574 9.51089 97.2183 9.69687C97.2792 9.88285 97.2835 10.0827 97.2305 10.2712L96.1461 14.1112C96.1396 14.1304 96.1396 14.1512 96.146 14.1704C96.1524 14.1897 96.1649 14.2063 96.1816 14.2178C96.1977 14.2316 96.2182 14.2392 96.2394 14.2392C96.2606 14.2392 96.2811 14.2316 96.2972 14.2178L99.6128 11.9956C99.7748 11.8881 99.965 11.8309 100.159 11.8312L100.164 11.8134Z" fill="#25282B"/>
</svg>
