<svg xmlns="http://www.w3.org/2000/svg" viewBox="0 0 203.02 145.55"><defs><style>.cls-1,.cls-2{fill:#fff;}.cls-1{fill-rule:evenodd;}</style></defs><g id="Слой_2" data-name="Слой 2"><g id="Logos"><path class="cls-1" d="M91.38,104.16a60.87,60.87,0,0,1,10.19-9.66v5.69c-1.57,1.19-3.14,2.52-4.7,4Zm10.19-79.42V34.8A52.07,52.07,0,0,0,87.06,50.56v8.36A57.17,57.17,0,0,1,101.57,42.8v6.75A52.24,52.24,0,0,0,87.06,65.32v8.11a59.94,59.94,0,0,1,14.51-15.8V64A53.9,53.9,0,0,0,87.06,79.83v6.58a64.11,64.11,0,0,1,14.51-15.56v6.32A64.52,64.52,0,0,0,87.06,92.8v5.78a65.07,65.07,0,0,1,14.51-15.46v5.7a67.17,67.17,0,0,0-14.51,15.34H76.5l-8.21-66.3,18.77.39A46.63,46.63,0,0,1,101.57,24.74Zm32.58,25.88c4-25.37-12.79-45.89-30.62-50.62V33c16.9-8.52,30.36-.21,30.62,17.64m-30.62-2.35C117.18,40,131.47,43.09,133,63.11,135.77,38.75,119.9,31,103.53,41.46Zm0,14.43C116,55,128.92,56.92,131.2,74.91c2.4-22.67-12.2-28.59-27.67-18.63Zm0,13.07c12.33-8.3,24.52-7.6,26.07,9.65,2.19-21.19-11.3-25.67-26.07-15.94Zm0,11.66c12.3-8.29,24.13-7.55,25.09,9.61,2-20.53-10.77-24.73-25.09-15.3Zm0,11.33c11.26-7.76,21.76-8,23.55,5.4h.44c.42-16.65-11-19.57-24-11Zm8.93,5.4c3.3-1,6.3-1.09,8.73,0h4.59c-3.64-7.43-12.49-7.47-22.25-1.07v1.07Z"/><path class="cls-2" d="M27.3,132.69,14.08,120.83h8.63a2.28,2.28,0,0,0,1.67-.59,1.87,1.87,0,0,0,.54-1.28,1.91,1.91,0,0,0-.54-1.29,2.25,2.25,0,0,0-1.67-.58H11.82v15.6H0V112.4H32.12a6.36,6.36,0,0,1,2.33.46,6.29,6.29,0,0,1,3.23,3.32,6.75,6.75,0,0,1,.46,2.49,6.6,6.6,0,0,1-.46,2.49,5.93,5.93,0,0,1-1.29,2,6.17,6.17,0,0,1-1.9,1.28,6.57,6.57,0,0,1-2.37.46H30.17l9.22,7.84Zm47.16-15.6H57.85a5.14,5.14,0,0,0-3.77,1.54,5.32,5.32,0,0,0-1.59,3.94,5.83,5.83,0,0,0,.43,2.2,5,5,0,0,0,1.16,1.78,4.55,4.55,0,0,0,1.67,1.2,5.22,5.22,0,0,0,2.1.46H78.31l-3.81,4.48h-25a8.8,8.8,0,0,1-3.73-.83,9.41,9.41,0,0,1-3-2.16,9.6,9.6,0,0,1-2.06-3.23,10.57,10.57,0,0,1,0-8,9.84,9.84,0,0,1,2.06-3.19,10.13,10.13,0,0,1,3-2.12,8.77,8.77,0,0,1,3.73-.79H78.27Zm-17.07,3.74h15.2l-3.23,4H53.69Zm35.88,11.86v-15.6h9.84a5.25,5.25,0,0,1,3.81,1.58,5.51,5.51,0,0,1,1.56,4,5.27,5.27,0,0,1-1.6,3.94,5.41,5.41,0,0,1-3.85,1.58H97.55l-3.81,4.48h16.33a8.41,8.41,0,0,0,3.65-.83,9.47,9.47,0,0,0,3-2.24,11.71,11.71,0,0,0,2-3.28,10.36,10.36,0,0,0,.74-4,10,10,0,0,0-.74-3.94,11.15,11.15,0,0,0-2-3.15,10.66,10.66,0,0,0-3-2.12,9,9,0,0,0-3.65-.75H81.37v20.29Zm62.2-15.6H138.72a5,5,0,0,0-3.74,1.54,5.32,5.32,0,0,0-1.51,3.9,5.78,5.78,0,0,0,1.51,4,4.82,4.82,0,0,0,3.74,1.66h20.84l-3.89,4.48H131.91a8.77,8.77,0,0,1-3.73-.83,9.06,9.06,0,0,1-3-2.24,9.34,9.34,0,0,1-2.06-3.28,10.38,10.38,0,0,1-.78-4,10,10,0,0,1,.78-3.94,9.26,9.26,0,0,1,2.06-3.15,10.13,10.13,0,0,1,3-2.12,9.34,9.34,0,0,1,3.73-.75h27.61Zm41.8,14.73a9.6,9.6,0,0,0,3-2.28,11.13,11.13,0,0,0,2-3.36,11,11,0,0,0,.73-4,10,10,0,0,0-.73-3.9,10.43,10.43,0,0,0-2-3.11,9.48,9.48,0,0,0-3-2,9.7,9.7,0,0,0-3.66-.71h-21.3a9.32,9.32,0,0,0-6.81,2.78,9.43,9.43,0,0,0-2.1,3.12,10,10,0,0,0-.78,3.89,11.63,11.63,0,0,0,.78,4.24,9.87,9.87,0,0,0,2.06,3.31,9.6,9.6,0,0,0,6.85,2.95h21.23A8.23,8.23,0,0,0,197.27,131.82Zm-21.39-5.19a5.27,5.27,0,0,1-1.63-4,6,6,0,0,1,.43-2.2,5.37,5.37,0,0,1,1.2-1.74,5.61,5.61,0,0,1,1.72-1.2,5.14,5.14,0,0,1,2.09-.42h6.73a5.34,5.34,0,0,1,2.14.42,6.1,6.1,0,0,1,1.71,1.12,4.46,4.46,0,0,1,1.17,1.7,5.82,5.82,0,0,1,.39,2.2,5.61,5.61,0,0,1-1.56,4.06,5.13,5.13,0,0,1-3.81,1.62h-6.73A5.29,5.29,0,0,1,175.88,126.63Z"/><path class="cls-2" d="M6.46,145.55l-2.61-4.49H5.56a.38.38,0,0,0,.33-.22,1.09,1.09,0,0,0,.1-.48,1.13,1.13,0,0,0-.1-.49.37.37,0,0,0-.33-.22H3.41v5.9H1.08v-7.67H7.41a.75.75,0,0,1,.46.17,1.7,1.7,0,0,1,.38.51,3,3,0,0,1,.26.75,4.76,4.76,0,0,1,.09.94,4.69,4.69,0,0,1-.09.94,3.38,3.38,0,0,1-.25.74,1.55,1.55,0,0,1-.38.48.8.8,0,0,1-.47.17H7l1.82,3Zm10.59-5.9H13.78c-.3,0-.54.19-.75.58a3.29,3.29,0,0,0-.31,1.49,4.33,4.33,0,0,0,.08.83,2.7,2.7,0,0,0,.23.68,1.23,1.23,0,0,0,.33.45.64.64,0,0,0,.42.17h4l-.75,1.7H12.14a1.08,1.08,0,0,1-.74-.32,2.59,2.59,0,0,1-.6-.81,4.93,4.93,0,0,1-.41-1.23,7.86,7.86,0,0,1-.15-1.5,7.94,7.94,0,0,1,.15-1.5A4.77,4.77,0,0,1,10.8,139a2.66,2.66,0,0,1,.6-.8,1.1,1.1,0,0,1,.74-.3H17.8Zm-3.37,1.41h3l-.63,1.51H13ZM20,138.43a2.86,2.86,0,0,0-.29,1.35v5.77h2.35V140.5c0-.56.11-.85.35-.85H25v1.41H22.85l-.71,1.51H25v3h2.35v-7.67h-6.7C20.39,137.88,20.17,138.07,20,138.43Zm9.27-.55h2.35v6h4.86l-.77,1.7H29.26Zm19.3,1.77H45.28c-.29,0-.54.19-.74.58a3.16,3.16,0,0,0-.32,1.49,3.64,3.64,0,0,0,.09.83,2.36,2.36,0,0,0,.23.68,1.23,1.23,0,0,0,.33.45.64.64,0,0,0,.41.17h4l-.75,1.7H43.64a1.09,1.09,0,0,1-.74-.32,2.57,2.57,0,0,1-.59-.81,4.93,4.93,0,0,1-.41-1.23,7.58,7.58,0,0,1,0-3,4.77,4.77,0,0,1,.41-1.21,2.64,2.64,0,0,1,.59-.8,1.12,1.12,0,0,1,.74-.3h5.67Zm-3.37,1.41h3l-.64,1.51H44.46Zm6.33-2.55a1,1,0,0,1,.88-.63h5.91l-.82,1.77H53.92a.28.28,0,0,0-.27.22,1.13,1.13,0,0,0-.09.49,1.46,1.46,0,0,0,.1.48.31.31,0,0,0,.27.22h3.81a.94.94,0,0,1,.81.61,3.76,3.76,0,0,1,.31,1.63,3.69,3.69,0,0,1-.31,1.63.94.94,0,0,1-.81.62H51.27l.74-1.7h4.3c.1,0,.17-.06.22-.2a1.42,1.42,0,0,0,0-.88c-.05-.14-.12-.2-.21-.2H52.38a.73.73,0,0,1-.45-.16,1.32,1.32,0,0,1-.38-.45,3.19,3.19,0,0,1-.25-.72,4.88,4.88,0,0,1-.09-1A4.19,4.19,0,0,1,51.52,138.51Zm16-.63H60.88l-.81,1.77h2.61v5.9H65v-5.9H66.7Zm2,.55a3,3,0,0,0-.28,1.35v5.77h2.35V140.5c0-.56.11-.85.35-.85h2.61v1.41H72.38l-.7,1.51h2.87v3H76.9v-7.67H70.2C69.93,137.88,69.71,138.07,69.52,138.43Zm16.69-.55H79.6l-.81,1.77h2.6v5.9h2.37v-5.9h1.66Zm8,1.77H90.92c-.29,0-.53.19-.74.58a3.16,3.16,0,0,0-.31,1.49,4.33,4.33,0,0,0,.08.83,2.36,2.36,0,0,0,.23.68,1.23,1.23,0,0,0,.33.45.64.64,0,0,0,.41.17h4l-.75,1.7H89.28a1.07,1.07,0,0,1-.73-.32,2.59,2.59,0,0,1-.6-.81,4.93,4.93,0,0,1-.41-1.23,7.58,7.58,0,0,1,0-3A4.77,4.77,0,0,1,88,139a2.66,2.66,0,0,1,.6-.8,1.09,1.09,0,0,1,.73-.3H95Zm-3.37,1.41h3l-.64,1.51H90.1Zm11.94,4.49v-5.9h1.94c.29,0,.54.21.75.6a3.29,3.29,0,0,1,.31,1.52,3.1,3.1,0,0,1-.32,1.49c-.21.39-.46.59-.76.59h-1.08l-.75,1.7h3.22a1,1,0,0,0,.72-.32,2.37,2.37,0,0,0,.59-.84,6.23,6.23,0,0,0,.4-1.24,8,8,0,0,0,.14-1.51,7.78,7.78,0,0,0-.14-1.49,5.93,5.93,0,0,0-.4-1.19,2.6,2.6,0,0,0-.59-.8,1.12,1.12,0,0,0-.72-.28h-5.66v7.67Zm13.69-5.9h-3.28c-.29,0-.53.19-.74.58a3.16,3.16,0,0,0-.32,1.49,4.31,4.31,0,0,0,.09.83,2.36,2.36,0,0,0,.23.68,1.23,1.23,0,0,0,.33.45.64.64,0,0,0,.41.17h4l-.76,1.7h-4.92a1.07,1.07,0,0,1-.73-.32,2.59,2.59,0,0,1-.6-.81,4.93,4.93,0,0,1-.41-1.23,7.58,7.58,0,0,1,0-3,4.77,4.77,0,0,1,.41-1.21,2.66,2.66,0,0,1,.6-.8,1.09,1.09,0,0,1,.73-.3h5.67Zm-3.37,1.41h3l-.64,1.51h-3.09Zm13.71-3.18h-2.3l-1.47,5-1.59-5H119.1l2.43,7.67h2.91Zm8,1.77h-3.27c-.3,0-.54.19-.75.58a3.29,3.29,0,0,0-.31,1.49,4.33,4.33,0,0,0,.08.83,2.7,2.7,0,0,0,.23.68,1.23,1.23,0,0,0,.33.45.64.64,0,0,0,.42.17h4l-.75,1.7h-4.93a1.07,1.07,0,0,1-.73-.32,2.59,2.59,0,0,1-.6-.81,5.37,5.37,0,0,1-.41-1.23,7.86,7.86,0,0,1-.15-1.5,7.94,7.94,0,0,1,.15-1.5,5.2,5.2,0,0,1,.41-1.21,2.66,2.66,0,0,1,.6-.8,1.09,1.09,0,0,1,.73-.3h5.67Zm-3.37,1.41h3l-.63,1.51h-3.09Zm6-3.18h2.35v6h4.86l-.77,1.7H137.5Zm15.94,7.34a2.89,2.89,0,0,0,.59-.86,5.93,5.93,0,0,0,.4-1.27,7.54,7.54,0,0,0,.15-1.52,6.87,6.87,0,0,0-.15-1.48,5.17,5.17,0,0,0-.39-1.17,2.53,2.53,0,0,0-.59-.77,1.19,1.19,0,0,0-.72-.27h-4.2a1.25,1.25,0,0,0-.74.27,2.45,2.45,0,0,0-.6.78,4.4,4.4,0,0,0-.42,1.18,6.78,6.78,0,0,0-.15,1.47,8,8,0,0,0,.15,1.6,4.83,4.83,0,0,0,.41,1.25,2.23,2.23,0,0,0,.61.82,1.12,1.12,0,0,0,.74.3h4.18A1,1,0,0,0,153.44,145.22Zm-4.21-2a3.07,3.07,0,0,1-.33-1.51,3.77,3.77,0,0,1,.09-.83,2.44,2.44,0,0,1,.24-.66,1.42,1.42,0,0,1,.33-.45.63.63,0,0,1,.42-.16h1.32a.63.63,0,0,1,.42.16,1.6,1.6,0,0,1,.34.42,2.19,2.19,0,0,1,.23.64,3.74,3.74,0,0,1,.08.84,3.34,3.34,0,0,1-.31,1.53c-.21.41-.46.61-.75.61H150C149.69,143.85,149.43,143.65,149.23,143.26Zm9.54,2.29h-2.29v-7.67h5.93a1.2,1.2,0,0,1,1.14.72,4.09,4.09,0,0,1,.34,1.76,3.1,3.1,0,0,1-.4,1.57,1.22,1.22,0,0,1-1.08.64h-3.49l.71-1.51h1.7a.28.28,0,0,0,.26-.22,1.24,1.24,0,0,0,.09-.48,1.3,1.3,0,0,0-.09-.49.28.28,0,0,0-.26-.22h-2.56Zm9.36,0v-4.63l1.73,3.34,1.69-3.34v4.63h2.29v-7.67h-2.15l-1.83,3.62L168,137.88h-2.21v7.67Zm14.23-5.9h-3.28c-.29,0-.54.19-.74.58a3.16,3.16,0,0,0-.32,1.49,3.64,3.64,0,0,0,.09.83,2.36,2.36,0,0,0,.23.68,1.23,1.23,0,0,0,.33.45.64.64,0,0,0,.41.17h4l-.75,1.7h-4.92a1.09,1.09,0,0,1-.74-.32,2.74,2.74,0,0,1-.59-.81,4.93,4.93,0,0,1-.41-1.23,7.57,7.57,0,0,1,0-3,4.77,4.77,0,0,1,.41-1.21,2.82,2.82,0,0,1,.59-.8,1.12,1.12,0,0,1,.74-.3h5.67ZM179,141.06h3l-.64,1.51h-3.09Zm6,4.49h2.29v-4.8l3.08,4.8h2.26v-7.67h-2.36v4.66l-3.05-4.66H185ZM202,137.88h-6.61l-.81,1.77h2.61v5.9h2.36v-5.9h1.66Z"/></g></g></svg>