<?xml version="1.0" encoding="UTF-8"?>
<svg xmlns="http://www.w3.org/2000/svg" xmlns:xlink="http://www.w3.org/1999/xlink" width="60pt" height="45pt" viewBox="0 0 60 45" version="1.1">
<g id="surface1">
<rect x="0" y="0" width="60" height="45" style="fill:rgb(100%,100%,100%);fill-opacity:1;stroke:none;"/>
<path style=" stroke:none;fill-rule:nonzero;fill:rgb(100%,0%,0%);fill-opacity:1;" d="M 25.5 0 L 34.5 0 L 34.5 45 L 25.5 45 Z M 25.5 0 "/>
<path style=" stroke:none;fill-rule:nonzero;fill:rgb(100%,0%,0%);fill-opacity:1;" d="M 0 18 L 60 18 L 60 27 L 0 27 Z M 0 18 "/>
<path style=" stroke:none;fill-rule:evenodd;fill:rgb(100%,0%,0%);fill-opacity:1;" d="M 13.761719 34.976562 C 13.855469 33.402344 14.136719 32.0625 14.136719 32.0625 C 14.136719 32.0625 13.21875 32.15625 12.75 32.15625 C 12.289062 32.15625 11.363281 32.0625 11.363281 32.0625 C 11.363281 32.0625 11.644531 33.402344 11.738281 34.988281 C 10.152344 34.894531 8.8125 34.613281 8.8125 34.613281 C 8.8125 34.613281 8.90625 35.304688 8.90625 36 C 8.90625 36.695312 8.8125 37.386719 8.8125 37.386719 C 8.8125 37.386719 10.152344 37.105469 11.738281 37.011719 C 11.644531 38.597656 11.363281 39.9375 11.363281 39.9375 C 11.363281 39.9375 12.054688 39.84375 12.75 39.84375 C 13.445312 39.84375 14.136719 39.9375 14.136719 39.9375 C 14.136719 39.9375 13.855469 38.597656 13.761719 37.011719 C 15.347656 37.105469 16.6875 37.386719 16.6875 37.386719 C 16.6875 37.386719 16.59375 36.46875 16.59375 36 C 16.59375 35.539062 16.6875 34.613281 16.6875 34.613281 C 16.6875 34.613281 15.347656 34.894531 13.773438 34.988281 Z M 48.261719 7.976562 C 48.355469 6.402344 48.636719 5.0625 48.636719 5.0625 C 48.636719 5.0625 47.71875 5.15625 47.25 5.15625 C 46.789062 5.15625 45.863281 5.0625 45.863281 5.0625 C 45.863281 5.0625 46.144531 6.402344 46.238281 7.976562 C 44.652344 7.882812 43.3125 7.613281 43.3125 7.613281 C 43.3125 7.613281 43.40625 8.304688 43.40625 9 C 43.40625 9.695312 43.3125 10.386719 43.3125 10.386719 C 43.3125 10.386719 44.652344 10.105469 46.238281 10.011719 C 46.144531 11.597656 45.863281 12.9375 45.863281 12.9375 C 45.863281 12.9375 46.554688 12.84375 47.25 12.84375 C 47.945312 12.84375 48.636719 12.9375 48.636719 12.9375 C 48.636719 12.9375 48.355469 11.597656 48.261719 10.023438 C 49.847656 10.117188 51.1875 10.398438 51.1875 10.398438 C 51.1875 10.398438 51.09375 9.460938 51.09375 9 C 51.09375 8.539062 51.1875 7.613281 51.1875 7.613281 C 51.1875 7.613281 49.847656 7.894531 48.261719 7.988281 Z M 13.761719 7.976562 C 13.855469 6.402344 14.136719 5.0625 14.136719 5.0625 C 14.136719 5.0625 13.21875 5.15625 12.75 5.15625 C 12.289062 5.15625 11.363281 5.0625 11.363281 5.0625 C 11.363281 5.0625 11.644531 6.402344 11.738281 7.988281 C 10.152344 7.894531 8.8125 7.613281 8.8125 7.613281 C 8.8125 7.613281 8.90625 8.304688 8.90625 9 C 8.90625 9.695312 8.8125 10.386719 8.8125 10.386719 C 8.8125 10.386719 10.152344 10.105469 11.738281 10.011719 C 11.644531 11.597656 11.363281 12.9375 11.363281 12.9375 C 11.363281 12.9375 12.054688 12.84375 12.75 12.84375 C 13.445312 12.84375 14.136719 12.9375 14.136719 12.9375 C 14.136719 12.9375 13.855469 11.597656 13.761719 10.011719 C 15.347656 10.105469 16.6875 10.386719 16.6875 10.386719 C 16.6875 10.386719 16.59375 9.46875 16.59375 9 C 16.59375 8.539062 16.6875 7.613281 16.6875 7.613281 C 16.6875 7.613281 15.347656 7.894531 13.773438 7.988281 Z M 48.261719 34.976562 C 48.355469 33.402344 48.636719 32.0625 48.636719 32.0625 C 48.636719 32.0625 47.71875 32.15625 47.25 32.15625 C 46.789062 32.15625 45.863281 32.0625 45.863281 32.0625 C 45.863281 32.0625 46.144531 33.402344 46.238281 34.988281 C 44.652344 34.894531 43.3125 34.613281 43.3125 34.613281 C 43.3125 34.613281 43.40625 35.304688 43.40625 36 C 43.40625 36.695312 43.3125 37.386719 43.3125 37.386719 C 43.3125 37.386719 44.652344 37.105469 46.238281 37.011719 C 46.144531 38.597656 45.863281 39.9375 45.863281 39.9375 C 45.863281 39.9375 46.554688 39.84375 47.25 39.84375 C 47.945312 39.84375 48.636719 39.9375 48.636719 39.9375 C 48.636719 39.9375 48.355469 38.597656 48.261719 37.011719 C 49.847656 37.105469 51.1875 37.386719 51.1875 37.386719 C 51.1875 37.386719 51.09375 36.46875 51.09375 36 C 51.09375 35.539062 51.1875 34.613281 51.1875 34.613281 C 51.1875 34.613281 49.847656 34.894531 48.261719 34.988281 Z M 48.261719 34.976562 "/>
</g>
</svg>
