<svg width="20" height="20" viewBox="0 0 20 20" fill="none" xmlns="http://www.w3.org/2000/svg">
<path d="M19.1016 11.2109C19.1276 10.9896 19.1504 10.7682 19.1699 10.5469C19.1895 10.3255 19.1992 10.1042 19.1992 9.88281C19.1992 8.61979 18.9518 7.41536 18.457 6.26953C17.9622 5.1237 17.3014 4.13737 16.4746 3.31055C15.6478 2.48372 14.6615 1.82617 13.5156 1.33789C12.3698 0.849609 11.1719 0.605469 9.92188 0.605469C9.50521 0.605469 9.07552 0.63151 8.63281 0.683594C7.77344 0.227865 6.85547 0 5.87891 0C4.27734 0 2.91016 0.566406 1.77734 1.69922C0.644531 2.83203 0.078125 4.19922 0.078125 5.80078C0.078125 6.76432 0.299479 7.66276 0.742188 8.49609C0.716146 8.73047 0.693359 8.96159 0.673828 9.18945C0.654297 9.41732 0.644531 9.64844 0.644531 9.88281C0.644531 10.8854 0.800781 11.8587 1.11328 12.8027C1.42578 13.7467 1.86849 14.5996 2.44141 15.3613C3.01432 16.123 3.68164 16.7904 4.44336 17.3633C5.20508 17.9362 6.05794 18.3789 7.00195 18.6914C7.94596 19.0039 8.91927 19.1602 9.92188 19.1602C10.1042 19.1602 10.2865 19.1536 10.4688 19.1406C10.651 19.1276 10.8268 19.1081 10.9961 19.082C11.9466 19.694 12.9883 20 14.1211 20C15.7227 20 17.0898 19.4336 18.2227 18.3008C19.3555 17.168 19.9219 15.8008 19.9219 14.1992C19.9219 13.1315 19.6484 12.1354 19.1016 11.2109ZM17.2852 17.3633C16.8555 17.7799 16.3704 18.1022 15.8301 18.3301C15.2897 18.5579 14.7201 18.6719 14.1211 18.6719C13.2227 18.6719 12.4023 18.4245 11.6602 17.9297L11.3281 17.7148L10.9375 17.7539C10.612 17.806 10.2734 17.832 9.92188 17.832C8.84115 17.832 7.8125 17.6237 6.83594 17.207C5.88542 16.8034 5.04232 16.2337 4.30664 15.498C3.57096 14.7624 3.0013 13.9193 2.59766 12.9688C2.18099 11.9922 1.97266 10.9635 1.97266 9.88281C1.97266 9.45312 2.00521 9.02995 2.07031 8.61328L2.12891 8.26172L1.95312 7.94922C1.77083 7.6237 1.63411 7.27865 1.54297 6.91406C1.45182 6.54948 1.40625 6.17839 1.40625 5.80078C1.40625 4.5638 1.84245 3.50911 2.71484 2.63672C3.14453 2.20703 3.62956 1.88151 4.16992 1.66016C4.71029 1.4388 5.27995 1.32812 5.87891 1.32812C6.25651 1.32812 6.63086 1.37695 7.00195 1.47461C7.37305 1.57227 7.72786 1.71224 8.06641 1.89453L8.37891 2.07031L8.75 2.01172C8.93229 1.98568 9.12435 1.96615 9.32617 1.95312C9.528 1.9401 9.72656 1.93359 9.92188 1.93359C11.0026 1.93359 12.0312 2.14193 13.0078 2.55859C13.9583 2.96224 14.8047 3.52865 15.5469 4.25781C15.9115 4.6224 16.237 5.01628 16.5234 5.43945C16.8099 5.86263 17.0508 6.3151 17.2461 6.79688C17.6628 7.77344 17.8711 8.80208 17.8711 9.88281C17.8711 10.013 17.8678 10.1497 17.8613 10.293C17.8548 10.4362 17.8451 10.5762 17.832 10.7129C17.819 10.8496 17.7995 10.9831 17.7734 11.1133L17.7148 11.5039L17.9297 11.8359C18.151 12.2005 18.3171 12.5814 18.4277 12.9785C18.5384 13.3757 18.5938 13.7826 18.5938 14.1992C18.5938 15.4362 18.1576 16.4909 17.2852 17.3633ZM11.3086 9.02344L9.43359 8.59375C8.91276 8.47656 8.52539 8.33008 8.27148 8.1543C8.01758 7.97852 7.89062 7.76693 7.89062 7.51953C7.89062 7.35026 7.92643 7.19727 7.99805 7.06055C8.06966 6.92383 8.17708 6.79688 8.32031 6.67969C8.59375 6.47135 8.99089 6.36719 9.51172 6.36719C9.8112 6.36719 10.0814 6.39974 10.3223 6.46484C10.5632 6.52995 10.7812 6.6276 10.9766 6.75781C11.0807 6.82292 11.3151 7.05078 11.6797 7.44141C11.9271 7.70182 12.1875 7.83203 12.4609 7.83203C12.5911 7.83203 12.7181 7.8125 12.8418 7.77344C12.9655 7.73438 13.0794 7.67578 13.1836 7.59766C13.3789 7.44141 13.4766 7.22005 13.4766 6.93359C13.4766 6.30859 13.0599 5.76823 12.2266 5.3125C11.4453 4.86979 10.5859 4.64844 9.64844 4.64844C9.11458 4.64844 8.62305 4.70378 8.17383 4.81445C7.72461 4.92513 7.32422 5.09766 6.97266 5.33203C6.55599 5.60547 6.24349 5.93424 6.03516 6.31836C5.82682 6.70247 5.72266 7.14844 5.72266 7.65625C5.72266 9.04948 6.52344 9.94792 8.125 10.3516L10.6641 10.9961C11.3021 11.1523 11.6211 11.4909 11.6211 12.0117C11.6211 12.3633 11.4648 12.6628 11.1523 12.9102C10.8138 13.1836 10.3711 13.3203 9.82422 13.3203C9.17318 13.3203 8.65234 13.1641 8.26172 12.8516C8.17057 12.7865 7.92318 12.5065 7.51953 12.0117C7.25911 11.6992 6.97266 11.543 6.66016 11.543C6.38672 11.543 6.15885 11.6276 5.97656 11.7969C5.88542 11.888 5.82031 11.9889 5.78125 12.0996C5.74219 12.2103 5.72266 12.3372 5.72266 12.4805C5.72266 13.0924 6.05469 13.6328 6.71875 14.1016C7.48698 14.6745 8.52214 14.9609 9.82422 14.9609C10.4753 14.9609 11.0547 14.8861 11.5625 14.7363C12.0703 14.5866 12.5 14.362 12.8516 14.0625C13.5286 13.5156 13.8672 12.7799 13.8672 11.8555C13.8802 10.3581 13.0273 9.41406 11.3086 9.02344Z" fill="#BA0C2F"/>
</svg>
