<svg width="17" height="16" viewBox="0 0 17 16" fill="none" xmlns="http://www.w3.org/2000/svg">
<path d="M15.2935 0.497588C15.0929 0.512185 14.8959 0.559256 14.7104 0.636963H14.7079C14.5298 0.707588 13.6829 1.06384 12.3954 1.60384L7.78164 3.54696C4.47102 4.94071 1.21664 6.31321 1.21664 6.31321L1.25539 6.29821C1.25539 6.29821 1.03102 6.37196 0.796644 6.53259C0.651849 6.62473 0.527252 6.74528 0.430394 6.88696C0.315394 7.05571 0.222894 7.31384 0.257269 7.58071C0.313519 8.03196 0.606019 8.30259 0.816019 8.45196C1.02852 8.60321 1.23102 8.67384 1.23102 8.67384H1.23602L4.28789 9.70196C4.42477 10.1413 5.21789 12.7488 5.40852 13.3495C5.52102 13.7082 5.63039 13.9326 5.76727 14.1038C5.83352 14.1913 5.91102 14.2645 6.00414 14.3232C6.05256 14.3514 6.10418 14.3736 6.15789 14.3895L6.12664 14.382C6.13602 14.3845 6.14352 14.392 6.15039 14.3945C6.17539 14.4013 6.19227 14.4038 6.22414 14.4088C6.70727 14.5551 7.09539 14.2551 7.09539 14.2551L7.11727 14.2376L8.91914 12.597L11.9391 14.9138L12.0079 14.9432C12.6373 15.2195 13.2748 15.0657 13.6116 14.7945C13.951 14.5213 14.0829 14.172 14.0829 14.172L14.1048 14.1157L16.4385 2.16009C16.5048 1.86509 16.5216 1.58884 16.4485 1.32071C16.3731 1.04935 16.199 0.815967 15.9604 0.666338C15.76 0.544535 15.5277 0.485743 15.2935 0.497588ZM15.2304 1.77884C15.2279 1.81821 15.2354 1.81384 15.2179 1.88946V1.89634L12.906 13.7276C12.896 13.7445 12.8791 13.7813 12.8329 13.8182C12.7841 13.857 12.7454 13.8813 12.5423 13.8007L8.84852 10.9688L6.61727 13.0026L7.08602 10.0088L13.121 4.38384C13.3698 4.15259 13.2866 4.10384 13.2866 4.10384C13.3041 3.82009 12.911 4.02071 12.911 4.02071L5.30102 8.73509L5.29852 8.72259L1.65102 7.49446V7.49196L1.64164 7.49009C1.64804 7.48797 1.6543 7.48546 1.66039 7.48259L1.68039 7.47259L1.69977 7.46571C1.69977 7.46571 4.95664 6.09321 8.26727 4.69946C9.92477 4.00134 11.5948 3.29821 12.8791 2.75571C14.1635 2.21634 15.1129 1.82071 15.1666 1.79946C15.2179 1.77946 15.1935 1.77946 15.2304 1.77946V1.77884Z" fill="#BA0C2F"/>
</svg>
