<svg width="16" height="16" viewBox="0 0 16 16" fill="none" xmlns="http://www.w3.org/2000/svg">
<path d="M15.5 15.5H15C12.9448 15.4999 10.9586 14.759 9.40547 13.4131L8.87963 12.9573C8.58728 12.9857 8.29373 13 8 13C6.01478 13 4.14422 12.3615 2.73288 11.2022C1.29297 10.0195 0.5 8.43828 0.5 6.75C0.5 5.06172 1.29297 3.48053 2.73288 2.29778C4.14422 1.13847 6.01478 0.5 8 0.5C9.98522 0.5 11.8558 1.13847 13.2671 2.29778C14.707 3.48053 15.5 5.06172 15.5 6.75C15.4993 7.64744 15.2728 8.53029 14.8413 9.31722C14.4668 10.0026 13.9681 10.6123 13.3706 11.1152C13.8171 12.2507 14.492 13.2825 15.3535 14.1465L15.5 14.2929V15.5ZM9.20175 11.9132L10.0604 12.6574C11.2447 13.6837 12.7192 14.3157 14.2792 14.4655C13.4185 13.5034 12.7538 12.3827 12.3224 11.166L12.185 10.7766L12.4728 10.5557C13.7801 9.55244 14.5 8.20091 14.5 6.75C14.5 3.85512 11.5841 1.5 8 1.5C4.41591 1.5 1.5 3.85512 1.5 6.75C1.5 9.64487 4.41591 12 8 12C8.32799 12 8.65568 11.98 8.98125 11.9402L9.20175 11.9132Z" fill="#25282B"/>
</svg>
